Araya-200.ufo
<glyph name="exclam" format="1">
  <advance width="268"/>
  <unicode hex="0021"/>
  <note>
	exclam
  </note>
  <outline>
    <contour>
      <point x="144" y="176" type="line"/>
      <point x="150" y="404" type="line"/>
      <point x="150" y="610" type="line"/>
      <point x="118" y="610" type="line"/>
      <point x="118" y="404" type="line"/>
      <point x="124" y="176" type="line"/>
    </contour>
    <contour>
      <point x="152" y="0" type="line"/>
      <point x="152" y="74" type="line"/>
      <point x="116" y="74" type="line"/>
      <point x="116" y="0" type="line"/>
    </contour>
  </outline>
</glyph>
<glyph name="quotedbl" format="1">
  <advance width="348"/>
  <unicode hex="0022"/>
  <note>
	quotedbl
  </note>
  <outline>
    <contour>
      <point x="244" y="423" type="line"/>
      <point x="252" y="554" type="line" smooth="yes"/>
      <point x="253" y="571"/>
      <point x="253" y="590"/>
      <point x="250" y="610" type="curve"/>
      <point x="223" y="610" type="line"/>
      <point x="220" y="590"/>
      <point x="220" y="571"/>
      <point x="221" y="554" type="curve" smooth="yes"/>
      <point x="229" y="423" type="line"/>
    </contour>
    <contour>
      <point x="119" y="423" type="line"/>
      <point x="127" y="554" type="line" smooth="yes"/>
      <point x="128" y="571"/>
      <point x="128" y="590"/>
      <point x="125" y="610" type="curve"/>
      <point x="98" y="610" type="line"/>
      <point x="95" y="590"/>
      <point x="95" y="571"/>
      <point x="96" y="554" type="curve" smooth="yes"/>
      <point x="104" y="423" type="line"/>
    </contour>
  </outline>
</glyph>
<glyph name="parenleft" format="1">
  <advance width="353"/>
  <unicode hex="0028"/>
  <note>
	parenleft
  </note>
  <outline>
    <contour>
      <point x="204" y="-97"/>
      <point x="223" y="-96"/>
      <point x="241" y="-94" type="curve"/>
      <point x="241" y="-63" type="line"/>
      <point x="149" y="-63" type="line"/>
      <point x="149" y="673" type="line"/>
      <point x="241" y="673" type="line"/>
      <point x="241" y="704" type="line"/>
      <point x="223" y="706"/>
      <point x="204" y="707"/>
      <point x="183" y="707" type="curve"/>
      <point x="148" y="694"/>
      <point x="121" y="674"/>
      <point x="115" y="644" type="curve"/>
      <point x="115" y="-34" type="line"/>
      <point x="121" y="-64"/>
      <point x="148" y="-84"/>
      <point x="183" y="-97" type="curve"/>
    </contour>
  </outline>
</glyph>
<glyph name="asterisk" format="1">
  <advance width="512"/>
  <unicode hex="002A"/>
  <note>
	asterisk
  </note>
  <outline>
    <contour>
      <point x="254" y="456" type="line"/>
      <point x="258" y="456" type="line"/>
      <point x="343" y="328" type="line"/>
      <point x="371" y="348" type="line"/>
      <point x="275" y="469" type="line"/>
      <point x="276" y="472" type="line"/>
      <point x="412" y="511" type="line"/>
      <point x="402" y="543" type="line"/>
      <point x="268" y="491" type="line"/>
      <point x="266" y="493" type="line"/>
      <point x="275" y="645" type="line"/>
      <point x="237" y="645" type="line"/>
      <point x="246" y="493" type="line"/>
      <point x="244" y="491" type="line"/>
      <point x="110" y="543" type="line"/>
      <point x="100" y="511" type="line"/>
      <point x="236" y="472" type="line"/>
      <point x="237" y="469" type="line"/>
      <point x="141" y="348" type="line"/>
      <point x="169" y="328" type="line"/>
    </contour>
  </outline>
</glyph>
<glyph name="comma" format="1">
  <advance width="238"/>
  <unicode hex="002C"/>
  <note>
	comma
  </note>
  <outline>
    <contour>
      <point x="148" y="-58"/>
      <point x="163" y="-17"/>
      <point x="163" y="30" type="curve" smooth="yes"/>
      <point x="163" y="68"/>
      <point x="145" y="88"/>
      <point x="110" y="88" type="curve" smooth="yes"/>
      <point x="97" y="88"/>
      <point x="86" y="86"/>
      <point x="77" y="83" type="curve"/>
      <point x="77" y="59" type="line"/>
      <point x="133" y="59" type="line"/>
      <point x="133" y="-9"/>
      <point x="120" y="-49"/>
      <point x="96" y="-91" type="curve"/>
      <point x="118" y="-96" type="line"/>
    </contour>
  </outline>
</glyph>
<glyph name="hyphen" format="1">
  <advance width="370"/>
  <unicode hex="002D"/>
  <note>
	hyphen
  </note>
  <outline>
    <contour>
      <point x="305" y="265" type="line"/>
      <point x="305" y="295" type="line"/>
      <point x="65" y="295" type="line"/>
      <point x="65" y="265" type="line"/>
    </contour>
  </outline>
</glyph>
<glyph name="period" format="1">
  <advance width="234"/>
  <unicode hex="002E"/>
  <note>
	period
  </note>
  <outline>
    <contour>
      <point x="144" y="0" type="line"/>
      <point x="144" y="54" type="line"/>
      <point x="90" y="54" type="line"/>
      <point x="90" y="0" type="line"/>
    </contour>
  </outline>
</glyph>
<glyph name="three" format="1">
  <advance width="544"/>
  <unicode hex="0033"/>
  <note>
	three
  </note>
  <outline>
    <contour>
      <point x="409" y="-4"/>
      <point x="440" y="71"/>
      <point x="440" y="154" type="curve" smooth="yes"/>
      <point x="440" y="221"/>
      <point x="423" y="268"/>
      <point x="342" y="295" type="curve"/>
      <point x="342" y="301" type="line"/>
      <point x="406" y="330"/>
      <point x="433" y="371"/>
      <point x="433" y="442" type="curve" smooth="yes"/>
      <point x="433" y="544"/>
      <point x="383" y="600"/>
      <point x="269" y="600" type="curve" smooth="yes"/>
      <point x="196" y="600"/>
      <point x="149" y="587"/>
      <point x="90" y="565" type="curve"/>
      <point x="90" y="535" type="line" smooth="yes"/>
      <point x="90" y="509"/>
      <point x="95" y="485"/>
      <point x="102" y="462" type="curve"/>
      <point x="122" y="462" type="line"/>
      <point x="122" y="551" type="line"/>
      <point x="173" y="563"/>
      <point x="213" y="569"/>
      <point x="263" y="569" type="curve" smooth="yes"/>
      <point x="354" y="569"/>
      <point x="401" y="528"/>
      <point x="401" y="438" type="curve" smooth="yes"/>
      <point x="401" y="359"/>
      <point x="358" y="312"/>
      <point x="262" y="312" type="curve" smooth="yes"/>
      <point x="181" y="312" type="line"/>
      <point x="181" y="281" type="line"/>
      <point x="262" y="281" type="line" smooth="yes"/>
      <point x="367" y="281"/>
      <point x="408" y="239"/>
      <point x="408" y="154" type="curve" smooth="yes"/>
      <point x="408" y="112"/>
      <point x="401" y="70"/>
      <point x="381" y="40" type="curve"/>
      <point x="338" y="31"/>
      <point x="309" y="27"/>
      <point x="257" y="27" type="curve" smooth="yes"/>
      <point x="201" y="27"/>
      <point x="143" y="34"/>
      <point x="92" y="47" type="curve"/>
      <point x="86" y="18" type="line"/>
      <point x="140" y="4"/>
      <point x="196" y="-4"/>
      <point x="256" y="-4" type="curve" smooth="yes"/>
    </contour>
  </outline>
</glyph>
<glyph name="four" format="1">
  <advance width="585"/>
  <unicode hex="0034"/>
  <note>
	four
  </note>
  <outline>
    <contour>
      <point x="417" y="0" type="line"/>
      <point x="417" y="133" type="line"/>
      <point x="503" y="133" type="line"/>
      <point x="503" y="164" type="line"/>
      <point x="417" y="164" type="line"/>
      <point x="417" y="600" type="line"/>
      <point x="385" y="600" type="line"/>
      <point x="76" y="172" type="line"/>
      <point x="88" y="133" type="line"/>
      <point x="385" y="133" type="line"/>
      <point x="385" y="0" type="line"/>
    </contour>
    <contour>
      <point x="111" y="170" type="line"/>
      <point x="386" y="551" type="line"/>
      <point x="392" y="551" type="line"/>
      <point x="385" y="379" type="line"/>
      <point x="385" y="164" type="line"/>
      <point x="113" y="164" type="line"/>
    </contour>
  </outline>
</glyph>
<glyph name="five" format="1">
  <advance width="545"/>
  <unicode hex="0035"/>
  <note>
	five
  </note>
  <outline>
    <contour>
      <point x="421" y="-4"/>
      <point x="457" y="71"/>
      <point x="457" y="191" type="curve" smooth="yes"/>
      <point x="457" y="308"/>
      <point x="395" y="353"/>
      <point x="296" y="353" type="curve" smooth="yes"/>
      <point x="243" y="353"/>
      <point x="204" y="346"/>
      <point x="143" y="327" type="curve"/>
      <point x="160" y="569" type="line"/>
      <point x="415" y="569" type="line"/>
      <point x="415" y="600" type="line"/>
      <point x="132" y="600" type="line"/>
      <point x="113" y="329" type="line"/>
      <point x="152" y="299" type="line"/>
      <point x="199" y="315"/>
      <point x="241" y="322"/>
      <point x="289" y="322" type="curve" smooth="yes"/>
      <point x="385" y="322"/>
      <point x="425" y="292"/>
      <point x="425" y="185" type="curve" smooth="yes"/>
      <point x="425" y="134"/>
      <point x="416" y="87"/>
      <point x="399" y="46" type="curve"/>
      <point x="355" y="32"/>
      <point x="323" y="27"/>
      <point x="268" y="27" type="curve" smooth="yes"/>
      <point x="211" y="27"/>
      <point x="161" y="34"/>
      <point x="99" y="50" type="curve"/>
      <point x="94" y="19" type="line"/>
      <point x="152" y="3"/>
      <point x="200" y="-4"/>
      <point x="262" y="-4" type="curve" smooth="yes"/>
    </contour>
  </outline>
</glyph>
<glyph name="six" format="1">
  <advance width="541"/>
  <unicode hex="0036"/>
  <note>
	six
  </note>
  <outline>
    <contour>
      <point x="437" y="0"/>
      <point x="467" y="95"/>
      <point x="467" y="185" type="curve" smooth="yes"/>
      <point x="467" y="298"/>
      <point x="409" y="352"/>
      <point x="306" y="352" type="curve" smooth="yes"/>
      <point x="243" y="352"/>
      <point x="182" y="332"/>
      <point x="130" y="301" type="curve"/>
      <point x="160" y="428"/>
      <point x="227" y="501"/>
      <point x="343" y="581" type="curve"/>
      <point x="315" y="596" type="line"/>
      <point x="188" y="510"/>
      <point x="94" y="402"/>
      <point x="94" y="230" type="curve" smooth="yes"/>
      <point x="94" y="87"/>
      <point x="158" y="0"/>
      <point x="286" y="0" type="curve" smooth="yes"/>
    </contour>
    <contour>
      <point x="183" y="31"/>
      <point x="126" y="94"/>
      <point x="126" y="230" type="curve" smooth="yes"/>
      <point x="126" y="243"/>
      <point x="126" y="255"/>
      <point x="128" y="269" type="curve"/>
      <point x="183" y="303"/>
      <point x="238" y="321"/>
      <point x="297" y="321" type="curve" smooth="yes"/>
      <point x="389" y="321"/>
      <point x="435" y="279"/>
      <point x="435" y="185" type="curve" smooth="yes"/>
      <point x="435" y="135"/>
      <point x="427" y="88"/>
      <point x="408" y="48" type="curve"/>
      <point x="369" y="36"/>
      <point x="340" y="31"/>
      <point x="289" y="31" type="curve" smooth="yes"/>
    </contour>
  </outline>
</glyph>
<glyph name="eight" format="1">
  <advance width="587"/>
  <unicode hex="0038"/>
  <note>
	eight
  </note>
  <outline>
    <contour>
      <point x="446" y="-4"/>
      <point x="487" y="56"/>
      <point x="487" y="155" type="curve" smooth="yes"/>
      <point x="487" y="217"/>
      <point x="467" y="260"/>
      <point x="405" y="297" type="curve"/>
      <point x="405" y="303" type="line"/>
      <point x="451" y="333"/>
      <point x="474" y="373"/>
      <point x="474" y="435" type="curve" smooth="yes"/>
      <point x="474" y="540"/>
      <point x="418" y="600"/>
      <point x="311" y="600" type="curve" smooth="yes"/>
      <point x="175" y="600"/>
      <point x="115" y="538"/>
      <point x="115" y="440" type="curve" smooth="yes"/>
      <point x="115" y="378"/>
      <point x="143" y="345"/>
      <point x="188" y="317" type="curve"/>
      <point x="188" y="311" type="line"/>
      <point x="133" y="274"/>
      <point x="100" y="236"/>
      <point x="100" y="157" type="curve" smooth="yes"/>
      <point x="100" y="53"/>
      <point x="163" y="-4"/>
      <point x="295" y="-4" type="curve" smooth="yes"/>
    </contour>
    <contour>
      <point x="183" y="27"/>
      <point x="132" y="65"/>
      <point x="132" y="159" type="curve" smooth="yes"/>
      <point x="132" y="210"/>
      <point x="145" y="252"/>
      <point x="183" y="283" type="curve"/>
      <point x="220" y="289"/>
      <point x="250" y="291"/>
      <point x="295" y="291" type="curve" smooth="yes"/>
      <point x="413" y="291"/>
      <point x="455" y="248"/>
      <point x="455" y="146" type="curve" smooth="yes"/>
      <point x="455" y="116"/>
      <point x="450" y="81"/>
      <point x="439" y="53" type="curve"/>
      <point x="405" y="37"/>
      <point x="362" y="27"/>
      <point x="310" y="27" type="curve" smooth="yes"/>
    </contour>
    <contour>
      <point x="210" y="317"/>
      <point x="147" y="347"/>
      <point x="147" y="446" type="curve" smooth="yes"/>
      <point x="147" y="481"/>
      <point x="154" y="511"/>
      <point x="171" y="548" type="curve"/>
      <point x="210" y="561"/>
      <point x="255" y="569"/>
      <point x="295" y="569" type="curve" smooth="yes"/>
      <point x="396" y="569"/>
      <point x="442" y="531"/>
      <point x="442" y="426" type="curve" smooth="yes"/>
      <point x="442" y="394"/>
      <point x="438" y="367"/>
      <point x="426" y="336" type="curve"/>
      <point x="393" y="323"/>
      <point x="365" y="317"/>
      <point x="319" y="317" type="curve" smooth="yes"/>
    </contour>
  </outline>
</glyph>
<glyph name="nine" format="1">
  <advance width="542"/>
  <unicode hex="0039"/>
  <note>
	nine
  </note>
  <outline>
    <contour>
      <point x="353" y="86"/>
      <point x="448" y="184"/>
      <point x="448" y="359" type="curve" smooth="yes"/>
      <point x="448" y="502"/>
      <point x="395" y="596"/>
      <point x="264" y="596" type="curve" smooth="yes"/>
      <point x="118" y="596"/>
      <point x="74" y="506"/>
      <point x="74" y="396" type="curve" smooth="yes"/>
      <point x="74" y="283"/>
      <point x="142" y="227"/>
      <point x="235" y="227" type="curve" smooth="yes"/>
      <point x="314" y="227"/>
      <point x="359" y="247"/>
      <point x="411" y="281" type="curve"/>
      <point x="381" y="154"/>
      <point x="315" y="96"/>
      <point x="199" y="16" type="curve"/>
      <point x="226" y="0" type="line"/>
    </contour>
    <contour>
      <point x="160" y="258"/>
      <point x="106" y="302"/>
      <point x="106" y="396" type="curve" smooth="yes"/>
      <point x="106" y="454"/>
      <point x="116" y="500"/>
      <point x="138" y="548" type="curve"/>
      <point x="177" y="560"/>
      <point x="215" y="565"/>
      <point x="261" y="565" type="curve" smooth="yes"/>
      <point x="367" y="565"/>
      <point x="416" y="495"/>
      <point x="416" y="359" type="curve" smooth="yes"/>
      <point x="416" y="346"/>
      <point x="415" y="326"/>
      <point x="413" y="312" type="curve"/>
      <point x="358" y="275"/>
      <point x="315" y="258"/>
      <point x="242" y="258" type="curve" smooth="yes"/>
    </contour>
  </outline>
</glyph>
<glyph name="less" format="1">
  <advance width="617"/>
  <unicode hex="003C"/>
  <note>
	less
  </note>
  <outline>
    <contour>
      <point x="502" y="75" type="line"/>
      <point x="135" y="245" type="line"/>
      <point x="135" y="251" type="line"/>
      <point x="502" y="421" type="line"/>
      <point x="492" y="458" type="line"/>
      <point x="95" y="266" type="line"/>
      <point x="95" y="230" type="line"/>
      <point x="492" y="38" type="line"/>
    </contour>
  </outline>
</glyph>
<glyph name="at" format="1">
  <advance width="826"/>
  <unicode hex="0040"/>
  <note>
	at
  </note>
  <outline>
    <contour>
      <point x="531" y="-59"/>
      <point x="596" y="-45"/>
      <point x="652" y="-13" type="curve"/>
      <point x="640" y="9" type="line"/>
      <point x="587" y="-18"/>
      <point x="534" y="-32"/>
      <point x="450" y="-32" type="curve" smooth="yes"/>
      <point x="260" y="-32"/>
      <point x="134" y="58"/>
      <point x="134" y="269" type="curve" smooth="yes"/>
      <point x="134" y="445"/>
      <point x="235" y="579"/>
      <point x="436" y="579" type="curve" smooth="yes"/>
      <point x="614" y="579"/>
      <point x="695" y="467"/>
      <point x="695" y="324" type="curve" smooth="yes"/>
      <point x="695" y="255"/>
      <point x="683" y="203"/>
      <point x="659" y="166" type="curve"/>
      <point x="633" y="157"/>
      <point x="613" y="155"/>
      <point x="583" y="155" type="curve" smooth="yes"/>
      <point x="545" y="155"/>
      <point x="518" y="170"/>
      <point x="499" y="190" type="curve"/>
      <point x="544" y="411" type="line"/>
      <point x="525" y="414" type="line"/>
      <point x="508" y="377" type="line"/>
      <point x="502" y="377" type="line"/>
      <point x="482" y="404"/>
      <point x="454" y="425"/>
      <point x="417" y="425" type="curve" smooth="yes"/>
      <point x="329" y="425"/>
      <point x="277" y="335"/>
      <point x="277" y="235" type="curve" smooth="yes"/>
      <point x="277" y="164"/>
      <point x="316" y="119"/>
      <point x="376" y="119" type="curve" smooth="yes"/>
      <point x="423" y="119"/>
      <point x="455" y="139"/>
      <point x="482" y="174" type="curve"/>
      <point x="488" y="174" type="line"/>
      <point x="512" y="145"/>
      <point x="540" y="127"/>
      <point x="579" y="127" type="curve" smooth="yes"/>
      <point x="690" y="127"/>
      <point x="724" y="227"/>
      <point x="724" y="327" type="curve" smooth="yes"/>
      <point x="724" y="479"/>
      <point x="630" y="606"/>
      <point x="436" y="606" type="curve" smooth="yes"/>
      <point x="213" y="606"/>
      <point x="105" y="454"/>
      <point x="105" y="269" type="curve" smooth="yes"/>
      <point x="105" y="59"/>
      <point x="227" y="-59"/>
      <point x="446" y="-59" type="curve" smooth="yes"/>
    </contour>
    <contour>
      <point x="331" y="147"/>
      <point x="307" y="174"/>
      <point x="307" y="237" type="curve" smooth="yes"/>
      <point x="307" y="323"/>
      <point x="347" y="397"/>
      <point x="418" y="397" type="curve" smooth="yes"/>
      <point x="454" y="397"/>
      <point x="477" y="380"/>
      <point x="500" y="351" type="curve"/>
      <point x="471" y="190" type="line"/>
      <point x="448" y="164"/>
      <point x="420" y="147"/>
      <point x="384" y="147" type="curve" smooth="yes"/>
    </contour>
  </outline>
</glyph>
<glyph name="F" format="1">
  <advance width="480"/>
  <unicode hex="0046"/>
  <note>
	F
  </note>
  <outline>
    <contour>
      <point x="123" y="0" type="line"/>
      <point x="123" y="295" type="line"/>
      <point x="389" y="295" type="line"/>
      <point x="389" y="323" type="line"/>
      <point x="123" y="323" type="line"/>
      <point x="123" y="585" type="line"/>
      <point x="440" y="585" type="line"/>
      <point x="440" y="616" type="line"/>
      <point x="91" y="616" type="line"/>
      <point x="91" y="0" type="line"/>
    </contour>
  </outline>
</glyph>
<glyph name="H" format="1">
  <advance width="578"/>
  <unicode hex="0048"/>
  <note>
	H
  </note>
  <outline>
    <contour>
      <point x="122" y="0" type="line"/>
      <point x="122" y="280" type="line"/>
      <point x="456" y="280" type="line"/>
      <point x="456" y="0" type="line"/>
      <point x="488" y="0" type="line"/>
      <point x="488" y="610" type="line"/>
      <point x="456" y="610" type="line"/>
      <point x="456" y="311" type="line"/>
      <point x="122" y="311" type="line"/>
      <point x="122" y="610" type="line"/>
      <point x="90" y="610" type="line"/>
      <point x="90" y="0" type="line"/>
    </contour>
  </outline>
</glyph>
<glyph name="J" format="1">
  <advance width="406"/>
  <unicode hex="004A"/>
  <note>
	J
  </note>
  <outline>
    <contour>
      <point x="266" y="-10"/>
      <point x="318" y="24"/>
      <point x="318" y="108" type="curve" smooth="yes"/>
      <point x="318" y="616" type="line"/>
      <point x="286" y="616" type="line"/>
      <point x="286" y="110" type="line" smooth="yes"/>
      <point x="286" y="81"/>
      <point x="283" y="64"/>
      <point x="276" y="45" type="curve"/>
      <point x="251" y="31"/>
      <point x="214" y="21"/>
      <point x="165" y="21" type="curve" smooth="yes"/>
      <point x="121" y="21"/>
      <point x="78" y="29"/>
      <point x="42" y="42" type="curve"/>
      <point x="32" y="12" type="line"/>
      <point x="70" y="-1"/>
      <point x="117" y="-10"/>
      <point x="160" y="-10" type="curve" smooth="yes"/>
    </contour>
  </outline>
</glyph>
<glyph name="M" format="1">
  <advance width="666"/>
  <unicode hex="004D"/>
  <note>
	M
  </note>
  <outline>
    <contour>
      <point x="112" y="0" type="line"/>
      <point x="129" y="320" type="line"/>
      <point x="137" y="544" type="line"/>
      <point x="143" y="545" type="line"/>
      <point x="316" y="196" type="line"/>
      <point x="350" y="196" type="line"/>
      <point x="523" y="545" type="line"/>
      <point x="529" y="544" type="line"/>
      <point x="537" y="320" type="line"/>
      <point x="554" y="0" type="line"/>
      <point x="586" y="0" type="line"/>
      <point x="553" y="610" type="line"/>
      <point x="524" y="610" type="line"/>
      <point x="336" y="229" type="line"/>
      <point x="330" y="229" type="line"/>
      <point x="142" y="610" type="line"/>
      <point x="113" y="610" type="line"/>
      <point x="80" y="0" type="line"/>
    </contour>
  </outline>
</glyph>
<glyph name="N" format="1">
  <advance width="603"/>
  <unicode hex="004E"/>
  <note>
	N
  </note>
  <outline>
    <contour>
      <point x="121" y="0" type="line"/>
      <point x="121" y="322" type="line"/>
      <point x="115" y="559" type="line"/>
      <point x="121" y="561" type="line"/>
      <point x="477" y="0" type="line"/>
      <point x="513" y="0" type="line"/>
      <point x="513" y="610" type="line"/>
      <point x="482" y="610" type="line"/>
      <point x="482" y="288" type="line"/>
      <point x="488" y="51" type="line"/>
      <point x="482" y="49" type="line"/>
      <point x="126" y="610" type="line"/>
      <point x="90" y="610" type="line"/>
      <point x="90" y="0" type="line"/>
    </contour>
  </outline>
</glyph>
<glyph name="Q" format="1">
  <advance width="599"/>
  <unicode hex="0051"/>
  <note>
	Q
  </note>
  <outline>
    <contour>
      <point x="413" y="-137"/>
      <point x="442" y="-134"/>
      <point x="485" y="-125" type="curve"/>
      <point x="478" y="-97" type="line"/>
      <point x="433" y="-105"/>
      <point x="404" y="-107"/>
      <point x="360" y="-107" type="curve" smooth="yes"/>
      <point x="329" y="-107"/>
      <point x="295" y="-103"/>
      <point x="264" y="-97" type="curve"/>
      <point x="264" y="-9" type="line"/>
      <point x="271" y="-10"/>
      <point x="278" y="-10"/>
      <point x="286" y="-10" type="curve" smooth="yes"/>
      <point x="477" y="-10"/>
      <point x="533" y="124"/>
      <point x="533" y="312" type="curve" smooth="yes"/>
      <point x="533" y="512"/>
      <point x="469" y="620"/>
      <point x="311" y="620" type="curve" smooth="yes"/>
      <point x="120" y="620"/>
      <point x="64" y="486"/>
      <point x="64" y="298" type="curve" smooth="yes"/>
      <point x="64" y="115"/>
      <point x="117" y="9"/>
      <point x="246" y="-7" type="curve"/>
      <point x="232" y="-87" type="line"/>
      <point x="232" y="-118" type="line"/>
      <point x="266" y="-129"/>
      <point x="317" y="-137"/>
      <point x="361" y="-137" type="curve" smooth="yes"/>
    </contour>
    <contour>
      <point x="144" y="21"/>
      <point x="96" y="107"/>
      <point x="96" y="305" type="curve" smooth="yes"/>
      <point x="96" y="411"/>
      <point x="118" y="496"/>
      <point x="161" y="557" type="curve"/>
      <point x="196" y="578"/>
      <point x="250" y="589"/>
      <point x="296" y="589" type="curve" smooth="yes"/>
      <point x="453" y="589"/>
      <point x="501" y="503"/>
      <point x="501" y="305" type="curve" smooth="yes"/>
      <point x="501" y="199"/>
      <point x="479" y="114"/>
      <point x="436" y="53" type="curve"/>
      <point x="401" y="32"/>
      <point x="347" y="21"/>
      <point x="301" y="21" type="curve" smooth="yes"/>
    </contour>
  </outline>
</glyph>
<glyph name="T" format="1">
  <advance width="505"/>
  <unicode hex="0054"/>
  <note>
	T
  </note>
  <outline>
    <contour>
      <point x="269" y="0" type="line"/>
      <point x="269" y="579" type="line"/>
      <point x="467" y="579" type="line"/>
      <point x="467" y="610" type="line"/>
      <point x="38" y="610" type="line"/>
      <point x="38" y="579" type="line"/>
      <point x="237" y="579" type="line"/>
      <point x="237" y="0" type="line"/>
    </contour>
  </outline>
</glyph>
<glyph name="Y" format="1">
  <advance width="582"/>
  <unicode hex="0059"/>
  <note>
	Y
  </note>
  <outline>
    <contour>
      <point x="307" y="0" type="line"/>
      <point x="307" y="235" type="line"/>
      <point x="325" y="235" type="line"/>
      <point x="405" y="329"/>
      <point x="485" y="458"/>
      <point x="548" y="606" type="curve"/>
      <point x="516" y="617" type="line"/>
      <point x="462" y="479"/>
      <point x="383" y="353"/>
      <point x="311" y="262" type="curve"/>
      <point x="271" y="262" type="line"/>
      <point x="199" y="353"/>
      <point x="120" y="479"/>
      <point x="66" y="617" type="curve"/>
      <point x="34" y="606" type="line"/>
      <point x="97" y="458"/>
      <point x="177" y="329"/>
      <point x="257" y="235" type="curve"/>
      <point x="275" y="235" type="line"/>
      <point x="275" y="0" type="line"/>
    </contour>
  </outline>
</glyph>
<glyph name="Z" format="1">
  <advance width="537"/>
  <unicode hex="005A"/>
  <note>
	Z
  </note>
  <outline>
    <contour>
      <point x="475" y="0" type="line"/>
      <point x="475" y="23" type="line" smooth="yes"/>
      <point x="475" y="57"/>
      <point x="470" y="87"/>
      <point x="462" y="110" type="curve"/>
      <point x="444" y="110" type="line"/>
      <point x="444" y="31" type="line"/>
      <point x="97" y="31" type="line"/>
      <point x="97" y="37" type="line"/>
      <point x="468" y="565" type="line"/>
      <point x="468" y="610" type="line"/>
      <point x="83" y="610" type="line"/>
      <point x="83" y="587" type="line" smooth="yes"/>
      <point x="83" y="552"/>
      <point x="89" y="529"/>
      <point x="96" y="506" type="curve"/>
      <point x="114" y="506" type="line"/>
      <point x="114" y="579" type="line"/>
      <point x="436" y="579" type="line"/>
      <point x="436" y="573" type="line"/>
      <point x="65" y="49" type="line"/>
      <point x="65" y="0" type="line"/>
    </contour>
  </outline>
</glyph>
<glyph name="bracketleft" format="1">
  <advance width="271"/>
  <unicode hex="005B"/>
  <note>
	bracketleft
  </note>
  <outline>
    <contour>
      <point x="184" y="-85" type="line"/>
      <point x="184" y="-56" type="line"/>
      <point x="122" y="-56" type="line"/>
      <point x="122" y="677" type="line"/>
      <point x="184" y="677" type="line"/>
      <point x="184" y="707" type="line"/>
      <point x="90" y="707" type="line"/>
      <point x="90" y="-85" type="line"/>
    </contour>
  </outline>
</glyph>
<glyph name="backslash" format="1">
  <advance width="422"/>
  <unicode hex="005C"/>
  <note>
	backslash
  </note>
  <outline>
    <contour>
      <point x="349" y="-6" type="line"/>
      <point x="104" y="631" type="line"/>
      <point x="73" y="623" type="line"/>
      <point x="317" y="-14" type="line"/>
    </contour>
  </outline>
</glyph>
<glyph name="bracketright" format="1">
  <advance width="271"/>
  <unicode hex="005D"/>
  <note>
	bracketright
  </note>
  <outline>
    <contour>
      <point x="181" y="-85" type="line"/>
      <point x="181" y="707" type="line"/>
      <point x="87" y="707" type="line"/>
      <point x="87" y="677" type="line"/>
      <point x="149" y="677" type="line"/>
      <point x="149" y="-56" type="line"/>
      <point x="87" y="-56" type="line"/>
      <point x="87" y="-85" type="line"/>
    </contour>
  </outline>
</glyph>
<glyph name="asciicircum" format="1">
  <advance width="573"/>
  <unicode hex="005E"/>
  <note>
	asciicircum
  </note>
  <outline>
    <contour>
      <point x="284" y="566" type="line"/>
      <point x="289" y="566" type="line"/>
      <point x="457" y="278" type="line"/>
      <point x="490" y="293" type="line"/>
      <point x="305" y="610" type="line"/>
      <point x="268" y="610" type="line"/>
      <point x="83" y="293" type="line"/>
      <point x="116" y="278" type="line"/>
    </contour>
  </outline>
</glyph>
<glyph name="underscore" format="1">
  <advance width="550"/>
  <unicode hex="005F"/>
  <note>
	underscore
  </note>
  <outline>
    <contour>
      <point x="475" y="-24" type="line"/>
      <point x="475" y="0" type="line"/>
      <point x="75" y="0" type="line"/>
      <point x="75" y="-24" type="line"/>
    </contour>
  </outline>
</glyph>
<glyph name="a" format="1">
  <advance width="453"/>
  <unicode hex="0061"/>
  <note>
	a
  </note>
  <outline>
    <contour>
      <point x="251" y="-10"/>
      <point x="302" y="20"/>
      <point x="339" y="67" type="curve"/>
      <point x="345" y="67" type="line"/>
      <point x="349" y="0" type="line"/>
      <point x="372" y="0" type="line"/>
      <point x="372" y="332" type="line" smooth="yes"/>
      <point x="372" y="425"/>
      <point x="324" y="472"/>
      <point x="243" y="472" type="curve" smooth="yes"/>
      <point x="185" y="472"/>
      <point x="129" y="454"/>
      <point x="89" y="432" type="curve"/>
      <point x="89" y="423" type="line" smooth="yes"/>
      <point x="89" y="407"/>
      <point x="91" y="385"/>
      <point x="96" y="369" type="curve"/>
      <point x="118" y="369" type="line"/>
      <point x="128" y="437" type="line"/>
      <point x="158" y="441"/>
      <point x="194" y="444"/>
      <point x="222" y="444" type="curve" smooth="yes"/>
      <point x="307" y="444"/>
      <point x="342" y="413"/>
      <point x="342" y="322" type="curve" smooth="yes"/>
      <point x="342" y="245" type="line"/>
      <point x="318" y="248"/>
      <point x="284" y="251"/>
      <point x="248" y="251" type="curve" smooth="yes"/>
      <point x="121" y="251"/>
      <point x="52" y="199"/>
      <point x="52" y="101" type="curve" smooth="yes"/>
      <point x="52" y="34"/>
      <point x="95" y="-10"/>
      <point x="179" y="-10" type="curve" smooth="yes"/>
    </contour>
    <contour>
      <point x="122" y="18"/>
      <point x="82" y="38"/>
      <point x="82" y="109" type="curve" smooth="yes"/>
      <point x="82" y="147"/>
      <point x="94" y="180"/>
      <point x="114" y="209" type="curve"/>
      <point x="150" y="218"/>
      <point x="195" y="222"/>
      <point x="233" y="222" type="curve" smooth="yes"/>
      <point x="272" y="222"/>
      <point x="307" y="220"/>
      <point x="344" y="216" type="curve"/>
      <point x="344" y="104" type="line"/>
      <point x="309" y="52"/>
      <point x="255" y="18"/>
      <point x="186" y="18" type="curve" smooth="yes"/>
    </contour>
  </outline>
</glyph>
<glyph name="b" format="1">
  <advance width="500"/>
  <unicode hex="0062"/>
  <note>
	b
  </note>
  <outline>
    <contour>
      <point x="377" y="-10"/>
      <point x="442" y="81"/>
      <point x="442" y="248" type="curve" smooth="yes"/>
      <point x="442" y="389"/>
      <point x="390" y="472"/>
      <point x="290" y="472" type="curve" smooth="yes"/>
      <point x="221" y="472"/>
      <point x="171" y="442"/>
      <point x="121" y="399" type="curve"/>
      <point x="113" y="399" type="line"/>
      <point x="118" y="488" type="line"/>
      <point x="118" y="665" type="line"/>
      <point x="88" y="665" type="line"/>
      <point x="88" y="11" type="line"/>
      <point x="138" y="-2"/>
      <point x="181" y="-10"/>
      <point x="234" y="-10" type="curve" smooth="yes"/>
    </contour>
    <contour>
      <point x="194" y="19"/>
      <point x="150" y="25"/>
      <point x="118" y="33" type="curve"/>
      <point x="118" y="365" type="line"/>
      <point x="170" y="416"/>
      <point x="222" y="443"/>
      <point x="286" y="443" type="curve" smooth="yes"/>
      <point x="370" y="443"/>
      <point x="412" y="380"/>
      <point x="412" y="245" type="curve" smooth="yes"/>
      <point x="412" y="94"/>
      <point x="356" y="19"/>
      <point x="236" y="19" type="curve" smooth="yes"/>
    </contour>
  </outline>
</glyph>
<glyph name="i" format="1">
  <advance width="207"/>
  <unicode hex="0069"/>
  <note>
	i
  </note>
  <outline>
    <contour>
      <point x="118" y="0" type="line"/>
      <point x="118" y="463" type="line"/>
      <point x="88" y="463" type="line"/>
      <point x="88" y="0" type="line"/>
    </contour>
    <contour>
      <point x="119" y="554" type="line"/>
      <point x="119" y="638" type="line"/>
      <point x="89" y="638" type="line"/>
      <point x="89" y="554" type="line"/>
    </contour>
  </outline>
</glyph>
<glyph name="v" format="1">
  <advance width="470"/>
  <unicode hex="0076"/>
  <note>
	v
  </note>
  <outline>
    <contour>
      <point x="259" y="0" type="line"/>
      <point x="324" y="155"/>
      <point x="378" y="306"/>
      <point x="429" y="463" type="curve"/>
      <point x="397" y="467" type="line"/>
      <point x="350" y="315"/>
      <point x="290" y="144"/>
      <point x="242" y="30" type="curve"/>
      <point x="228" y="30" type="line"/>
      <point x="180" y="144"/>
      <point x="120" y="315"/>
      <point x="73" y="467" type="curve"/>
      <point x="41" y="463" type="line"/>
      <point x="92" y="306"/>
      <point x="146" y="155"/>
      <point x="211" y="0" type="curve"/>
    </contour>
  </outline>
</glyph>
<glyph name="asciitilde" format="1">
  <advance width="442"/>
  <unicode hex="007E"/>
  <note>
	asciitilde
  </note>
  <outline>
    <contour>
      <point x="101" y="277"/>
      <point x="115" y="302"/>
      <point x="153" y="302" type="curve" smooth="yes"/>
      <point x="196" y="302"/>
      <point x="234" y="239"/>
      <point x="292" y="239" type="curve" smooth="yes"/>
      <point x="339" y="239"/>
      <point x="367" y="266"/>
      <point x="377" y="329" type="curve"/>
      <point x="350" y="333" type="line"/>
      <point x="341" y="294"/>
      <point x="327" y="269"/>
      <point x="289" y="269" type="curve" smooth="yes"/>
      <point x="243" y="269"/>
      <point x="215" y="332"/>
      <point x="150" y="332" type="curve" smooth="yes"/>
      <point x="103" y="332"/>
      <point x="75" y="305"/>
      <point x="65" y="242" type="curve"/>
      <point x="92" y="238" type="line"/>
    </contour>
  </outline>
</glyph>
<glyph name="exclamdown" format="1">
  <advance width="218"/>
  <unicode hex="00A1"/>
  <note>
	exclamdown
  </note>
  <outline>
    <contour>
      <point x="125" y="0" type="line"/>
      <point x="125" y="207" type="line"/>
      <point x="119" y="434" type="line"/>
      <point x="99" y="434" type="line"/>
      <point x="93" y="206" type="line"/>
      <point x="93" y="0" type="line"/>
    </contour>
    <contour>
      <point x="127" y="536" type="line"/>
      <point x="127" y="610" type="line"/>
      <point x="91" y="610" type="line"/>
      <point x="91" y="536" type="line"/>
    </contour>
  </outline>
</glyph>
<glyph name="cent" format="1">
  <advance width="444"/>
  <unicode hex="00A2"/>
  <note>
	cent
  </note>
  <outline>
    <contour>
      <point x="261" y="-144" type="line"/>
      <point x="261" y="-10" type="line"/>
      <point x="325" y="-8"/>
      <point x="367" y="11"/>
      <point x="403" y="38" type="curve"/>
      <point x="385" y="61" type="line"/>
      <point x="350" y="36"/>
      <point x="309" y="20"/>
      <point x="254" y="20" type="curve" smooth="yes"/>
      <point x="146" y="20"/>
      <point x="95" y="89"/>
      <point x="95" y="210" type="curve" smooth="yes"/>
      <point x="95" y="307"/>
      <point x="115" y="376"/>
      <point x="137" y="421" type="curve"/>
      <point x="170" y="436"/>
      <point x="207" y="442"/>
      <point x="247" y="442" type="curve" smooth="yes"/>
      <point x="283" y="442"/>
      <point x="314" y="439"/>
      <point x="345" y="432" type="curve"/>
      <point x="350" y="352" type="line"/>
      <point x="366" y="352" type="line"/>
      <point x="372" y="369"/>
      <point x="375" y="392"/>
      <point x="375" y="418" type="curve" smooth="yes"/>
      <point x="375" y="437" type="line"/>
      <point x="344" y="455"/>
      <point x="308" y="470"/>
      <point x="261" y="472" type="curve"/>
      <point x="261" y="610" type="line"/>
      <point x="230" y="610" type="line"/>
      <point x="230" y="471" type="line"/>
      <point x="104" y="460"/>
      <point x="65" y="349"/>
      <point x="65" y="207" type="curve" smooth="yes"/>
      <point x="65" y="80"/>
      <point x="115" y="0"/>
      <point x="230" y="-9" type="curve"/>
      <point x="230" y="-144" type="line"/>
    </contour>
  </outline>
</glyph>
<glyph name="sterling" format="1">
  <advance width="533"/>
  <unicode hex="00A3"/>
  <note>
	sterling
  </note>
  <outline>
    <contour>
      <point x="358" y="-4"/>
      <point x="405" y="-1"/>
      <point x="473" y="5" type="curve"/>
      <point x="473" y="33" type="line"/>
      <point x="411" y="28"/>
      <point x="357" y="25"/>
      <point x="306" y="25" type="curve" smooth="yes"/>
      <point x="247" y="25"/>
      <point x="213" y="26"/>
      <point x="163" y="30" type="curve"/>
      <point x="163" y="263" type="line"/>
      <point x="369" y="263" type="line"/>
      <point x="369" y="293" type="line"/>
      <point x="163" y="293" type="line"/>
      <point x="163" y="443" type="line" smooth="yes"/>
      <point x="163" y="486"/>
      <point x="168" y="512"/>
      <point x="183" y="559" type="curve"/>
      <point x="233" y="575"/>
      <point x="274" y="579"/>
      <point x="321" y="579" type="curve" smooth="yes"/>
      <point x="366" y="579"/>
      <point x="396" y="574"/>
      <point x="439" y="563" type="curve"/>
      <point x="446" y="590" type="line"/>
      <point x="402" y="604"/>
      <point x="370" y="610"/>
      <point x="318" y="610" type="curve" smooth="yes"/>
      <point x="187" y="610"/>
      <point x="131" y="553"/>
      <point x="131" y="448" type="curve" smooth="yes"/>
      <point x="131" y="293" type="line"/>
      <point x="66" y="293" type="line"/>
      <point x="66" y="263" type="line"/>
      <point x="131" y="263" type="line"/>
      <point x="131" y="30" type="line"/>
      <point x="65" y="24" type="line"/>
      <point x="65" y="5" type="line"/>
      <point x="137" y="-1"/>
      <point x="212" y="-4"/>
      <point x="287" y="-4" type="curve" smooth="yes"/>
    </contour>
  </outline>
</glyph>
<glyph name="brokenbar" format="1">
  <advance width="221"/>
  <unicode hex="00A6"/>
  <note>
	brokenbar
  </note>
  <outline>
    <contour>
      <point x="124" y="304" type="line"/>
      <point x="124" y="620" type="line"/>
      <point x="97" y="620" type="line"/>
      <point x="97" y="304" type="line"/>
    </contour>
    <contour>
      <point x="124" y="-110" type="line"/>
      <point x="124" y="206" type="line"/>
      <point x="97" y="206" type="line"/>
      <point x="97" y="-110" type="line"/>
    </contour>
  </outline>
</glyph>
<glyph name="section" format="1">
  <advance width="534"/>
  <unicode hex="00A7"/>
  <note>
	section
  </note>
  <outline>
    <contour>
      <point x="363" y="-127"/>
      <point x="403" y="-68"/>
      <point x="403" y="7" type="curve" smooth="yes"/>
      <point x="403" y="47"/>
      <point x="390" y="75"/>
      <point x="359" y="97" type="curve"/>
      <point x="359" y="103" type="line"/>
      <point x="424" y="141"/>
      <point x="457" y="172"/>
      <point x="457" y="238" type="curve" smooth="yes"/>
      <point x="457" y="320"/>
      <point x="409" y="343"/>
      <point x="299" y="367" type="curve" smooth="yes"/>
      <point x="186" y="392"/>
      <point x="140" y="417"/>
      <point x="140" y="490" type="curve" smooth="yes"/>
      <point x="140" y="558"/>
      <point x="194" y="586"/>
      <point x="278" y="586" type="curve" smooth="yes"/>
      <point x="313" y="586"/>
      <point x="342" y="582"/>
      <point x="369" y="576" type="curve"/>
      <point x="375" y="516" type="line"/>
      <point x="391" y="516" type="line"/>
      <point x="396" y="534"/>
      <point x="400" y="558"/>
      <point x="400" y="578" type="curve" smooth="yes"/>
      <point x="400" y="595" type="line"/>
      <point x="366" y="609"/>
      <point x="329" y="617"/>
      <point x="281" y="617" type="curve" smooth="yes"/>
      <point x="169" y="617"/>
      <point x="108" y="570"/>
      <point x="108" y="487" type="curve" smooth="yes"/>
      <point x="108" y="438"/>
      <point x="130" y="410"/>
      <point x="164" y="384" type="curve"/>
      <point x="164" y="378" type="line"/>
      <point x="107" y="346"/>
      <point x="77" y="315"/>
      <point x="77" y="255" type="curve" smooth="yes"/>
      <point x="77" y="188"/>
      <point x="117" y="155"/>
      <point x="213" y="126" type="curve" smooth="yes"/>
      <point x="339" y="88"/>
      <point x="371" y="71"/>
      <point x="371" y="2" type="curve" smooth="yes"/>
      <point x="371" y="-23"/>
      <point x="366" y="-59"/>
      <point x="356" y="-82" type="curve"/>
      <point x="320" y="-91"/>
      <point x="291" y="-96"/>
      <point x="245" y="-96" type="curve" smooth="yes"/>
      <point x="194" y="-96"/>
      <point x="163" y="-92"/>
      <point x="119" y="-79" type="curve"/>
      <point x="108" y="-107" type="line"/>
      <point x="160" y="-123"/>
      <point x="196" y="-127"/>
      <point x="244" y="-127" type="curve" smooth="yes"/>
    </contour>
    <contour>
      <point x="300" y="128"/>
      <point x="278" y="136"/>
      <point x="222" y="155" type="curve" smooth="yes"/>
      <point x="140" y="183"/>
      <point x="109" y="205"/>
      <point x="109" y="257" type="curve" smooth="yes"/>
      <point x="109" y="313"/>
      <point x="134" y="339"/>
      <point x="191" y="366" type="curve"/>
      <point x="227" y="354"/>
      <point x="242" y="349"/>
      <point x="288" y="338" type="curve" smooth="yes"/>
      <point x="402" y="311"/>
      <point x="425" y="292"/>
      <point x="425" y="232" type="curve" smooth="yes"/>
      <point x="425" y="178"/>
      <point x="378" y="140"/>
      <point x="338" y="114" type="curve"/>
    </contour>
  </outline>
</glyph>
<glyph name="dieresis" format="1">
  <advance width="370"/>
  <unicode hex="00A8"/>
  <note>
	dieresis
  </note>
  <outline>
    <contour>
      <point x="282" y="498"/>
      <point x="292" y="508"/>
      <point x="292" y="525" type="curve" smooth="yes"/>
      <point x="292" y="543"/>
      <point x="282" y="552"/>
      <point x="265" y="552" type="curve" smooth="yes"/>
      <point x="247" y="552"/>
      <point x="236" y="543"/>
      <point x="236" y="525" type="curve" smooth="yes"/>
      <point x="236" y="508"/>
      <point x="247" y="498"/>
      <point x="265" y="498" type="curve" smooth="yes"/>
    </contour>
    <contour>
      <point x="124" y="498"/>
      <point x="134" y="508"/>
      <point x="134" y="525" type="curve" smooth="yes"/>
      <point x="134" y="543"/>
      <point x="124" y="552"/>
      <point x="107" y="552" type="curve" smooth="yes"/>
      <point x="90" y="552"/>
      <point x="79" y="543"/>
      <point x="79" y="525" type="curve" smooth="yes"/>
      <point x="79" y="508"/>
      <point x="90" y="498"/>
      <point x="107" y="498" type="curve" smooth="yes"/>
    </contour>
  </outline>
</glyph>
<glyph name="ordfeminine" format="1">
  <advance width="351"/>
  <unicode hex="00AA"/>
  <note>
	ordfeminine
  </note>
  <outline>
    <contour>
      <point x="203" y="265"/>
      <point x="236" y="294"/>
      <point x="259" y="322" type="curve"/>
      <point x="265" y="322" type="line"/>
      <point x="268" y="270" type="line"/>
      <point x="291" y="270" type="line"/>
      <point x="291" y="523" type="line" smooth="yes"/>
      <point x="291" y="582"/>
      <point x="263" y="616"/>
      <point x="200" y="616" type="curve" smooth="yes"/>
      <point x="158" y="616"/>
      <point x="120" y="608"/>
      <point x="84" y="592" type="curve"/>
      <point x="84" y="579" type="line" smooth="yes"/>
      <point x="84" y="566"/>
      <point x="85" y="553"/>
      <point x="88" y="538" type="curve"/>
      <point x="103" y="538" type="line"/>
      <point x="108" y="578" type="line"/>
      <point x="134" y="584"/>
      <point x="167" y="587"/>
      <point x="188" y="587" type="curve" smooth="yes"/>
      <point x="247" y="587"/>
      <point x="262" y="572"/>
      <point x="262" y="515" type="curve" smooth="yes"/>
      <point x="262" y="448" type="line"/>
      <point x="244" y="452"/>
      <point x="225" y="454"/>
      <point x="203" y="454" type="curve" smooth="yes"/>
      <point x="116" y="454"/>
      <point x="58" y="417"/>
      <point x="58" y="348" type="curve" smooth="yes"/>
      <point x="58" y="303"/>
      <point x="85" y="265"/>
      <point x="146" y="265" type="curve" smooth="yes"/>
    </contour>
    <contour>
      <point x="101" y="294"/>
      <point x="88" y="316"/>
      <point x="88" y="356" type="curve" smooth="yes"/>
      <point x="88" y="375"/>
      <point x="91" y="397"/>
      <point x="104" y="418" type="curve"/>
      <point x="133" y="424"/>
      <point x="160" y="427"/>
      <point x="188" y="427" type="curve" smooth="yes"/>
      <point x="217" y="427"/>
      <point x="237" y="425"/>
      <point x="262" y="420" type="curve"/>
      <point x="262" y="354" type="line"/>
      <point x="235" y="318"/>
      <point x="203" y="294"/>
      <point x="154" y="294" type="curve" smooth="yes"/>
    </contour>
  </outline>
</glyph>
<glyph name="logicalnot" format="1">
  <advance width="442"/>
  <unicode hex="00AC"/>
  <note>
	logicalnot
  </note>
  <outline>
    <contour>
      <point x="377" y="152" type="line"/>
      <point x="377" y="327" type="line"/>
      <point x="65" y="327" type="line"/>
      <point x="65" y="298" type="line"/>
      <point x="347" y="298" type="line"/>
      <point x="347" y="152" type="line"/>
    </contour>
  </outline>
</glyph>
<glyph name="twosuperior" format="1">
  <advance width="319"/>
  <unicode hex="00B2"/>
  <note>
	twosuperior
  </note>
  <outline>
    <contour>
      <point x="269" y="334" type="line"/>
      <point x="269" y="347" type="line" smooth="yes"/>
      <point x="269" y="364"/>
      <point x="267" y="380"/>
      <point x="261" y="395" type="curve"/>
      <point x="240" y="395" type="line"/>
      <point x="240" y="363" type="line"/>
      <point x="82" y="363" type="line"/>
      <point x="82" y="367" type="line"/>
      <point x="176" y="427"/>
      <point x="264" y="507"/>
      <point x="264" y="592" type="curve" smooth="yes"/>
      <point x="264" y="646"/>
      <point x="240" y="690"/>
      <point x="163" y="690" type="curve" smooth="yes"/>
      <point x="128" y="690"/>
      <point x="93" y="684"/>
      <point x="61" y="672" type="curve"/>
      <point x="61" y="658" type="line" smooth="yes"/>
      <point x="61" y="638"/>
      <point x="63" y="620"/>
      <point x="66" y="607" type="curve"/>
      <point x="92" y="607" type="line"/>
      <point x="92" y="655" type="line"/>
      <point x="116" y="659"/>
      <point x="135" y="661"/>
      <point x="159" y="661" type="curve" smooth="yes"/>
      <point x="212" y="661"/>
      <point x="233" y="642"/>
      <point x="233" y="590" type="curve" smooth="yes"/>
      <point x="233" y="526"/>
      <point x="165" y="450"/>
      <point x="50" y="380" type="curve"/>
      <point x="50" y="334" type="line"/>
    </contour>
  </outline>
</glyph>
<glyph name="mu" format="1">
  <advance width="502"/>
  <unicode hex="00B5"/>
  <note>
	mu
  </note>
  <outline>
    <contour>
      <point x="121" y="-213" type="line"/>
      <point x="121" y="27" type="line"/>
      <point x="127" y="27" type="line"/>
      <point x="153" y="9"/>
      <point x="185" y="-4"/>
      <point x="230" y="-4" type="curve" smooth="yes"/>
      <point x="305" y="-4"/>
      <point x="343" y="25"/>
      <point x="384" y="71" type="curve"/>
      <point x="390" y="71" type="line"/>
      <point x="396" y="0" type="line"/>
      <point x="417" y="0" type="line"/>
      <point x="417" y="470" type="line"/>
      <point x="385" y="470" type="line"/>
      <point x="385" y="108" type="line"/>
      <point x="349" y="60"/>
      <point x="300" y="27"/>
      <point x="232" y="27" type="curve" smooth="yes"/>
      <point x="187" y="27"/>
      <point x="151" y="36"/>
      <point x="121" y="59" type="curve"/>
      <point x="121" y="470" type="line"/>
      <point x="89" y="470" type="line"/>
      <point x="89" y="-213" type="line"/>
    </contour>
  </outline>
</glyph>
<glyph name="cedilla" format="1">
  <advance width="324"/>
  <unicode hex="00B8"/>
  <note>
	cedilla
  </note>
  <outline>
    <contour>
      <point x="238" y="-216"/>
      <point x="274" y="-191"/>
      <point x="274" y="-133" type="curve" smooth="yes"/>
      <point x="274" y="-87"/>
      <point x="253" y="-62"/>
      <point x="204" y="-62" type="curve" smooth="yes"/>
      <point x="183" y="-62"/>
      <point x="165" y="-65"/>
      <point x="151" y="-71" type="curve"/>
      <point x="207" y="2" type="line"/>
      <point x="187" y="6" type="line"/>
      <point x="122" y="-70" type="line"/>
      <point x="149" y="-97" type="line"/>
      <point x="165" y="-92"/>
      <point x="178" y="-91"/>
      <point x="197" y="-91" type="curve" smooth="yes"/>
      <point x="233" y="-91"/>
      <point x="244" y="-107"/>
      <point x="244" y="-138" type="curve" smooth="yes"/>
      <point x="244" y="-153"/>
      <point x="241" y="-170"/>
      <point x="237" y="-180" type="curve"/>
      <point x="222" y="-185"/>
      <point x="208" y="-187"/>
      <point x="183" y="-187" type="curve" smooth="yes"/>
      <point x="156" y="-187"/>
      <point x="133" y="-183"/>
      <point x="110" y="-175" type="curve"/>
      <point x="100" y="-201" type="line"/>
      <point x="130" y="-213"/>
      <point x="152" y="-216"/>
      <point x="177" y="-216" type="curve" smooth="yes"/>
    </contour>
  </outline>
</glyph>
<glyph name="onesuperior" format="1">
  <advance width="219"/>
  <unicode hex="00B9"/>
  <note>
	onesuperior
  </note>
  <outline>
    <contour>
      <point x="156" y="332" type="line"/>
      <point x="156" y="665" type="line" smooth="yes"/>
      <point x="156" y="673"/>
      <point x="136" y="689"/>
      <point x="115" y="690" type="curve"/>
      <point x="38" y="640" type="line"/>
      <point x="44" y="626" type="line"/>
      <point x="122" y="658" type="line"/>
      <point x="126" y="655" type="line"/>
      <point x="126" y="332" type="line"/>
    </contour>
  </outline>
</glyph>
<glyph name="ordmasculine" format="1">
  <advance width="371"/>
  <unicode hex="00BA"/>
  <note>
	ordmasculine
  </note>
  <outline>
    <contour>
      <point x="276" y="265"/>
      <point x="314" y="330"/>
      <point x="314" y="434" type="curve" smooth="yes"/>
      <point x="314" y="545"/>
      <point x="272" y="596"/>
      <point x="194" y="596" type="curve" smooth="yes"/>
      <point x="95" y="596"/>
      <point x="57" y="531"/>
      <point x="57" y="427" type="curve" smooth="yes"/>
      <point x="57" y="319"/>
      <point x="99" y="265"/>
      <point x="177" y="265" type="curve" smooth="yes"/>
    </contour>
    <contour>
      <point x="117" y="294"/>
      <point x="87" y="344"/>
      <point x="87" y="434" type="curve" smooth="yes"/>
      <point x="87" y="478"/>
      <point x="94" y="518"/>
      <point x="109" y="555" type="curve"/>
      <point x="135" y="564"/>
      <point x="153" y="567"/>
      <point x="187" y="567" type="curve" smooth="yes"/>
      <point x="254" y="567"/>
      <point x="284" y="520"/>
      <point x="284" y="427" type="curve" smooth="yes"/>
      <point x="284" y="383"/>
      <point x="277" y="343"/>
      <point x="262" y="306" type="curve"/>
      <point x="236" y="297"/>
      <point x="218" y="294"/>
      <point x="184" y="294" type="curve" smooth="yes"/>
    </contour>
  </outline>
</glyph>
<glyph name="guillemotright" format="1">
  <advance width="449"/>
  <unicode hex="00BB"/>
  <note>
	guillemotright
  </note>
  <outline>
    <contour>
      <point x="379" y="251" type="line"/>
      <point x="249" y="420" type="line"/>
      <point x="229" y="412" type="line"/>
      <point x="348" y="253" type="line"/>
      <point x="348" y="249" type="line"/>
      <point x="229" y="90" type="line"/>
      <point x="249" y="82" type="line"/>
    </contour>
    <contour>
      <point x="219" y="251" type="line"/>
      <point x="89" y="420" type="line"/>
      <point x="69" y="412" type="line"/>
      <point x="188" y="253" type="line"/>
      <point x="188" y="249" type="line"/>
      <point x="69" y="90" type="line"/>
      <point x="89" y="82" type="line"/>
    </contour>
  </outline>
</glyph>
<glyph name="onequarter" format="1">
  <advance width="795"/>
  <unicode hex="00BC"/>
  <note>
	onequarter
  </note>
  <outline>
    <contour>
      <point x="580" y="611" type="line"/>
      <point x="553" y="618" type="line"/>
      <point x="168" y="3" type="line"/>
      <point x="195" y="-5" type="line"/>
    </contour>
    <contour>
      <point x="188" y="256" type="line"/>
      <point x="188" y="589" type="line" smooth="yes"/>
      <point x="188" y="597"/>
      <point x="168" y="613"/>
      <point x="147" y="614" type="curve"/>
      <point x="70" y="564" type="line"/>
      <point x="76" y="550" type="line"/>
      <point x="154" y="582" type="line"/>
      <point x="158" y="579" type="line"/>
      <point x="158" y="256" type="line"/>
    </contour>
    <contour>
      <point x="665" y="0" type="line"/>
      <point x="665" y="75" type="line"/>
      <point x="723" y="75" type="line"/>
      <point x="723" y="102" type="line"/>
      <point x="665" y="102" type="line"/>
      <point x="665" y="351" type="line"/>
      <point x="634" y="351" type="line"/>
      <point x="462" y="105" type="line"/>
      <point x="475" y="75" type="line"/>
      <point x="634" y="75" type="line"/>
      <point x="634" y="0" type="line"/>
    </contour>
    <contour>
      <point x="499" y="106" type="line"/>
      <point x="638" y="310" type="line"/>
      <point x="642" y="310" type="line"/>
      <point x="637" y="265"/>
      <point x="636" y="231"/>
      <point x="636" y="193" type="curve" smooth="yes"/>
      <point x="636" y="102" type="line"/>
      <point x="501" y="102" type="line"/>
    </contour>
  </outline>
</glyph>
<glyph name="threequarters" format="1">
  <advance width="824"/>
  <unicode hex="00BE"/>
  <note>
	threequarters
  </note>
  <outline>
    <contour>
      <point x="637" y="611" type="line"/>
      <point x="610" y="618" type="line"/>
      <point x="225" y="3" type="line"/>
      <point x="252" y="-5" type="line"/>
    </contour>
    <contour>
      <point x="260" y="249"/>
      <point x="290" y="292"/>
      <point x="290" y="342" type="curve" smooth="yes"/>
      <point x="290" y="378"/>
      <point x="274" y="411"/>
      <point x="212" y="427" type="curve"/>
      <point x="212" y="430" type="line"/>
      <point x="256" y="444"/>
      <point x="279" y="470"/>
      <point x="279" y="517" type="curve" smooth="yes"/>
      <point x="279" y="571"/>
      <point x="247" y="610"/>
      <point x="177" y="610" type="curve" smooth="yes"/>
      <point x="140" y="610"/>
      <point x="110" y="605"/>
      <point x="78" y="594" type="curve"/>
      <point x="78" y="580" type="line" smooth="yes"/>
      <point x="78" y="568"/>
      <point x="80" y="552"/>
      <point x="84" y="539" type="curve"/>
      <point x="108" y="539" type="line"/>
      <point x="108" y="576" type="line"/>
      <point x="134" y="580"/>
      <point x="148" y="581"/>
      <point x="175" y="581" type="curve" smooth="yes"/>
      <point x="224" y="581"/>
      <point x="248" y="559"/>
      <point x="248" y="512" type="curve" smooth="yes"/>
      <point x="248" y="465"/>
      <point x="222" y="443"/>
      <point x="170" y="443" type="curve" smooth="yes"/>
      <point x="139" y="443" type="line"/>
      <point x="139" y="414" type="line"/>
      <point x="170" y="414" type="line" smooth="yes"/>
      <point x="229" y="414"/>
      <point x="259" y="388"/>
      <point x="259" y="344" type="curve" smooth="yes"/>
      <point x="259" y="326"/>
      <point x="256" y="304"/>
      <point x="247" y="285" type="curve"/>
      <point x="220" y="279"/>
      <point x="200" y="278"/>
      <point x="170" y="278" type="curve" smooth="yes"/>
      <point x="137" y="278"/>
      <point x="110" y="281"/>
      <point x="78" y="289" type="curve"/>
      <point x="73" y="260" type="line"/>
      <point x="103" y="253"/>
      <point x="139" y="249"/>
      <point x="171" y="249" type="curve" smooth="yes"/>
    </contour>
    <contour>
      <point x="694" y="0" type="line"/>
      <point x="694" y="75" type="line"/>
      <point x="752" y="75" type="line"/>
      <point x="752" y="102" type="line"/>
      <point x="694" y="102" type="line"/>
      <point x="694" y="351" type="line"/>
      <point x="663" y="351" type="line"/>
      <point x="491" y="105" type="line"/>
      <point x="504" y="75" type="line"/>
      <point x="663" y="75" type="line"/>
      <point x="663" y="0" type="line"/>
    </contour>
    <contour>
      <point x="528" y="106" type="line"/>
      <point x="667" y="310" type="line"/>
      <point x="671" y="310" type="line"/>
      <point x="666" y="265"/>
      <point x="665" y="231"/>
      <point x="665" y="193" type="curve" smooth="yes"/>
      <point x="665" y="102" type="line"/>
      <point x="530" y="102" type="line"/>
    </contour>
  </outline>
</glyph>
<glyph name="questiondown" format="1">
  <advance width="503"/>
  <unicode hex="00BF"/>
  <note>
	questiondown
  </note>
  <outline>
    <contour>
      <point x="316" y="-104"/>
      <point x="385" y="-87"/>
      <point x="424" y="-70" type="curve"/>
      <point x="424" y="-48" type="line" smooth="yes"/>
      <point x="424" y="-23"/>
      <point x="419" y="2"/>
      <point x="411" y="25" type="curve"/>
      <point x="392" y="25" type="line"/>
      <point x="392" y="-53" type="line"/>
      <point x="345" y="-66"/>
      <point x="292" y="-73"/>
      <point x="242" y="-73" type="curve" smooth="yes"/>
      <point x="145" y="-73"/>
      <point x="107" y="-38"/>
      <point x="107" y="47" type="curve" smooth="yes"/>
      <point x="107" y="122" type="line"/>
      <point x="264" y="239" type="line" smooth="yes"/>
      <point x="286" y="256"/>
      <point x="294" y="269"/>
      <point x="294" y="297" type="curve" smooth="yes"/>
      <point x="294" y="363" type="line"/>
      <point x="262" y="363" type="line"/>
      <point x="262" y="305" type="line" smooth="yes"/>
      <point x="262" y="277"/>
      <point x="259" y="272"/>
      <point x="238" y="256" type="curve" smooth="yes"/>
      <point x="125" y="171" type="line" smooth="yes"/>
      <point x="82" y="139"/>
      <point x="75" y="105"/>
      <point x="75" y="51" type="curve" smooth="yes"/>
      <point x="75" y="-56"/>
      <point x="122" y="-104"/>
      <point x="240" y="-104" type="curve" smooth="yes"/>
    </contour>
    <contour>
      <point x="296" y="443" type="line"/>
      <point x="296" y="517" type="line"/>
      <point x="260" y="517" type="line"/>
      <point x="260" y="443" type="line"/>
    </contour>
  </outline>
</glyph>
<glyph name="Acircumflex" format="1">
  <advance width="568"/>
  <unicode hex="00C2"/>
  <note>
	Acircumflex
  </note>
  <outline>
    <contour>
      <point x="281" y="823" type="line"/>
      <point x="287" y="823" type="line"/>
      <point x="384" y="716" type="line"/>
      <point x="406" y="721" type="line"/>
      <point x="303" y="852" type="line"/>
      <point x="265" y="852" type="line"/>
      <point x="162" y="721" type="line"/>
      <point x="184" y="716" type="line"/>
    </contour>
    <contour>
      <point x="97" y="67"/>
      <point x="122" y="153"/>
      <point x="143" y="221" type="curve"/>
      <point x="425" y="221" type="line"/>
      <point x="446" y="153"/>
      <point x="471" y="67"/>
      <point x="489" y="0" type="curve"/>
      <point x="521" y="6" type="line"/>
      <point x="465" y="205"/>
      <point x="397" y="429"/>
      <point x="330" y="610" type="curve"/>
      <point x="238" y="610" type="line"/>
      <point x="171" y="429"/>
      <point x="103" y="205"/>
      <point x="47" y="6" type="curve"/>
      <point x="79" y="0" type="line"/>
    </contour>
    <contour>
      <point x="185" y="358"/>
      <point x="232" y="506"/>
      <point x="260" y="579" type="curve"/>
      <point x="308" y="579" type="line"/>
      <point x="336" y="506"/>
      <point x="383" y="358"/>
      <point x="415" y="251" type="curve"/>
      <point x="153" y="251" type="line"/>
    </contour>
  </outline>
</glyph>
<glyph name="Atilde" format="1">
  <advance width="568"/>
  <unicode hex="00C3"/>
  <note>
	Atilde
  </note>
  <outline>
    <contour>
      <point x="381" y="716"/>
      <point x="406" y="749"/>
      <point x="409" y="796" type="curve"/>
      <point x="388" y="802" type="line"/>
      <point x="383" y="767"/>
      <point x="369" y="745"/>
      <point x="339" y="745" type="curve" smooth="yes"/>
      <point x="297" y="745"/>
      <point x="270" y="803"/>
      <point x="222" y="803" type="curve" smooth="yes"/>
      <point x="181" y="803"/>
      <point x="156" y="770"/>
      <point x="153" y="723" type="curve"/>
      <point x="174" y="717" type="line"/>
      <point x="179" y="752"/>
      <point x="193" y="774"/>
      <point x="223" y="774" type="curve" smooth="yes"/>
      <point x="260" y="774"/>
      <point x="290" y="716"/>
      <point x="340" y="716" type="curve" smooth="yes"/>
    </contour>
    <contour>
      <point x="97" y="67"/>
      <point x="122" y="153"/>
      <point x="143" y="221" type="curve"/>
      <point x="425" y="221" type="line"/>
      <point x="446" y="153"/>
      <point x="471" y="67"/>
      <point x="489" y="0" type="curve"/>
      <point x="521" y="6" type="line"/>
      <point x="465" y="205"/>
      <point x="397" y="429"/>
      <point x="330" y="610" type="curve"/>
      <point x="238" y="610" type="line"/>
      <point x="171" y="429"/>
      <point x="103" y="205"/>
      <point x="47" y="6" type="curve"/>
      <point x="79" y="0" type="line"/>
    </contour>
    <contour>
      <point x="185" y="358"/>
      <point x="232" y="506"/>
      <point x="260" y="579" type="curve"/>
      <point x="308" y="579" type="line"/>
      <point x="336" y="506"/>
      <point x="383" y="358"/>
      <point x="415" y="251" type="curve"/>
      <point x="153" y="251" type="line"/>
    </contour>
  </outline>
</glyph>
<glyph name="Aring" format="1">
  <advance width="568"/>
  <unicode hex="00C5"/>
  <note>
	Aring
  </note>
  <outline>
    <contour>
      <point x="349" y="711"/>
      <point x="386" y="755"/>
      <point x="386" y="803" type="curve" smooth="yes"/>
      <point x="386" y="855"/>
      <point x="358" y="880"/>
      <point x="293" y="880" type="curve" smooth="yes"/>
      <point x="225" y="880"/>
      <point x="181" y="836"/>
      <point x="181" y="788" type="curve" smooth="yes"/>
      <point x="181" y="738"/>
      <point x="213" y="711"/>
      <point x="274" y="711" type="curve" smooth="yes"/>
    </contour>
    <contour>
      <point x="231" y="736"/>
      <point x="209" y="755"/>
      <point x="209" y="791" type="curve" smooth="yes"/>
      <point x="209" y="809"/>
      <point x="211" y="822"/>
      <point x="219" y="845" type="curve"/>
      <point x="244" y="853"/>
      <point x="263" y="855"/>
      <point x="289" y="855" type="curve" smooth="yes"/>
      <point x="336" y="855"/>
      <point x="358" y="840"/>
      <point x="358" y="800" type="curve" smooth="yes"/>
      <point x="358" y="782"/>
      <point x="355" y="766"/>
      <point x="348" y="746" type="curve"/>
      <point x="323" y="738"/>
      <point x="304" y="736"/>
      <point x="278" y="736" type="curve" smooth="yes"/>
    </contour>
    <contour>
      <point x="97" y="67"/>
      <point x="122" y="153"/>
      <point x="143" y="221" type="curve"/>
      <point x="425" y="221" type="line"/>
      <point x="446" y="153"/>
      <point x="471" y="67"/>
      <point x="489" y="0" type="curve"/>
      <point x="521" y="6" type="line"/>
      <point x="465" y="205"/>
      <point x="397" y="429"/>
      <point x="330" y="610" type="curve"/>
      <point x="238" y="610" type="line"/>
      <point x="171" y="429"/>
      <point x="103" y="205"/>
      <point x="47" y="6" type="curve"/>
      <point x="79" y="0" type="line"/>
    </contour>
    <contour>
      <point x="185" y="358"/>
      <point x="232" y="506"/>
      <point x="260" y="579" type="curve"/>
      <point x="308" y="579" type="line"/>
      <point x="336" y="506"/>
      <point x="383" y="358"/>
      <point x="415" y="251" type="curve"/>
      <point x="153" y="251" type="line"/>
    </contour>
  </outline>
</glyph>
<glyph name="Ccedilla" format="1">
  <advance width="539"/>
  <unicode hex="00C7"/>
  <note>
	Ccedilla
  </note>
  <outline>
    <contour>
      <point x="350" y="-216"/>
      <point x="386" y="-191"/>
      <point x="386" y="-133" type="curve" smooth="yes"/>
      <point x="386" y="-87"/>
      <point x="365" y="-62"/>
      <point x="316" y="-62" type="curve" smooth="yes"/>
      <point x="295" y="-62"/>
      <point x="277" y="-65"/>
      <point x="263" y="-71" type="curve"/>
      <point x="310" y="-10" type="line"/>
      <point x="311" y="-10"/>
      <point x="312" y="-10"/>
      <point x="313" y="-10" type="curve" smooth="yes"/>
      <point x="390" y="-10"/>
      <point x="445" y="7"/>
      <point x="488" y="37" type="curve"/>
      <point x="472" y="61" type="line"/>
      <point x="428" y="35"/>
      <point x="382" y="21"/>
      <point x="315" y="21" type="curve" smooth="yes"/>
      <point x="166" y="21"/>
      <point x="94" y="114"/>
      <point x="94" y="295" type="curve" smooth="yes"/>
      <point x="94" y="409"/>
      <point x="122" y="494"/>
      <point x="181" y="567" type="curve"/>
      <point x="227" y="583"/>
      <point x="267" y="589"/>
      <point x="311" y="589" type="curve" smooth="yes"/>
      <point x="360" y="589"/>
      <point x="391" y="584"/>
      <point x="426" y="576" type="curve"/>
      <point x="437" y="490" type="line"/>
      <point x="453" y="490" type="line"/>
      <point x="457" y="504"/>
      <point x="460" y="534"/>
      <point x="460" y="554" type="curve" smooth="yes"/>
      <point x="460" y="585" type="line"/>
      <point x="424" y="604"/>
      <point x="381" y="620"/>
      <point x="312" y="620" type="curve" smooth="yes"/>
      <point x="133" y="620"/>
      <point x="62" y="473"/>
      <point x="62" y="295" type="curve" smooth="yes"/>
      <point x="62" y="112"/>
      <point x="134" y="2"/>
      <point x="286" y="-9" type="curve"/>
      <point x="234" y="-70" type="line"/>
      <point x="261" y="-97" type="line"/>
      <point x="277" y="-92"/>
      <point x="290" y="-91"/>
      <point x="309" y="-91" type="curve" smooth="yes"/>
      <point x="345" y="-91"/>
      <point x="356" y="-107"/>
      <point x="356" y="-138" type="curve" smooth="yes"/>
      <point x="356" y="-153"/>
      <point x="353" y="-170"/>
      <point x="349" y="-180" type="curve"/>
      <point x="334" y="-185"/>
      <point x="320" y="-187"/>
      <point x="295" y="-187" type="curve" smooth="yes"/>
      <point x="268" y="-187"/>
      <point x="245" y="-183"/>
      <point x="222" y="-175" type="curve"/>
      <point x="212" y="-201" type="line"/>
      <point x="242" y="-213"/>
      <point x="264" y="-216"/>
      <point x="289" y="-216" type="curve" smooth="yes"/>
    </contour>
  </outline>
</glyph>
<glyph name="Eacute" format="1">
  <advance width="513"/>
  <unicode hex="00C9"/>
  <note>
	Eacute
  </note>
  <outline>
    <contour>
      <point x="350" y="-10"/>
      <point x="394" y="-5"/>
      <point x="442" y="5" type="curve"/>
      <point x="434" y="34" type="line"/>
      <point x="388" y="25"/>
      <point x="344" y="20"/>
      <point x="287" y="20" type="curve" smooth="yes"/>
      <point x="221" y="20"/>
      <point x="178" y="24"/>
      <point x="122" y="36" type="curve"/>
      <point x="122" y="293" type="line"/>
      <point x="401" y="293" type="line"/>
      <point x="401" y="324" type="line"/>
      <point x="122" y="324" type="line"/>
      <point x="122" y="579" type="line"/>
      <point x="430" y="579" type="line"/>
      <point x="430" y="610" type="line"/>
      <point x="90" y="610" type="line"/>
      <point x="90" y="48" type="line" smooth="yes"/>
      <point x="90" y="4"/>
      <point x="179" y="-10"/>
      <point x="284" y="-10" type="curve" smooth="yes"/>
    </contour>
    <contour>
      <point x="376" y="859" type="line"/>
      <point x="331" y="864" type="line"/>
      <point x="247" y="725" type="line"/>
      <point x="266" y="721" type="line"/>
    </contour>
  </outline>
</glyph>
<glyph name="Edieresis" format="1">
  <advance width="513"/>
  <unicode hex="00CB"/>
  <note>
	Edieresis
  </note>
  <outline>
    <contour>
      <point x="350" y="-10"/>
      <point x="394" y="-5"/>
      <point x="442" y="5" type="curve"/>
      <point x="434" y="34" type="line"/>
      <point x="388" y="25"/>
      <point x="344" y="20"/>
      <point x="287" y="20" type="curve" smooth="yes"/>
      <point x="221" y="20"/>
      <point x="178" y="24"/>
      <point x="122" y="36" type="curve"/>
      <point x="122" y="293" type="line"/>
      <point x="401" y="293" type="line"/>
      <point x="401" y="324" type="line"/>
      <point x="122" y="324" type="line"/>
      <point x="122" y="579" type="line"/>
      <point x="430" y="579" type="line"/>
      <point x="430" y="610" type="line"/>
      <point x="90" y="610" type="line"/>
      <point x="90" y="48" type="line" smooth="yes"/>
      <point x="90" y="4"/>
      <point x="179" y="-10"/>
      <point x="284" y="-10" type="curve" smooth="yes"/>
    </contour>
    <contour>
      <point x="200" y="716"/>
      <point x="210" y="726"/>
      <point x="210" y="743" type="curve" smooth="yes"/>
      <point x="210" y="761"/>
      <point x="200" y="770"/>
      <point x="183" y="770" type="curve" smooth="yes"/>
      <point x="166" y="770"/>
      <point x="155" y="761"/>
      <point x="155" y="743" type="curve" smooth="yes"/>
      <point x="155" y="726"/>
      <point x="166" y="716"/>
      <point x="183" y="716" type="curve" smooth="yes"/>
    </contour>
    <contour>
      <point x="358" y="716"/>
      <point x="368" y="726"/>
      <point x="368" y="743" type="curve" smooth="yes"/>
      <point x="368" y="761"/>
      <point x="358" y="770"/>
      <point x="341" y="770" type="curve" smooth="yes"/>
      <point x="323" y="770"/>
      <point x="312" y="761"/>
      <point x="312" y="743" type="curve" smooth="yes"/>
      <point x="312" y="726"/>
      <point x="323" y="716"/>
      <point x="341" y="716" type="curve" smooth="yes"/>
    </contour>
  </outline>
</glyph>
<glyph name="Iacute" format="1">
  <advance width="218"/>
  <unicode hex="00CD"/>
  <note>
	Iacute
  </note>
  <outline>
    <contour>
      <point x="125" y="0" type="line"/>
      <point x="125" y="610" type="line"/>
      <point x="93" y="610" type="line"/>
      <point x="93" y="0" type="line"/>
    </contour>
    <contour>
      <point x="225" y="854" type="line"/>
      <point x="180" y="859" type="line"/>
      <point x="96" y="720" type="line"/>
      <point x="115" y="716" type="line"/>
    </contour>
  </outline>
</glyph>
<glyph name="Eth" format="1">
  <advance width="613"/>
  <unicode hex="00D0"/>
  <note>
	Eth
  </note>
  <outline>
    <contour>
      <point x="327" y="0" type="line" smooth="yes"/>
      <point x="510" y="0"/>
      <point x="559" y="159"/>
      <point x="559" y="318" type="curve" smooth="yes"/>
      <point x="559" y="519"/>
      <point x="481" y="620"/>
      <point x="302" y="620" type="curve" smooth="yes"/>
      <point x="243" y="620"/>
      <point x="197" y="614"/>
      <point x="147" y="604" type="curve"/>
      <point x="147" y="338" type="line"/>
      <point x="45" y="338" type="line"/>
      <point x="45" y="308" type="line"/>
      <point x="147" y="308" type="line"/>
      <point x="147" y="0" type="line"/>
    </contour>
    <contour>
      <point x="179" y="308" type="line"/>
      <point x="300" y="308" type="line"/>
      <point x="300" y="338" type="line"/>
      <point x="179" y="338" type="line"/>
      <point x="179" y="579" type="line"/>
      <point x="225" y="586"/>
      <point x="258" y="589"/>
      <point x="298" y="589" type="curve" smooth="yes"/>
      <point x="457" y="589"/>
      <point x="527" y="505"/>
      <point x="527" y="315" type="curve" smooth="yes"/>
      <point x="527" y="193"/>
      <point x="498" y="103"/>
      <point x="441" y="48" type="curve"/>
      <point x="403" y="35"/>
      <point x="373" y="31"/>
      <point x="323" y="31" type="curve" smooth="yes"/>
      <point x="179" y="31" type="line"/>
    </contour>
  </outline>
</glyph>
<glyph name="Oacute" format="1">
  <advance width="594"/>
  <unicode hex="00D3"/>
  <note>
	Oacute
  </note>
  <outline>
    <contour>
      <point x="476" y="-10"/>
      <point x="530" y="124"/>
      <point x="530" y="312" type="curve" smooth="yes"/>
      <point x="530" y="512"/>
      <point x="467" y="620"/>
      <point x="309" y="620" type="curve" smooth="yes"/>
      <point x="118" y="620"/>
      <point x="64" y="486"/>
      <point x="64" y="298" type="curve" smooth="yes"/>
      <point x="64" y="98"/>
      <point x="127" y="-10"/>
      <point x="285" y="-10" type="curve" smooth="yes"/>
    </contour>
    <contour>
      <point x="143" y="21"/>
      <point x="96" y="117"/>
      <point x="96" y="305" type="curve" smooth="yes"/>
      <point x="96" y="411"/>
      <point x="118" y="496"/>
      <point x="161" y="557" type="curve"/>
      <point x="196" y="578"/>
      <point x="248" y="589"/>
      <point x="294" y="589" type="curve" smooth="yes"/>
      <point x="451" y="589"/>
      <point x="498" y="493"/>
      <point x="498" y="305" type="curve" smooth="yes"/>
      <point x="498" y="199"/>
      <point x="476" y="114"/>
      <point x="433" y="53" type="curve"/>
      <point x="398" y="32"/>
      <point x="346" y="21"/>
      <point x="300" y="21" type="curve" smooth="yes"/>
    </contour>
    <contour>
      <point x="419" y="854" type="line"/>
      <point x="374" y="859" type="line"/>
      <point x="290" y="720" type="line"/>
      <point x="309" y="716" type="line"/>
    </contour>
  </outline>
</glyph>
<glyph name="Otilde" format="1">
  <advance width="594"/>
  <unicode hex="00D5"/>
  <note>
	Otilde
  </note>
  <outline>
    <contour>
      <point x="476" y="-10"/>
      <point x="530" y="124"/>
      <point x="530" y="312" type="curve" smooth="yes"/>
      <point x="530" y="512"/>
      <point x="467" y="620"/>
      <point x="309" y="620" type="curve" smooth="yes"/>
      <point x="118" y="620"/>
      <point x="64" y="486"/>
      <point x="64" y="298" type="curve" smooth="yes"/>
      <point x="64" y="98"/>
      <point x="127" y="-10"/>
      <point x="285" y="-10" type="curve" smooth="yes"/>
    </contour>
    <contour>
      <point x="143" y="21"/>
      <point x="96" y="117"/>
      <point x="96" y="305" type="curve" smooth="yes"/>
      <point x="96" y="411"/>
      <point x="118" y="496"/>
      <point x="161" y="557" type="curve"/>
      <point x="196" y="578"/>
      <point x="248" y="589"/>
      <point x="294" y="589" type="curve" smooth="yes"/>
      <point x="451" y="589"/>
      <point x="498" y="493"/>
      <point x="498" y="305" type="curve" smooth="yes"/>
      <point x="498" y="199"/>
      <point x="476" y="114"/>
      <point x="433" y="53" type="curve"/>
      <point x="398" y="32"/>
      <point x="346" y="21"/>
      <point x="300" y="21" type="curve" smooth="yes"/>
    </contour>
    <contour>
      <point x="398" y="716"/>
      <point x="423" y="749"/>
      <point x="426" y="796" type="curve"/>
      <point x="405" y="802" type="line"/>
      <point x="400" y="767"/>
      <point x="386" y="745"/>
      <point x="356" y="745" type="curve" smooth="yes"/>
      <point x="314" y="745"/>
      <point x="287" y="803"/>
      <point x="239" y="803" type="curve" smooth="yes"/>
      <point x="198" y="803"/>
      <point x="173" y="770"/>
      <point x="170" y="723" type="curve"/>
      <point x="191" y="717" type="line"/>
      <point x="196" y="752"/>
      <point x="210" y="774"/>
      <point x="240" y="774" type="curve" smooth="yes"/>
      <point x="277" y="774"/>
      <point x="307" y="716"/>
      <point x="357" y="716" type="curve" smooth="yes"/>
    </contour>
  </outline>
</glyph>
<glyph name="Odieresis" format="1">
  <advance width="594"/>
  <unicode hex="00D6"/>
  <note>
	Odieresis
  </note>
  <outline>
    <contour>
      <point x="476" y="-10"/>
      <point x="530" y="124"/>
      <point x="530" y="312" type="curve" smooth="yes"/>
      <point x="530" y="512"/>
      <point x="467" y="620"/>
      <point x="309" y="620" type="curve" smooth="yes"/>
      <point x="118" y="620"/>
      <point x="64" y="486"/>
      <point x="64" y="298" type="curve" smooth="yes"/>
      <point x="64" y="98"/>
      <point x="127" y="-10"/>
      <point x="285" y="-10" type="curve" smooth="yes"/>
    </contour>
    <contour>
      <point x="143" y="21"/>
      <point x="96" y="117"/>
      <point x="96" y="305" type="curve" smooth="yes"/>
      <point x="96" y="411"/>
      <point x="118" y="496"/>
      <point x="161" y="557" type="curve"/>
      <point x="196" y="578"/>
      <point x="248" y="589"/>
      <point x="294" y="589" type="curve" smooth="yes"/>
      <point x="451" y="589"/>
      <point x="498" y="493"/>
      <point x="498" y="305" type="curve" smooth="yes"/>
      <point x="498" y="199"/>
      <point x="476" y="114"/>
      <point x="433" y="53" type="curve"/>
      <point x="398" y="32"/>
      <point x="346" y="21"/>
      <point x="300" y="21" type="curve" smooth="yes"/>
    </contour>
    <contour>
      <point x="235" y="716"/>
      <point x="245" y="726"/>
      <point x="245" y="743" type="curve" smooth="yes"/>
      <point x="245" y="761"/>
      <point x="235" y="770"/>
      <point x="218" y="770" type="curve" smooth="yes"/>
      <point x="201" y="770"/>
      <point x="190" y="761"/>
      <point x="190" y="743" type="curve" smooth="yes"/>
      <point x="190" y="726"/>
      <point x="201" y="716"/>
      <point x="218" y="716" type="curve" smooth="yes"/>
    </contour>
    <contour>
      <point x="393" y="716"/>
      <point x="403" y="726"/>
      <point x="403" y="743" type="curve" smooth="yes"/>
      <point x="403" y="761"/>
      <point x="393" y="770"/>
      <point x="376" y="770" type="curve" smooth="yes"/>
      <point x="358" y="770"/>
      <point x="347" y="761"/>
      <point x="347" y="743" type="curve" smooth="yes"/>
      <point x="347" y="726"/>
      <point x="358" y="716"/>
      <point x="376" y="716" type="curve" smooth="yes"/>
    </contour>
  </outline>
</glyph>
<glyph name="multiply" format="1">
  <advance width="472"/>
  <unicode hex="00D7"/>
  <note>
	multiply
  </note>
  <outline>
    <contour>
      <point x="236" y="292" type="line"/>
      <point x="384" y="146" type="line"/>
      <point x="406" y="166" type="line"/>
      <point x="257" y="308" type="line"/>
      <point x="407" y="449" type="line"/>
      <point x="384" y="470" type="line"/>
      <point x="236" y="324" type="line"/>
      <point x="88" y="470" type="line"/>
      <point x="65" y="449" type="line"/>
      <point x="215" y="308" type="line"/>
      <point x="66" y="166" type="line"/>
      <point x="88" y="146" type="line"/>
    </contour>
  </outline>
</glyph>
<glyph name="Ugrave" format="1">
  <advance width="585"/>
  <unicode hex="00D9"/>
  <note>
	Ugrave
  </note>
  <outline>
    <contour>
      <point x="415" y="-10"/>
      <point x="497" y="22"/>
      <point x="497" y="70" type="curve" smooth="yes"/>
      <point x="497" y="610" type="line"/>
      <point x="465" y="610" type="line"/>
      <point x="465" y="52" type="line"/>
      <point x="424" y="34"/>
      <point x="372" y="21"/>
      <point x="298" y="21" type="curve" smooth="yes"/>
      <point x="173" y="21"/>
      <point x="118" y="54"/>
      <point x="118" y="176" type="curve" smooth="yes"/>
      <point x="118" y="610" type="line"/>
      <point x="86" y="610" type="line"/>
      <point x="86" y="165" type="line" smooth="yes"/>
      <point x="86" y="45"/>
      <point x="153" y="-10"/>
      <point x="291" y="-10" type="curve" smooth="yes"/>
    </contour>
    <contour>
      <point x="316" y="719" type="line"/>
      <point x="232" y="858" type="line"/>
      <point x="187" y="853" type="line"/>
      <point x="297" y="715" type="line"/>
    </contour>
  </outline>
</glyph>
<glyph name="Thorn" format="1">
  <advance width="469"/>
  <unicode hex="00DE"/>
  <note>
	Thorn
  </note>
  <outline>
    <contour>
      <point x="122" y="0" type="line"/>
      <point x="122" y="160" type="line"/>
      <point x="248" y="160" type="line" smooth="yes"/>
      <point x="362" y="160"/>
      <point x="414" y="219"/>
      <point x="414" y="322" type="curve" smooth="yes"/>
      <point x="414" y="425"/>
      <point x="362" y="482"/>
      <point x="248" y="482" type="curve" smooth="yes"/>
      <point x="122" y="482" type="line"/>
      <point x="122" y="616" type="line"/>
      <point x="90" y="616" type="line"/>
      <point x="90" y="0" type="line"/>
    </contour>
    <contour>
      <point x="122" y="451" type="line"/>
      <point x="244" y="451" type="line" smooth="yes"/>
      <point x="347" y="451"/>
      <point x="382" y="407"/>
      <point x="382" y="322" type="curve" smooth="yes"/>
      <point x="382" y="237"/>
      <point x="347" y="191"/>
      <point x="244" y="191" type="curve" smooth="yes"/>
      <point x="122" y="191" type="line"/>
    </contour>
  </outline>
</glyph>
<glyph name="germandbls" format="1">
  <advance width="529"/>
  <unicode hex="00DF"/>
  <note>
	germandbls
  </note>
  <outline>
    <contour>
      <point x="413" y="-9"/>
      <point x="448" y="71"/>
      <point x="448" y="173" type="curve" smooth="yes"/>
      <point x="448" y="260"/>
      <point x="417" y="323"/>
      <point x="307" y="351" type="curve"/>
      <point x="307" y="357" type="line"/>
      <point x="378" y="382"/>
      <point x="411" y="419"/>
      <point x="411" y="503" type="curve" smooth="yes"/>
      <point x="411" y="598"/>
      <point x="355" y="658"/>
      <point x="256" y="658" type="curve" smooth="yes"/>
      <point x="155" y="658"/>
      <point x="87" y="628"/>
      <point x="87" y="549" type="curve" smooth="yes"/>
      <point x="87" y="0" type="line"/>
      <point x="119" y="0" type="line"/>
      <point x="119" y="610" type="line"/>
      <point x="161" y="621"/>
      <point x="202" y="627"/>
      <point x="246" y="627" type="curve" smooth="yes"/>
      <point x="337" y="627"/>
      <point x="379" y="580"/>
      <point x="379" y="499" type="curve" smooth="yes"/>
      <point x="379" y="418"/>
      <point x="334" y="370"/>
      <point x="250" y="370" type="curve"/>
      <point x="250" y="337" type="line"/>
      <point x="367" y="327"/>
      <point x="416" y="269"/>
      <point x="416" y="172" type="curve" smooth="yes"/>
      <point x="416" y="109"/>
      <point x="401" y="67"/>
      <point x="383" y="32" type="curve"/>
      <point x="356" y="24"/>
      <point x="326" y="22"/>
      <point x="294" y="22" type="curve" smooth="yes"/>
      <point x="272" y="22"/>
      <point x="248" y="25"/>
      <point x="226" y="30" type="curve"/>
      <point x="219" y="1" type="line"/>
      <point x="241" y="-5"/>
      <point x="268" y="-9"/>
      <point x="295" y="-9" type="curve" smooth="yes"/>
    </contour>
  </outline>
</glyph>
<glyph name="ccedilla" format="1">
  <advance width="444"/>
  <unicode hex="00E7"/>
  <note>
	ccedilla
  </note>
  <outline>
    <contour>
      <point x="297" y="-216"/>
      <point x="333" y="-191"/>
      <point x="333" y="-133" type="curve" smooth="yes"/>
      <point x="333" y="-87"/>
      <point x="312" y="-62"/>
      <point x="263" y="-62" type="curve" smooth="yes"/>
      <point x="242" y="-62"/>
      <point x="224" y="-65"/>
      <point x="210" y="-71" type="curve"/>
      <point x="257" y="-10" type="line"/>
      <point x="325" y="-9"/>
      <point x="369" y="10"/>
      <point x="406" y="38" type="curve"/>
      <point x="388" y="61" type="line"/>
      <point x="353" y="36"/>
      <point x="312" y="20"/>
      <point x="257" y="20" type="curve" smooth="yes"/>
      <point x="149" y="20"/>
      <point x="92" y="89"/>
      <point x="92" y="210" type="curve" smooth="yes"/>
      <point x="92" y="307"/>
      <point x="109" y="364"/>
      <point x="140" y="421" type="curve"/>
      <point x="173" y="436"/>
      <point x="210" y="442"/>
      <point x="250" y="442" type="curve" smooth="yes"/>
      <point x="286" y="442"/>
      <point x="317" y="439"/>
      <point x="348" y="432" type="curve"/>
      <point x="353" y="352" type="line"/>
      <point x="369" y="352" type="line"/>
      <point x="375" y="369"/>
      <point x="378" y="392"/>
      <point x="378" y="418" type="curve" smooth="yes"/>
      <point x="378" y="437" type="line"/>
      <point x="345" y="457"/>
      <point x="306" y="472"/>
      <point x="253" y="472" type="curve" smooth="yes"/>
      <point x="111" y="472"/>
      <point x="62" y="357"/>
      <point x="62" y="207" type="curve" smooth="yes"/>
      <point x="62" y="80"/>
      <point x="117" y="0"/>
      <point x="233" y="-9" type="curve"/>
      <point x="181" y="-70" type="line"/>
      <point x="208" y="-97" type="line"/>
      <point x="224" y="-92"/>
      <point x="237" y="-91"/>
      <point x="256" y="-91" type="curve" smooth="yes"/>
      <point x="292" y="-91"/>
      <point x="303" y="-107"/>
      <point x="303" y="-138" type="curve" smooth="yes"/>
      <point x="303" y="-153"/>
      <point x="300" y="-170"/>
      <point x="296" y="-180" type="curve"/>
      <point x="281" y="-185"/>
      <point x="267" y="-187"/>
      <point x="242" y="-187" type="curve" smooth="yes"/>
      <point x="215" y="-187"/>
      <point x="192" y="-183"/>
      <point x="169" y="-175" type="curve"/>
      <point x="159" y="-201" type="line"/>
      <point x="189" y="-213"/>
      <point x="211" y="-216"/>
      <point x="236" y="-216" type="curve" smooth="yes"/>
    </contour>
  </outline>
</glyph>
<glyph name="igrave" format="1">
  <advance width="212"/>
  <unicode hex="00EC"/>
  <note>
	igrave
  </note>
  <outline>
    <contour>
      <point x="119" y="575" type="line"/>
      <point x="35" y="714" type="line"/>
      <point x="-10" y="709" type="line"/>
      <point x="100" y="571" type="line"/>
    </contour>
    <contour>
      <point x="121" y="0" type="line"/>
      <point x="121" y="464" type="line"/>
      <point x="91" y="464" type="line"/>
      <point x="91" y="0" type="line"/>
    </contour>
  </outline>
</glyph>
<glyph name="iacute" format="1">
  <advance width="212"/>
  <unicode hex="00ED"/>
  <note>
	iacute
  </note>
  <outline>
    <contour>
      <point x="223" y="709" type="line"/>
      <point x="178" y="714" type="line"/>
      <point x="94" y="575" type="line"/>
      <point x="113" y="571" type="line"/>
    </contour>
    <contour>
      <point x="121" y="0" type="line"/>
      <point x="121" y="464" type="line"/>
      <point x="91" y="464" type="line"/>
      <point x="91" y="0" type="line"/>
    </contour>
  </outline>
</glyph>
<glyph name="idieresis" format="1">
  <advance width="212"/>
  <unicode hex="00EF"/>
  <note>
	idieresis
  </note>
  <outline>
    <contour>
      <point x="121" y="0" type="line"/>
      <point x="121" y="464" type="line"/>
      <point x="91" y="464" type="line"/>
      <point x="91" y="0" type="line"/>
    </contour>
    <contour>
      <point x="45" y="566"/>
      <point x="55" y="576"/>
      <point x="55" y="593" type="curve" smooth="yes"/>
      <point x="55" y="611"/>
      <point x="45" y="620"/>
      <point x="28" y="620" type="curve" smooth="yes"/>
      <point x="11" y="620"/>
      <point x="0" y="611"/>
      <point x="0" y="593" type="curve" smooth="yes"/>
      <point x="0" y="576"/>
      <point x="11" y="566"/>
      <point x="28" y="566" type="curve" smooth="yes"/>
    </contour>
    <contour>
      <point x="203" y="566"/>
      <point x="213" y="576"/>
      <point x="213" y="593" type="curve" smooth="yes"/>
      <point x="213" y="611"/>
      <point x="203" y="620"/>
      <point x="186" y="620" type="curve" smooth="yes"/>
      <point x="168" y="620"/>
      <point x="157" y="611"/>
      <point x="157" y="593" type="curve" smooth="yes"/>
      <point x="157" y="576"/>
      <point x="168" y="566"/>
      <point x="186" y="566" type="curve" smooth="yes"/>
    </contour>
  </outline>
</glyph>
<glyph name="oacute" format="1">
  <advance width="492"/>
  <unicode hex="00F3"/>
  <note>
	oacute
  </note>
  <outline>
    <contour>
      <point x="397" y="-10"/>
      <point x="430" y="111"/>
      <point x="430" y="246" type="curve" smooth="yes"/>
      <point x="430" y="390"/>
      <point x="371" y="481"/>
      <point x="257" y="481" type="curve" smooth="yes"/>
      <point x="95" y="481"/>
      <point x="62" y="360"/>
      <point x="62" y="225" type="curve" smooth="yes"/>
      <point x="62" y="81"/>
      <point x="121" y="-10"/>
      <point x="235" y="-10" type="curve" smooth="yes"/>
    </contour>
    <contour>
      <point x="143" y="19"/>
      <point x="92" y="89"/>
      <point x="92" y="233" type="curve" smooth="yes"/>
      <point x="92" y="308"/>
      <point x="110" y="385"/>
      <point x="135" y="425" type="curve"/>
      <point x="166" y="444"/>
      <point x="206" y="452"/>
      <point x="250" y="452" type="curve" smooth="yes"/>
      <point x="349" y="452"/>
      <point x="400" y="382"/>
      <point x="400" y="238" type="curve" smooth="yes"/>
      <point x="400" y="163"/>
      <point x="382" y="86"/>
      <point x="357" y="46" type="curve"/>
      <point x="326" y="27"/>
      <point x="286" y="19"/>
      <point x="242" y="19" type="curve" smooth="yes"/>
    </contour>
    <contour>
      <point x="363" y="709" type="line"/>
      <point x="318" y="714" type="line"/>
      <point x="234" y="575" type="line"/>
      <point x="253" y="571" type="line"/>
    </contour>
  </outline>
</glyph>
<glyph name="odieresis" format="1">
  <advance width="492"/>
  <unicode hex="00F6"/>
  <note>
	odieresis
  </note>
  <outline>
    <contour>
      <point x="397" y="-10"/>
      <point x="430" y="111"/>
      <point x="430" y="246" type="curve" smooth="yes"/>
      <point x="430" y="390"/>
      <point x="371" y="481"/>
      <point x="257" y="481" type="curve" smooth="yes"/>
      <point x="95" y="481"/>
      <point x="62" y="360"/>
      <point x="62" y="225" type="curve" smooth="yes"/>
      <point x="62" y="81"/>
      <point x="121" y="-10"/>
      <point x="235" y="-10" type="curve" smooth="yes"/>
    </contour>
    <contour>
      <point x="143" y="19"/>
      <point x="92" y="89"/>
      <point x="92" y="233" type="curve" smooth="yes"/>
      <point x="92" y="308"/>
      <point x="110" y="385"/>
      <point x="135" y="425" type="curve"/>
      <point x="166" y="444"/>
      <point x="206" y="452"/>
      <point x="250" y="452" type="curve" smooth="yes"/>
      <point x="349" y="452"/>
      <point x="400" y="382"/>
      <point x="400" y="238" type="curve" smooth="yes"/>
      <point x="400" y="163"/>
      <point x="382" y="86"/>
      <point x="357" y="46" type="curve"/>
      <point x="326" y="27"/>
      <point x="286" y="19"/>
      <point x="242" y="19" type="curve" smooth="yes"/>
    </contour>
    <contour>
      <point x="184" y="566"/>
      <point x="194" y="576"/>
      <point x="194" y="593" type="curve" smooth="yes"/>
      <point x="194" y="611"/>
      <point x="184" y="620"/>
      <point x="167" y="620" type="curve" smooth="yes"/>
      <point x="150" y="620"/>
      <point x="139" y="611"/>
      <point x="139" y="593" type="curve" smooth="yes"/>
      <point x="139" y="576"/>
      <point x="150" y="566"/>
      <point x="167" y="566" type="curve" smooth="yes"/>
    </contour>
    <contour>
      <point x="342" y="566"/>
      <point x="352" y="576"/>
      <point x="352" y="593" type="curve" smooth="yes"/>
      <point x="352" y="611"/>
      <point x="342" y="620"/>
      <point x="325" y="620" type="curve" smooth="yes"/>
      <point x="307" y="620"/>
      <point x="296" y="611"/>
      <point x="296" y="593" type="curve" smooth="yes"/>
      <point x="296" y="576"/>
      <point x="307" y="566"/>
      <point x="325" y="566" type="curve" smooth="yes"/>
    </contour>
  </outline>
</glyph>
<glyph name="yacute" format="1">
  <advance width="477"/>
  <unicode hex="00FD"/>
  <note>
	yacute
  </note>
  <outline>
    <contour>
      <point x="191" y="-177"/>
      <point x="222" y="-165"/>
      <point x="242" y="-117" type="curve" smooth="yes"/>
      <point x="306" y="41"/>
      <point x="376" y="253"/>
      <point x="426" y="464" type="curve"/>
      <point x="396" y="468" type="line"/>
      <point x="364" y="330"/>
      <point x="318" y="176"/>
      <point x="277" y="52" type="curve"/>
      <point x="213" y="52" type="line"/>
      <point x="167" y="170"/>
      <point x="120" y="310"/>
      <point x="76" y="468" type="curve"/>
      <point x="45" y="464" type="line"/>
      <point x="90" y="308"/>
      <point x="129" y="188"/>
      <point x="196" y="23" type="curve"/>
      <point x="266" y="23" type="line"/>
      <point x="246" y="-36"/>
      <point x="222" y="-101"/>
      <point x="202" y="-143" type="curve"/>
      <point x="187" y="-147"/>
      <point x="171" y="-149"/>
      <point x="149" y="-149" type="curve" smooth="yes"/>
      <point x="124" y="-149"/>
      <point x="113" y="-148"/>
      <point x="95" y="-145" type="curve"/>
      <point x="95" y="-94" type="line"/>
      <point x="72" y="-94" type="line"/>
      <point x="68" y="-110"/>
      <point x="65" y="-128"/>
      <point x="65" y="-146" type="curve" smooth="yes"/>
      <point x="65" y="-164" type="line"/>
      <point x="83" y="-172"/>
      <point x="110" y="-177"/>
      <point x="139" y="-177" type="curve" smooth="yes"/>
    </contour>
    <contour>
      <point x="356" y="709" type="line"/>
      <point x="311" y="714" type="line"/>
      <point x="227" y="575" type="line"/>
      <point x="246" y="571" type="line"/>
    </contour>
  </outline>
</glyph>
<glyph name="Aogonek" format="1">
  <advance width="576"/>
  <unicode hex="0104"/>
  <note>
	Aogonek
  </note>
  <outline>
    <contour>
      <point x="520" y="-161"/>
      <point x="535" y="-157"/>
      <point x="550" y="-150" type="curve"/>
      <point x="545" y="-127" type="line"/>
      <point x="530" y="-130"/>
      <point x="517" y="-132"/>
      <point x="504" y="-132" type="curve" smooth="yes"/>
      <point x="489" y="-132"/>
      <point x="479" y="-131"/>
      <point x="464" y="-128" type="curve"/>
      <point x="457" y="-116"/>
      <point x="454" y="-101"/>
      <point x="454" y="-87" type="curve" smooth="yes"/>
      <point x="454" y="-49"/>
      <point x="468" y="-23"/>
      <point x="513" y="4" type="curve"/>
      <point x="521" y="6" type="line"/>
      <point x="465" y="205"/>
      <point x="397" y="429"/>
      <point x="330" y="610" type="curve"/>
      <point x="238" y="610" type="line"/>
      <point x="171" y="429"/>
      <point x="103" y="205"/>
      <point x="47" y="6" type="curve"/>
      <point x="79" y="0" type="line"/>
      <point x="97" y="67"/>
      <point x="122" y="153"/>
      <point x="143" y="221" type="curve"/>
      <point x="425" y="221" type="line"/>
      <point x="443" y="156"/>
      <point x="467" y="74"/>
      <point x="487" y="8" type="curve"/>
      <point x="443" y="-12"/>
      <point x="424" y="-45"/>
      <point x="424" y="-86" type="curve" smooth="yes"/>
      <point x="424" y="-130"/>
      <point x="447" y="-161"/>
      <point x="497" y="-161" type="curve" smooth="yes"/>
    </contour>
    <contour>
      <point x="185" y="358"/>
      <point x="232" y="506"/>
      <point x="260" y="579" type="curve"/>
      <point x="308" y="579" type="line"/>
      <point x="336" y="506"/>
      <point x="383" y="358"/>
      <point x="415" y="251" type="curve"/>
      <point x="153" y="251" type="line"/>
    </contour>
  </outline>
</glyph>
<glyph name="cdotaccent" format="1">
  <advance width="444"/>
  <unicode hex="010B"/>
  <note>
	cdotaccent
  </note>
  <outline>
    <contour>
      <point x="324" y="-10"/>
      <point x="369" y="10"/>
      <point x="406" y="38" type="curve"/>
      <point x="388" y="61" type="line"/>
      <point x="353" y="36"/>
      <point x="312" y="20"/>
      <point x="257" y="20" type="curve" smooth="yes"/>
      <point x="149" y="20"/>
      <point x="92" y="89"/>
      <point x="92" y="210" type="curve" smooth="yes"/>
      <point x="92" y="307"/>
      <point x="109" y="364"/>
      <point x="140" y="421" type="curve"/>
      <point x="173" y="436"/>
      <point x="210" y="442"/>
      <point x="250" y="442" type="curve" smooth="yes"/>
      <point x="286" y="442"/>
      <point x="317" y="439"/>
      <point x="348" y="432" type="curve"/>
      <point x="353" y="352" type="line"/>
      <point x="369" y="352" type="line"/>
      <point x="375" y="369"/>
      <point x="378" y="392"/>
      <point x="378" y="418" type="curve" smooth="yes"/>
      <point x="378" y="437" type="line"/>
      <point x="345" y="457"/>
      <point x="306" y="472"/>
      <point x="253" y="472" type="curve" smooth="yes"/>
      <point x="111" y="472"/>
      <point x="62" y="357"/>
      <point x="62" y="207" type="curve" smooth="yes"/>
      <point x="62" y="72"/>
      <point x="124" y="-10"/>
      <point x="255" y="-10" type="curve" smooth="yes"/>
    </contour>
    <contour>
      <point x="280" y="566"/>
      <point x="293" y="578"/>
      <point x="293" y="600" type="curve" smooth="yes"/>
      <point x="293" y="624"/>
      <point x="280" y="636"/>
      <point x="257" y="636" type="curve" smooth="yes"/>
      <point x="234" y="636"/>
      <point x="220" y="624"/>
      <point x="220" y="600" type="curve" smooth="yes"/>
      <point x="220" y="578"/>
      <point x="234" y="566"/>
      <point x="257" y="566" type="curve" smooth="yes"/>
    </contour>
  </outline>
</glyph>
<glyph name="ccaron" format="1">
  <advance width="444"/>
  <unicode hex="010D"/>
  <note>
	ccaron
  </note>
  <outline>
    <contour>
      <point x="324" y="-10"/>
      <point x="369" y="10"/>
      <point x="406" y="38" type="curve"/>
      <point x="388" y="61" type="line"/>
      <point x="353" y="36"/>
      <point x="312" y="20"/>
      <point x="257" y="20" type="curve" smooth="yes"/>
      <point x="149" y="20"/>
      <point x="92" y="89"/>
      <point x="92" y="210" type="curve" smooth="yes"/>
      <point x="92" y="307"/>
      <point x="109" y="364"/>
      <point x="140" y="421" type="curve"/>
      <point x="173" y="436"/>
      <point x="210" y="442"/>
      <point x="250" y="442" type="curve" smooth="yes"/>
      <point x="286" y="442"/>
      <point x="317" y="439"/>
      <point x="348" y="432" type="curve"/>
      <point x="353" y="352" type="line"/>
      <point x="369" y="352" type="line"/>
      <point x="375" y="369"/>
      <point x="378" y="392"/>
      <point x="378" y="418" type="curve" smooth="yes"/>
      <point x="378" y="437" type="line"/>
      <point x="345" y="457"/>
      <point x="306" y="472"/>
      <point x="253" y="472" type="curve" smooth="yes"/>
      <point x="111" y="472"/>
      <point x="62" y="357"/>
      <point x="62" y="207" type="curve" smooth="yes"/>
      <point x="62" y="72"/>
      <point x="124" y="-10"/>
      <point x="255" y="-10" type="curve" smooth="yes"/>
    </contour>
    <contour>
      <point x="270" y="571" type="line"/>
      <point x="373" y="702" type="line"/>
      <point x="351" y="707" type="line"/>
      <point x="254" y="600" type="line"/>
      <point x="248" y="600" type="line"/>
      <point x="151" y="707" type="line"/>
      <point x="129" y="702" type="line"/>
      <point x="232" y="571" type="line"/>
    </contour>
  </outline>
</glyph>
<glyph name="dcaron" format="1">
  <advance width="519"/>
  <unicode hex="010F"/>
  <note>
	dcaron
  </note>
  <outline>
    <contour>
      <point x="302" y="-10"/>
      <point x="355" y="27"/>
      <point x="384" y="69" type="curve"/>
      <point x="391" y="69" type="line"/>
      <point x="394" y="0" type="line"/>
      <point x="416" y="0" type="line"/>
      <point x="416" y="665" type="line"/>
      <point x="386" y="665" type="line"/>
      <point x="386" y="500" type="line"/>
      <point x="391" y="409" type="line"/>
      <point x="384" y="409" type="line"/>
      <point x="341" y="447"/>
      <point x="302" y="472"/>
      <point x="238" y="472" type="curve" smooth="yes"/>
      <point x="111" y="472"/>
      <point x="62" y="355"/>
      <point x="62" y="234" type="curve" smooth="yes"/>
      <point x="62" y="82"/>
      <point x="114" y="-10"/>
      <point x="236" y="-10" type="curve" smooth="yes"/>
    </contour>
    <contour>
      <point x="127" y="19"/>
      <point x="92" y="103"/>
      <point x="92" y="231" type="curve" smooth="yes"/>
      <point x="92" y="366"/>
      <point x="140" y="443"/>
      <point x="245" y="443" type="curve" smooth="yes"/>
      <point x="301" y="443"/>
      <point x="335" y="423"/>
      <point x="386" y="377" type="curve"/>
      <point x="386" y="108" type="line"/>
      <point x="360" y="62"/>
      <point x="312" y="19"/>
      <point x="240" y="19" type="curve" smooth="yes"/>
    </contour>
    <contour>
      <point x="548" y="519"/>
      <point x="563" y="560"/>
      <point x="563" y="607" type="curve" smooth="yes"/>
      <point x="563" y="645"/>
      <point x="545" y="665"/>
      <point x="510" y="665" type="curve" smooth="yes"/>
      <point x="497" y="665"/>
      <point x="486" y="663"/>
      <point x="477" y="660" type="curve"/>
      <point x="477" y="636" type="line"/>
      <point x="533" y="636" type="line"/>
      <point x="533" y="568"/>
      <point x="520" y="528"/>
      <point x="496" y="486" type="curve"/>
      <point x="518" y="481" type="line"/>
    </contour>
  </outline>
</glyph>
<glyph name="Dcroat" format="1">
  <advance width="592"/>
  <unicode hex="0110"/>
  <note>
	Dcroat
  </note>
  <outline>
    <contour>
      <point x="306" y="0" type="line" smooth="yes"/>
      <point x="489" y="0"/>
      <point x="538" y="159"/>
      <point x="538" y="318" type="curve" smooth="yes"/>
      <point x="538" y="519"/>
      <point x="460" y="620"/>
      <point x="281" y="620" type="curve" smooth="yes"/>
      <point x="222" y="620"/>
      <point x="176" y="614"/>
      <point x="126" y="604" type="curve"/>
      <point x="126" y="323" type="line"/>
      <point x="45" y="323" type="line"/>
      <point x="45" y="293" type="line"/>
      <point x="126" y="293" type="line"/>
      <point x="126" y="0" type="line"/>
    </contour>
    <contour>
      <point x="158" y="293" type="line"/>
      <point x="257" y="293" type="line"/>
      <point x="257" y="323" type="line"/>
      <point x="158" y="323" type="line"/>
      <point x="158" y="579" type="line"/>
      <point x="204" y="586"/>
      <point x="237" y="589"/>
      <point x="277" y="589" type="curve" smooth="yes"/>
      <point x="436" y="589"/>
      <point x="506" y="505"/>
      <point x="506" y="315" type="curve" smooth="yes"/>
      <point x="506" y="193"/>
      <point x="477" y="103"/>
      <point x="420" y="48" type="curve"/>
      <point x="382" y="35"/>
      <point x="352" y="31"/>
      <point x="302" y="31" type="curve" smooth="yes"/>
      <point x="158" y="31" type="line"/>
    </contour>
  </outline>
</glyph>
<glyph name="Emacron" format="1">
  <advance width="513"/>
  <unicode hex="0112"/>
  <note>
	Emacron
  </note>
  <outline>
    <contour>
      <point x="350" y="-10"/>
      <point x="394" y="-5"/>
      <point x="442" y="5" type="curve"/>
      <point x="434" y="34" type="line"/>
      <point x="388" y="25"/>
      <point x="344" y="20"/>
      <point x="287" y="20" type="curve" smooth="yes"/>
      <point x="221" y="20"/>
      <point x="178" y="24"/>
      <point x="122" y="36" type="curve"/>
      <point x="122" y="293" type="line"/>
      <point x="401" y="293" type="line"/>
      <point x="401" y="324" type="line"/>
      <point x="122" y="324" type="line"/>
      <point x="122" y="579" type="line"/>
      <point x="430" y="579" type="line"/>
      <point x="430" y="610" type="line"/>
      <point x="90" y="610" type="line"/>
      <point x="90" y="48" type="line" smooth="yes"/>
      <point x="90" y="4"/>
      <point x="179" y="-10"/>
      <point x="284" y="-10" type="curve" smooth="yes"/>
    </contour>
    <contour>
      <point x="388" y="721" type="line"/>
      <point x="388" y="750" type="line"/>
      <point x="132" y="750" type="line"/>
      <point x="132" y="721" type="line"/>
    </contour>
  </outline>
</glyph>
<glyph name="Ebreve" format="1">
  <advance width="513"/>
  <unicode hex="0114"/>
  <note>
	Ebreve
  </note>
  <outline>
    <contour>
      <point x="350" y="-10"/>
      <point x="394" y="-5"/>
      <point x="442" y="5" type="curve"/>
      <point x="434" y="34" type="line"/>
      <point x="388" y="25"/>
      <point x="344" y="20"/>
      <point x="287" y="20" type="curve" smooth="yes"/>
      <point x="221" y="20"/>
      <point x="178" y="24"/>
      <point x="122" y="36" type="curve"/>
      <point x="122" y="293" type="line"/>
      <point x="401" y="293" type="line"/>
      <point x="401" y="324" type="line"/>
      <point x="122" y="324" type="line"/>
      <point x="122" y="579" type="line"/>
      <point x="430" y="579" type="line"/>
      <point x="430" y="610" type="line"/>
      <point x="90" y="610" type="line"/>
      <point x="90" y="48" type="line" smooth="yes"/>
      <point x="90" y="4"/>
      <point x="179" y="-10"/>
      <point x="284" y="-10" type="curve" smooth="yes"/>
    </contour>
    <contour>
      <point x="340" y="716"/>
      <point x="371" y="760"/>
      <point x="383" y="812" type="curve"/>
      <point x="350" y="818" type="line"/>
      <point x="341" y="776"/>
      <point x="323" y="745"/>
      <point x="266" y="745" type="curve" smooth="yes"/>
      <point x="209" y="745"/>
      <point x="191" y="776"/>
      <point x="182" y="818" type="curve"/>
      <point x="149" y="812" type="line"/>
      <point x="161" y="760"/>
      <point x="192" y="716"/>
      <point x="266" y="716" type="curve" smooth="yes"/>
    </contour>
  </outline>
</glyph>
<glyph name="ebreve" format="1">
  <advance width="457"/>
  <unicode hex="0115"/>
  <note>
	ebreve
  </note>
  <outline>
    <contour>
      <point x="321" y="-10"/>
      <point x="359" y="5"/>
      <point x="396" y="25" type="curve"/>
      <point x="385" y="50" type="line"/>
      <point x="346" y="29"/>
      <point x="311" y="19"/>
      <point x="252" y="19" type="curve" smooth="yes"/>
      <point x="141" y="19"/>
      <point x="96" y="88"/>
      <point x="92" y="219" type="curve"/>
      <point x="368" y="219" type="line"/>
      <point x="406" y="260" type="line"/>
      <point x="422" y="398"/>
      <point x="350" y="472"/>
      <point x="248" y="472" type="curve" smooth="yes"/>
      <point x="118" y="472"/>
      <point x="62" y="377"/>
      <point x="62" y="231" type="curve" smooth="yes"/>
      <point x="62" y="76"/>
      <point x="122" y="-10"/>
      <point x="252" y="-10" type="curve" smooth="yes"/>
    </contour>
    <contour>
      <point x="100" y="365"/>
      <point x="133" y="443"/>
      <point x="245" y="443" type="curve" smooth="yes"/>
      <point x="335" y="443"/>
      <point x="381" y="383"/>
      <point x="381" y="295" type="curve" smooth="yes"/>
      <point x="381" y="277"/>
      <point x="380" y="262"/>
      <point x="376" y="249" type="curve"/>
      <point x="92" y="244" type="line"/>
    </contour>
    <contour>
      <point x="318" y="566"/>
      <point x="349" y="610"/>
      <point x="361" y="662" type="curve"/>
      <point x="328" y="668" type="line"/>
      <point x="319" y="626"/>
      <point x="301" y="595"/>
      <point x="244" y="595" type="curve" smooth="yes"/>
      <point x="187" y="595"/>
      <point x="169" y="626"/>
      <point x="160" y="668" type="curve"/>
      <point x="127" y="662" type="line"/>
      <point x="139" y="610"/>
      <point x="170" y="566"/>
      <point x="244" y="566" type="curve" smooth="yes"/>
    </contour>
  </outline>
</glyph>
<glyph name="Edotaccent" format="1">
  <advance width="513"/>
  <unicode hex="0116"/>
  <note>
	Edotaccent
  </note>
  <outline>
    <contour>
      <point x="350" y="-10"/>
      <point x="394" y="-5"/>
      <point x="442" y="5" type="curve"/>
      <point x="434" y="34" type="line"/>
      <point x="388" y="25"/>
      <point x="344" y="20"/>
      <point x="287" y="20" type="curve" smooth="yes"/>
      <point x="221" y="20"/>
      <point x="178" y="24"/>
      <point x="122" y="36" type="curve"/>
      <point x="122" y="293" type="line"/>
      <point x="401" y="293" type="line"/>
      <point x="401" y="324" type="line"/>
      <point x="122" y="324" type="line"/>
      <point x="122" y="579" type="line"/>
      <point x="430" y="579" type="line"/>
      <point x="430" y="610" type="line"/>
      <point x="90" y="610" type="line"/>
      <point x="90" y="48" type="line" smooth="yes"/>
      <point x="90" y="4"/>
      <point x="179" y="-10"/>
      <point x="284" y="-10" type="curve" smooth="yes"/>
    </contour>
    <contour>
      <point x="290" y="716"/>
      <point x="303" y="728"/>
      <point x="303" y="750" type="curve" smooth="yes"/>
      <point x="303" y="774"/>
      <point x="290" y="786"/>
      <point x="267" y="786" type="curve" smooth="yes"/>
      <point x="244" y="786"/>
      <point x="230" y="774"/>
      <point x="230" y="750" type="curve" smooth="yes"/>
      <point x="230" y="728"/>
      <point x="244" y="716"/>
      <point x="267" y="716" type="curve" smooth="yes"/>
    </contour>
  </outline>
</glyph>
<glyph name="Eogonek" format="1">
  <advance width="513"/>
  <unicode hex="0118"/>
  <note>
	Eogonek
  </note>
  <outline>
    <contour>
      <point x="412" y="-167"/>
      <point x="427" y="-163"/>
      <point x="442" y="-156" type="curve"/>
      <point x="437" y="-133" type="line"/>
      <point x="422" y="-136"/>
      <point x="409" y="-138"/>
      <point x="396" y="-138" type="curve" smooth="yes"/>
      <point x="381" y="-138"/>
      <point x="371" y="-137"/>
      <point x="356" y="-134" type="curve"/>
      <point x="349" y="-122"/>
      <point x="346" y="-107"/>
      <point x="346" y="-93" type="curve" smooth="yes"/>
      <point x="346" y="-57"/>
      <point x="358" y="-30"/>
      <point x="404" y="-2" type="curve"/>
      <point x="417" y="0"/>
      <point x="429" y="2"/>
      <point x="442" y="5" type="curve"/>
      <point x="434" y="34" type="line"/>
      <point x="388" y="25"/>
      <point x="344" y="20"/>
      <point x="287" y="20" type="curve" smooth="yes"/>
      <point x="221" y="20"/>
      <point x="178" y="24"/>
      <point x="122" y="36" type="curve"/>
      <point x="122" y="293" type="line"/>
      <point x="401" y="293" type="line"/>
      <point x="401" y="324" type="line"/>
      <point x="122" y="324" type="line"/>
      <point x="122" y="579" type="line"/>
      <point x="430" y="579" type="line"/>
      <point x="430" y="610" type="line"/>
      <point x="90" y="610" type="line"/>
      <point x="90" y="48" type="line" smooth="yes"/>
      <point x="90" y="4"/>
      <point x="179" y="-10"/>
      <point x="284" y="-10" type="curve" smooth="yes"/>
      <point x="313" y="-10"/>
      <point x="338" y="-9"/>
      <point x="361" y="-7" type="curve"/>
      <point x="329" y="-28"/>
      <point x="316" y="-57"/>
      <point x="316" y="-92" type="curve" smooth="yes"/>
      <point x="316" y="-136"/>
      <point x="339" y="-167"/>
      <point x="389" y="-167" type="curve" smooth="yes"/>
    </contour>
  </outline>
</glyph>
<glyph name="Gbreve" format="1">
  <advance width="573"/>
  <unicode hex="011E"/>
  <note>
	Gbreve
  </note>
  <outline>
    <contour>
      <point x="427" y="-10"/>
      <point x="497" y="29"/>
      <point x="497" y="88" type="curve" smooth="yes"/>
      <point x="497" y="285" type="line"/>
      <point x="465" y="309" type="line"/>
      <point x="326" y="309" type="line"/>
      <point x="326" y="278" type="line"/>
      <point x="465" y="278" type="line"/>
      <point x="465" y="52" type="line"/>
      <point x="423" y="32"/>
      <point x="386" y="21"/>
      <point x="315" y="21" type="curve" smooth="yes"/>
      <point x="174" y="21"/>
      <point x="94" y="109"/>
      <point x="94" y="295" type="curve" smooth="yes"/>
      <point x="94" y="409"/>
      <point x="122" y="494"/>
      <point x="181" y="567" type="curve"/>
      <point x="227" y="583"/>
      <point x="276" y="589"/>
      <point x="320" y="589" type="curve" smooth="yes"/>
      <point x="369" y="589"/>
      <point x="415" y="584"/>
      <point x="450" y="576" type="curve"/>
      <point x="461" y="490" type="line"/>
      <point x="477" y="490" type="line"/>
      <point x="481" y="504"/>
      <point x="484" y="534"/>
      <point x="484" y="554" type="curve" smooth="yes"/>
      <point x="484" y="585" type="line"/>
      <point x="448" y="604"/>
      <point x="392" y="620"/>
      <point x="323" y="620" type="curve" smooth="yes"/>
      <point x="135" y="620"/>
      <point x="62" y="473"/>
      <point x="62" y="295" type="curve" smooth="yes"/>
      <point x="62" y="98"/>
      <point x="151" y="-10"/>
      <point x="313" y="-10" type="curve" smooth="yes"/>
    </contour>
    <contour>
      <point x="385" y="716"/>
      <point x="416" y="760"/>
      <point x="428" y="812" type="curve"/>
      <point x="395" y="818" type="line"/>
      <point x="386" y="776"/>
      <point x="368" y="745"/>
      <point x="311" y="745" type="curve" smooth="yes"/>
      <point x="254" y="745"/>
      <point x="236" y="776"/>
      <point x="227" y="818" type="curve"/>
      <point x="194" y="812" type="line"/>
      <point x="206" y="760"/>
      <point x="237" y="716"/>
      <point x="311" y="716" type="curve" smooth="yes"/>
    </contour>
  </outline>
</glyph>
<glyph name="hbar" format="1">
  <advance width="505"/>
  <unicode hex="0127"/>
  <note>
	hbar
  </note>
  <outline>
    <contour>
      <point x="120" y="0" type="line"/>
      <point x="120" y="367" type="line"/>
      <point x="164" y="409"/>
      <point x="238" y="443"/>
      <point x="304" y="443" type="curve" smooth="yes"/>
      <point x="342" y="443"/>
      <point x="363" y="439"/>
      <point x="390" y="429" type="curve"/>
      <point x="390" y="0" type="line"/>
      <point x="420" y="0" type="line"/>
      <point x="420" y="398" type="line" smooth="yes"/>
      <point x="420" y="449"/>
      <point x="381" y="472"/>
      <point x="310" y="472" type="curve" smooth="yes"/>
      <point x="243" y="472"/>
      <point x="180" y="446"/>
      <point x="122" y="397" type="curve"/>
      <point x="116" y="397" type="line"/>
      <point x="120" y="492" type="line"/>
      <point x="120" y="555" type="line"/>
      <point x="254" y="555" type="line"/>
      <point x="254" y="583" type="line"/>
      <point x="120" y="583" type="line"/>
      <point x="120" y="665" type="line"/>
      <point x="90" y="665" type="line"/>
      <point x="90" y="583" type="line"/>
      <point x="25" y="583" type="line"/>
      <point x="25" y="555" type="line"/>
      <point x="90" y="555" type="line"/>
      <point x="90" y="0" type="line"/>
    </contour>
  </outline>
</glyph>
<glyph name="itilde" format="1">
  <advance width="212"/>
  <unicode hex="0129"/>
  <note>
	itilde
  </note>
  <outline>
    <contour>
      <point x="206" y="532"/>
      <point x="231" y="565"/>
      <point x="234" y="612" type="curve"/>
      <point x="213" y="618" type="line"/>
      <point x="208" y="583"/>
      <point x="194" y="561"/>
      <point x="164" y="561" type="curve" smooth="yes"/>
      <point x="122" y="561"/>
      <point x="95" y="619"/>
      <point x="47" y="619" type="curve" smooth="yes"/>
      <point x="6" y="619"/>
      <point x="-19" y="586"/>
      <point x="-22" y="539" type="curve"/>
      <point x="-1" y="533" type="line"/>
      <point x="4" y="568"/>
      <point x="18" y="590"/>
      <point x="48" y="590" type="curve" smooth="yes"/>
      <point x="85" y="590"/>
      <point x="115" y="532"/>
      <point x="165" y="532" type="curve" smooth="yes"/>
    </contour>
    <contour>
      <point x="121" y="0" type="line"/>
      <point x="121" y="464" type="line"/>
      <point x="91" y="464" type="line"/>
      <point x="91" y="0" type="line"/>
    </contour>
  </outline>
</glyph>
<glyph name="imacron" format="1">
  <advance width="212"/>
  <unicode hex="012B"/>
  <note>
	imacron
  </note>
  <outline>
    <contour>
      <point x="121" y="0" type="line"/>
      <point x="121" y="464" type="line"/>
      <point x="91" y="464" type="line"/>
      <point x="91" y="0" type="line"/>
    </contour>
    <contour>
      <point x="233" y="571" type="line"/>
      <point x="233" y="600" type="line"/>
      <point x="-23" y="600" type="line"/>
      <point x="-23" y="571" type="line"/>
    </contour>
  </outline>
</glyph>
<glyph name="Iogonek" format="1">
  <advance width="218"/>
  <unicode hex="012E"/>
  <note>
	Iogonek
  </note>
  <outline>
    <contour>
      <point x="132" y="-165"/>
      <point x="147" y="-161"/>
      <point x="162" y="-154" type="curve"/>
      <point x="157" y="-131" type="line"/>
      <point x="142" y="-134"/>
      <point x="129" y="-136"/>
      <point x="116" y="-136" type="curve" smooth="yes"/>
      <point x="101" y="-136"/>
      <point x="91" y="-135"/>
      <point x="76" y="-132" type="curve"/>
      <point x="69" y="-120"/>
      <point x="66" y="-105"/>
      <point x="66" y="-91" type="curve" smooth="yes"/>
      <point x="66" y="-50"/>
      <point x="81" y="-24"/>
      <point x="125" y="-7" type="curve"/>
      <point x="108" y="0" type="line"/>
      <point x="61" y="-20"/>
      <point x="36" y="-48"/>
      <point x="36" y="-90" type="curve" smooth="yes"/>
      <point x="36" y="-134"/>
      <point x="59" y="-165"/>
      <point x="109" y="-165" type="curve" smooth="yes"/>
    </contour>
    <contour>
      <point x="125" y="-7" type="line"/>
      <point x="125" y="610" type="line"/>
      <point x="93" y="610" type="line"/>
      <point x="93" y="-7" type="line"/>
    </contour>
  </outline>
</glyph>
<glyph name="iogonek" format="1">
  <advance width="207"/>
  <unicode hex="012F"/>
  <note>
	iogonek
  </note>
  <outline>
    <contour>
      <point x="126" y="-165"/>
      <point x="141" y="-161"/>
      <point x="156" y="-154" type="curve"/>
      <point x="151" y="-131" type="line"/>
      <point x="136" y="-134"/>
      <point x="123" y="-136"/>
      <point x="110" y="-136" type="curve" smooth="yes"/>
      <point x="95" y="-136"/>
      <point x="85" y="-135"/>
      <point x="70" y="-132" type="curve"/>
      <point x="63" y="-120"/>
      <point x="60" y="-105"/>
      <point x="60" y="-91" type="curve" smooth="yes"/>
      <point x="60" y="-50"/>
      <point x="76" y="-24"/>
      <point x="118" y="-7" type="curve"/>
      <point x="102" y="0" type="line"/>
      <point x="56" y="-21"/>
      <point x="30" y="-49"/>
      <point x="30" y="-90" type="curve" smooth="yes"/>
      <point x="30" y="-134"/>
      <point x="53" y="-165"/>
      <point x="103" y="-165" type="curve" smooth="yes"/>
    </contour>
    <contour>
      <point x="118" y="-7" type="line"/>
      <point x="118" y="464" type="line"/>
      <point x="88" y="464" type="line"/>
      <point x="88" y="-7" type="line"/>
    </contour>
    <contour>
      <point x="119" y="554" type="line"/>
      <point x="119" y="638" type="line"/>
      <point x="89" y="638" type="line"/>
      <point x="89" y="554" type="line"/>
    </contour>
  </outline>
</glyph>
<glyph name="Idotaccent" format="1">
  <advance width="218"/>
  <unicode hex="0130"/>
  <note>
	Idotaccent
  </note>
  <outline>
    <contour>
      <point x="125" y="0" type="line"/>
      <point x="125" y="610" type="line"/>
      <point x="93" y="610" type="line"/>
      <point x="93" y="0" type="line"/>
    </contour>
    <contour>
      <point x="132" y="716"/>
      <point x="145" y="728"/>
      <point x="145" y="750" type="curve" smooth="yes"/>
      <point x="145" y="774"/>
      <point x="132" y="786"/>
      <point x="109" y="786" type="curve" smooth="yes"/>
      <point x="86" y="786"/>
      <point x="72" y="774"/>
      <point x="72" y="750" type="curve" smooth="yes"/>
      <point x="72" y="728"/>
      <point x="86" y="716"/>
      <point x="109" y="716" type="curve" smooth="yes"/>
    </contour>
  </outline>
</glyph>
<glyph name="dotlessi" format="1">
  <advance width="212"/>
  <unicode hex="0131"/>
  <note>
	dotlessi
  </note>
  <outline>
    <contour>
      <point x="121" y="0" type="line"/>
      <point x="121" y="464" type="line"/>
      <point x="91" y="464" type="line"/>
      <point x="91" y="0" type="line"/>
    </contour>
  </outline>
</glyph>
<glyph name="ij" format="1">
  <advance width="410"/>
  <unicode hex="0133"/>
  <note>
	ij
  </note>
  <outline>
    <contour>
      <point x="290" y="-182"/>
      <point x="324" y="-139"/>
      <point x="324" y="-65" type="curve" smooth="yes"/>
      <point x="324" y="464" type="line"/>
      <point x="294" y="464" type="line"/>
      <point x="294" y="-61" type="line" smooth="yes"/>
      <point x="294" y="-94"/>
      <point x="293" y="-118"/>
      <point x="284" y="-143" type="curve"/>
      <point x="265" y="-150"/>
      <point x="246" y="-153"/>
      <point x="218" y="-153" type="curve" smooth="yes"/>
      <point x="193" y="-153"/>
      <point x="174" y="-151"/>
      <point x="150" y="-145" type="curve"/>
      <point x="143" y="-172" type="line"/>
      <point x="166" y="-179"/>
      <point x="191" y="-182"/>
      <point x="217" y="-182" type="curve" smooth="yes"/>
    </contour>
    <contour>
      <point x="118" y="0" type="line"/>
      <point x="118" y="464" type="line"/>
      <point x="88" y="464" type="line"/>
      <point x="88" y="0" type="line"/>
    </contour>
    <contour>
      <point x="119" y="554" type="line"/>
      <point x="119" y="638" type="line"/>
      <point x="89" y="638" type="line"/>
      <point x="89" y="554" type="line"/>
    </contour>
    <contour>
      <point x="325" y="554" type="line"/>
      <point x="325" y="638" type="line"/>
      <point x="295" y="638" type="line"/>
      <point x="295" y="554" type="line"/>
    </contour>
  </outline>
</glyph>
<glyph name="jcircumflex" format="1">
  <advance width="252"/>
  <unicode hex="0135"/>
  <note>
	jcircumflex
  </note>
  <outline>
    <contour>
      <point x="128" y="-182"/>
      <point x="162" y="-139"/>
      <point x="162" y="-65" type="curve" smooth="yes"/>
      <point x="162" y="464" type="line"/>
      <point x="132" y="464" type="line"/>
      <point x="132" y="-61" type="line" smooth="yes"/>
      <point x="132" y="-94"/>
      <point x="131" y="-118"/>
      <point x="122" y="-143" type="curve"/>
      <point x="103" y="-150"/>
      <point x="84" y="-153"/>
      <point x="56" y="-153" type="curve" smooth="yes"/>
      <point x="31" y="-153"/>
      <point x="12" y="-151"/>
      <point x="-12" y="-145" type="curve"/>
      <point x="-19" y="-172" type="line"/>
      <point x="4" y="-179"/>
      <point x="29" y="-182"/>
      <point x="55" y="-182" type="curve" smooth="yes"/>
    </contour>
    <contour>
      <point x="145" y="673" type="line"/>
      <point x="151" y="673" type="line"/>
      <point x="248" y="566" type="line"/>
      <point x="270" y="571" type="line"/>
      <point x="167" y="702" type="line"/>
      <point x="129" y="702" type="line"/>
      <point x="26" y="571" type="line"/>
      <point x="48" y="566" type="line"/>
    </contour>
  </outline>
</glyph>
<glyph name="Kcommaaccent" format="1">
  <advance width="573"/>
  <unicode hex="0136"/>
  <note>
	Kcommaaccent
  </note>
  <outline>
    <contour>
      <point x="519" y="-5"/>
      <point x="529" y="-3"/>
      <point x="541" y="1" type="curve"/>
      <point x="541" y="20" type="line"/>
      <point x="493" y="27" type="line"/>
      <point x="400" y="232" type="line" smooth="yes"/>
      <point x="379" y="277"/>
      <point x="361" y="297"/>
      <point x="315" y="317" type="curve"/>
      <point x="315" y="323" type="line"/>
      <point x="364" y="352"/>
      <point x="372" y="373"/>
      <point x="396" y="415" type="curve" smooth="yes"/>
      <point x="431" y="477"/>
      <point x="458" y="532"/>
      <point x="487" y="598" type="curve"/>
      <point x="458" y="610" type="line"/>
      <point x="430" y="545"/>
      <point x="402" y="486"/>
      <point x="369" y="425" type="curve" smooth="yes"/>
      <point x="344" y="378"/>
      <point x="319" y="333"/>
      <point x="243" y="333" type="curve" smooth="yes"/>
      <point x="122" y="333" type="line"/>
      <point x="122" y="610" type="line"/>
      <point x="91" y="610" type="line"/>
      <point x="91" y="0" type="line"/>
      <point x="122" y="0" type="line"/>
      <point x="122" y="303" type="line"/>
      <point x="248" y="303" type="line" smooth="yes"/>
      <point x="320" y="303"/>
      <point x="349" y="268"/>
      <point x="375" y="211" type="curve" smooth="yes"/>
      <point x="458" y="27" type="line" smooth="yes"/>
      <point x="468" y="6"/>
      <point x="481" y="-5"/>
      <point x="507" y="-5" type="curve" smooth="yes"/>
    </contour>
    <contour>
      <point x="299" y="-186"/>
      <point x="314" y="-145"/>
      <point x="314" y="-98" type="curve" smooth="yes"/>
      <point x="314" y="-60"/>
      <point x="296" y="-40"/>
      <point x="261" y="-40" type="curve" smooth="yes"/>
      <point x="248" y="-40"/>
      <point x="237" y="-42"/>
      <point x="228" y="-45" type="curve"/>
      <point x="228" y="-69" type="line"/>
      <point x="284" y="-69" type="line"/>
      <point x="284" y="-137"/>
      <point x="271" y="-177"/>
      <point x="247" y="-219" type="curve"/>
      <point x="269" y="-224" type="line"/>
    </contour>
  </outline>
</glyph>
<glyph name="Lacute" format="1">
  <advance width="454"/>
  <unicode hex="0139"/>
  <note>
	Lacute
  </note>
  <outline>
    <contour>
      <point x="417" y="0" type="line"/>
      <point x="417" y="31" type="line"/>
      <point x="123" y="31" type="line"/>
      <point x="123" y="610" type="line"/>
      <point x="91" y="610" type="line"/>
      <point x="91" y="0" type="line"/>
    </contour>
    <contour>
      <point x="221" y="854" type="line"/>
      <point x="176" y="859" type="line"/>
      <point x="92" y="720" type="line"/>
      <point x="111" y="716" type="line"/>
    </contour>
  </outline>
</glyph>
<glyph name="Lcommaaccent" format="1">
  <advance width="454"/>
  <unicode hex="013B"/>
  <note>
	Lcommaaccent
  </note>
  <outline>
    <contour>
      <point x="417" y="0" type="line"/>
      <point x="417" y="31" type="line"/>
      <point x="123" y="31" type="line"/>
      <point x="123" y="610" type="line"/>
      <point x="91" y="610" type="line"/>
      <point x="91" y="0" type="line"/>
    </contour>
    <contour>
      <point x="279" y="-186"/>
      <point x="294" y="-145"/>
      <point x="294" y="-98" type="curve" smooth="yes"/>
      <point x="294" y="-60"/>
      <point x="276" y="-40"/>
      <point x="241" y="-40" type="curve" smooth="yes"/>
      <point x="228" y="-40"/>
      <point x="217" y="-42"/>
      <point x="208" y="-45" type="curve"/>
      <point x="208" y="-69" type="line"/>
      <point x="264" y="-69" type="line"/>
      <point x="264" y="-137"/>
      <point x="251" y="-177"/>
      <point x="227" y="-219" type="curve"/>
      <point x="249" y="-224" type="line"/>
    </contour>
  </outline>
</glyph>
<glyph name="Lcaron" format="1">
  <advance width="454"/>
  <unicode hex="013D"/>
  <note>
	Lcaron
  </note>
  <outline>
    <contour>
      <point x="417" y="0" type="line"/>
      <point x="417" y="31" type="line"/>
      <point x="123" y="31" type="line"/>
      <point x="123" y="610" type="line"/>
      <point x="91" y="610" type="line"/>
      <point x="91" y="0" type="line"/>
    </contour>
    <contour>
      <point x="296" y="464"/>
      <point x="311" y="505"/>
      <point x="311" y="552" type="curve" smooth="yes"/>
      <point x="311" y="590"/>
      <point x="293" y="610"/>
      <point x="258" y="610" type="curve" smooth="yes"/>
      <point x="245" y="610"/>
      <point x="234" y="608"/>
      <point x="225" y="605" type="curve"/>
      <point x="225" y="581" type="line"/>
      <point x="281" y="581" type="line"/>
      <point x="281" y="513"/>
      <point x="268" y="473"/>
      <point x="244" y="431" type="curve"/>
      <point x="266" y="426" type="line"/>
    </contour>
  </outline>
</glyph>
<glyph name="lcaron" format="1">
  <advance width="280"/>
  <unicode hex="013E"/>
  <note>
	lcaron
  </note>
  <outline>
    <contour>
      <point x="172" y="1"/>
      <point x="199" y="14"/>
      <point x="225" y="35" type="curve"/>
      <point x="211" y="52" type="line"/>
      <point x="141" y="21" type="line"/>
      <point x="125" y="21" type="line"/>
      <point x="116" y="37"/>
      <point x="113" y="45"/>
      <point x="113" y="74" type="curve" smooth="yes"/>
      <point x="113" y="665" type="line"/>
      <point x="83" y="665" type="line"/>
      <point x="83" y="63" type="line" smooth="yes"/>
      <point x="83" y="36"/>
      <point x="108" y="10"/>
      <point x="136" y="-6" type="curve"/>
    </contour>
    <contour>
      <point x="245" y="519"/>
      <point x="260" y="560"/>
      <point x="260" y="607" type="curve" smooth="yes"/>
      <point x="260" y="645"/>
      <point x="242" y="665"/>
      <point x="207" y="665" type="curve" smooth="yes"/>
      <point x="194" y="665"/>
      <point x="183" y="663"/>
      <point x="174" y="660" type="curve"/>
      <point x="174" y="636" type="line"/>
      <point x="230" y="636" type="line"/>
      <point x="230" y="568"/>
      <point x="217" y="528"/>
      <point x="193" y="486" type="curve"/>
      <point x="215" y="481" type="line"/>
    </contour>
  </outline>
</glyph>
<glyph name="Ldot" format="1">
  <advance width="454"/>
  <unicode hex="013F"/>
  <note>
	Ldot
  </note>
  <outline>
    <contour>
      <point x="417" y="0" type="line"/>
      <point x="417" y="31" type="line"/>
      <point x="123" y="31" type="line"/>
      <point x="123" y="610" type="line"/>
      <point x="91" y="610" type="line"/>
      <point x="91" y="0" type="line"/>
    </contour>
    <contour>
      <point x="287" y="265"/>
      <point x="300" y="277"/>
      <point x="300" y="299" type="curve" smooth="yes"/>
      <point x="300" y="323"/>
      <point x="287" y="335"/>
      <point x="264" y="335" type="curve" smooth="yes"/>
      <point x="241" y="335"/>
      <point x="227" y="323"/>
      <point x="227" y="299" type="curve" smooth="yes"/>
      <point x="227" y="277"/>
      <point x="241" y="265"/>
      <point x="264" y="265" type="curve" smooth="yes"/>
    </contour>
  </outline>
</glyph>
<glyph name="lslash" format="1">
  <advance width="283"/>
  <unicode hex="0142"/>
  <note>
	lslash
  </note>
  <outline>
    <contour>
      <point x="194" y="1"/>
      <point x="221" y="14"/>
      <point x="247" y="35" type="curve"/>
      <point x="233" y="52" type="line"/>
      <point x="163" y="21" type="line"/>
      <point x="147" y="21" type="line"/>
      <point x="138" y="37"/>
      <point x="135" y="45"/>
      <point x="135" y="74" type="curve" smooth="yes"/>
      <point x="135" y="322" type="line"/>
      <point x="253" y="361" type="line"/>
      <point x="244" y="389" type="line"/>
      <point x="135" y="353" type="line"/>
      <point x="135" y="665" type="line"/>
      <point x="105" y="665" type="line"/>
      <point x="105" y="343" type="line"/>
      <point x="-10" y="305" type="line"/>
      <point x="-1" y="277" type="line"/>
      <point x="105" y="312" type="line"/>
      <point x="105" y="63" type="line" smooth="yes"/>
      <point x="105" y="36"/>
      <point x="130" y="10"/>
      <point x="158" y="-6" type="curve"/>
    </contour>
  </outline>
</glyph>
<glyph name="ncaron" format="1">
  <advance width="503"/>
  <unicode hex="0148"/>
  <note>
	ncaron
  </note>
  <outline>
    <contour>
      <point x="118" y="0" type="line"/>
      <point x="118" y="367" type="line"/>
      <point x="162" y="409"/>
      <point x="236" y="443"/>
      <point x="302" y="443" type="curve" smooth="yes"/>
      <point x="340" y="443"/>
      <point x="361" y="439"/>
      <point x="388" y="429" type="curve"/>
      <point x="388" y="0" type="line"/>
      <point x="418" y="0" type="line"/>
      <point x="418" y="398" type="line" smooth="yes"/>
      <point x="418" y="449"/>
      <point x="379" y="472"/>
      <point x="308" y="472" type="curve" smooth="yes"/>
      <point x="241" y="472"/>
      <point x="178" y="446"/>
      <point x="120" y="397" type="curve"/>
      <point x="114" y="397" type="line"/>
      <point x="111" y="464" type="line"/>
      <point x="88" y="464" type="line"/>
      <point x="88" y="0" type="line"/>
    </contour>
    <contour>
      <point x="286" y="571" type="line"/>
      <point x="389" y="702" type="line"/>
      <point x="367" y="707" type="line"/>
      <point x="270" y="600" type="line"/>
      <point x="264" y="600" type="line"/>
      <point x="167" y="707" type="line"/>
      <point x="145" y="702" type="line"/>
      <point x="248" y="571" type="line"/>
    </contour>
  </outline>
</glyph>
<glyph name="Eng" format="1">
  <advance width="603"/>
  <unicode hex="014A"/>
  <note>
	Eng
  </note>
  <outline>
    <contour>
      <point x="478" y="-168"/>
      <point x="513" y="-122"/>
      <point x="513" y="-36" type="curve" smooth="yes"/>
      <point x="513" y="610" type="line"/>
      <point x="482" y="610" type="line"/>
      <point x="482" y="288" type="line"/>
      <point x="488" y="51" type="line"/>
      <point x="482" y="49" type="line"/>
      <point x="126" y="610" type="line"/>
      <point x="90" y="610" type="line"/>
      <point x="90" y="0" type="line"/>
      <point x="121" y="0" type="line"/>
      <point x="121" y="322" type="line"/>
      <point x="115" y="559" type="line"/>
      <point x="121" y="561" type="line"/>
      <point x="481" y="0" type="line"/>
      <point x="481" y="-64" type="line" smooth="yes"/>
      <point x="481" y="-88"/>
      <point x="479" y="-103"/>
      <point x="473" y="-121" type="curve"/>
      <point x="441" y="-144"/>
      <point x="402" y="-161"/>
      <point x="357" y="-174" type="curve"/>
      <point x="373" y="-209" type="line"/>
    </contour>
  </outline>
</glyph>
<glyph name="Obreve" format="1">
  <advance width="594"/>
  <unicode hex="014E"/>
  <note>
	Obreve
  </note>
  <outline>
    <contour>
      <point x="476" y="-10"/>
      <point x="530" y="124"/>
      <point x="530" y="312" type="curve" smooth="yes"/>
      <point x="530" y="512"/>
      <point x="467" y="620"/>
      <point x="309" y="620" type="curve" smooth="yes"/>
      <point x="118" y="620"/>
      <point x="64" y="486"/>
      <point x="64" y="298" type="curve" smooth="yes"/>
      <point x="64" y="98"/>
      <point x="127" y="-10"/>
      <point x="285" y="-10" type="curve" smooth="yes"/>
    </contour>
    <contour>
      <point x="143" y="21"/>
      <point x="96" y="117"/>
      <point x="96" y="305" type="curve" smooth="yes"/>
      <point x="96" y="411"/>
      <point x="118" y="496"/>
      <point x="161" y="557" type="curve"/>
      <point x="196" y="578"/>
      <point x="248" y="589"/>
      <point x="294" y="589" type="curve" smooth="yes"/>
      <point x="451" y="589"/>
      <point x="498" y="493"/>
      <point x="498" y="305" type="curve" smooth="yes"/>
      <point x="498" y="199"/>
      <point x="476" y="114"/>
      <point x="433" y="53" type="curve"/>
      <point x="398" y="32"/>
      <point x="346" y="21"/>
      <point x="300" y="21" type="curve" smooth="yes"/>
    </contour>
    <contour>
      <point x="371" y="716"/>
      <point x="402" y="760"/>
      <point x="414" y="812" type="curve"/>
      <point x="381" y="818" type="line"/>
      <point x="372" y="776"/>
      <point x="354" y="745"/>
      <point x="297" y="745" type="curve" smooth="yes"/>
      <point x="240" y="745"/>
      <point x="222" y="776"/>
      <point x="213" y="818" type="curve"/>
      <point x="180" y="812" type="line"/>
      <point x="192" y="760"/>
      <point x="223" y="716"/>
      <point x="297" y="716" type="curve" smooth="yes"/>
    </contour>
  </outline>
</glyph>
<glyph name="obreve" format="1">
  <advance width="492"/>
  <unicode hex="014F"/>
  <note>
	obreve
  </note>
  <outline>
    <contour>
      <point x="397" y="-10"/>
      <point x="430" y="111"/>
      <point x="430" y="246" type="curve" smooth="yes"/>
      <point x="430" y="390"/>
      <point x="371" y="481"/>
      <point x="257" y="481" type="curve" smooth="yes"/>
      <point x="95" y="481"/>
      <point x="62" y="360"/>
      <point x="62" y="225" type="curve" smooth="yes"/>
      <point x="62" y="81"/>
      <point x="121" y="-10"/>
      <point x="235" y="-10" type="curve" smooth="yes"/>
    </contour>
    <contour>
      <point x="143" y="19"/>
      <point x="92" y="89"/>
      <point x="92" y="233" type="curve" smooth="yes"/>
      <point x="92" y="308"/>
      <point x="110" y="385"/>
      <point x="135" y="425" type="curve"/>
      <point x="166" y="444"/>
      <point x="206" y="452"/>
      <point x="250" y="452" type="curve" smooth="yes"/>
      <point x="349" y="452"/>
      <point x="400" y="382"/>
      <point x="400" y="238" type="curve" smooth="yes"/>
      <point x="400" y="163"/>
      <point x="382" y="86"/>
      <point x="357" y="46" type="curve"/>
      <point x="326" y="27"/>
      <point x="286" y="19"/>
      <point x="242" y="19" type="curve" smooth="yes"/>
    </contour>
    <contour>
      <point x="320" y="566"/>
      <point x="351" y="610"/>
      <point x="363" y="662" type="curve"/>
      <point x="330" y="668" type="line"/>
      <point x="321" y="626"/>
      <point x="303" y="595"/>
      <point x="246" y="595" type="curve" smooth="yes"/>
      <point x="189" y="595"/>
      <point x="171" y="626"/>
      <point x="162" y="668" type="curve"/>
      <point x="129" y="662" type="line"/>
      <point x="141" y="610"/>
      <point x="172" y="566"/>
      <point x="246" y="566" type="curve" smooth="yes"/>
    </contour>
  </outline>
</glyph>
<glyph name="ohungarumlaut" format="1">
  <advance width="492"/>
  <unicode hex="0151"/>
  <note>
	ohungarumlaut
  </note>
  <outline>
    <contour>
      <point x="397" y="-10"/>
      <point x="430" y="111"/>
      <point x="430" y="246" type="curve" smooth="yes"/>
      <point x="430" y="390"/>
      <point x="371" y="481"/>
      <point x="257" y="481" type="curve" smooth="yes"/>
      <point x="95" y="481"/>
      <point x="62" y="360"/>
      <point x="62" y="225" type="curve" smooth="yes"/>
      <point x="62" y="81"/>
      <point x="121" y="-10"/>
      <point x="235" y="-10" type="curve" smooth="yes"/>
    </contour>
    <contour>
      <point x="143" y="19"/>
      <point x="92" y="89"/>
      <point x="92" y="233" type="curve" smooth="yes"/>
      <point x="92" y="308"/>
      <point x="110" y="385"/>
      <point x="135" y="425" type="curve"/>
      <point x="166" y="444"/>
      <point x="206" y="452"/>
      <point x="250" y="452" type="curve" smooth="yes"/>
      <point x="349" y="452"/>
      <point x="400" y="382"/>
      <point x="400" y="238" type="curve" smooth="yes"/>
      <point x="400" y="163"/>
      <point x="382" y="86"/>
      <point x="357" y="46" type="curve"/>
      <point x="326" y="27"/>
      <point x="286" y="19"/>
      <point x="242" y="19" type="curve" smooth="yes"/>
    </contour>
    <contour>
      <point x="197" y="604"/>
      <point x="212" y="645"/>
      <point x="212" y="692" type="curve" smooth="yes"/>
      <point x="212" y="730"/>
      <point x="194" y="750"/>
      <point x="159" y="750" type="curve" smooth="yes"/>
      <point x="146" y="750"/>
      <point x="135" y="748"/>
      <point x="126" y="745" type="curve"/>
      <point x="126" y="721" type="line"/>
      <point x="182" y="721" type="line"/>
      <point x="182" y="653"/>
      <point x="169" y="613"/>
      <point x="145" y="571" type="curve"/>
      <point x="167" y="566" type="line"/>
    </contour>
    <contour>
      <point x="362" y="604"/>
      <point x="377" y="645"/>
      <point x="377" y="692" type="curve" smooth="yes"/>
      <point x="377" y="730"/>
      <point x="359" y="750"/>
      <point x="324" y="750" type="curve" smooth="yes"/>
      <point x="311" y="750"/>
      <point x="300" y="748"/>
      <point x="291" y="745" type="curve"/>
      <point x="291" y="721" type="line"/>
      <point x="347" y="721" type="line"/>
      <point x="347" y="653"/>
      <point x="334" y="613"/>
      <point x="310" y="571" type="curve"/>
      <point x="332" y="566" type="line"/>
    </contour>
  </outline>
</glyph>
<glyph name="rcommaaccent" format="1">
  <advance width="351"/>
  <unicode hex="0157"/>
  <note>
	rcommaaccent
  </note>
  <outline>
    <contour>
      <point x="118" y="0" type="line"/>
      <point x="118" y="342" type="line"/>
      <point x="144" y="394"/>
      <point x="192" y="432"/>
      <point x="266" y="432" type="curve" smooth="yes"/>
      <point x="302" y="432" type="line"/>
      <point x="306" y="450" type="line"/>
      <point x="300" y="457"/>
      <point x="287" y="468"/>
      <point x="278" y="468" type="curve" smooth="yes"/>
      <point x="200" y="468"/>
      <point x="151" y="428"/>
      <point x="119" y="377" type="curve"/>
      <point x="113" y="377" type="line"/>
      <point x="110" y="462" type="line"/>
      <point x="88" y="462" type="line"/>
      <point x="88" y="0" type="line"/>
    </contour>
    <contour>
      <point x="159" y="-186"/>
      <point x="174" y="-145"/>
      <point x="174" y="-98" type="curve" smooth="yes"/>
      <point x="174" y="-60"/>
      <point x="156" y="-40"/>
      <point x="121" y="-40" type="curve" smooth="yes"/>
      <point x="108" y="-40"/>
      <point x="97" y="-42"/>
      <point x="88" y="-45" type="curve"/>
      <point x="88" y="-69" type="line"/>
      <point x="144" y="-69" type="line"/>
      <point x="144" y="-137"/>
      <point x="131" y="-177"/>
      <point x="107" y="-219" type="curve"/>
      <point x="129" y="-224" type="line"/>
    </contour>
  </outline>
</glyph>
<glyph name="rcaron" format="1">
  <advance width="351"/>
  <unicode hex="0159"/>
  <note>
	rcaron
  </note>
  <outline>
    <contour>
      <point x="118" y="0" type="line"/>
      <point x="118" y="342" type="line"/>
      <point x="144" y="394"/>
      <point x="192" y="432"/>
      <point x="266" y="432" type="curve" smooth="yes"/>
      <point x="302" y="432" type="line"/>
      <point x="306" y="450" type="line"/>
      <point x="300" y="457"/>
      <point x="287" y="468"/>
      <point x="278" y="468" type="curve" smooth="yes"/>
      <point x="200" y="468"/>
      <point x="151" y="428"/>
      <point x="119" y="377" type="curve"/>
      <point x="113" y="377" type="line"/>
      <point x="110" y="462" type="line"/>
      <point x="88" y="462" type="line"/>
      <point x="88" y="0" type="line"/>
    </contour>
    <contour>
      <point x="205" y="571" type="line"/>
      <point x="308" y="702" type="line"/>
      <point x="286" y="707" type="line"/>
      <point x="189" y="600" type="line"/>
      <point x="183" y="600" type="line"/>
      <point x="86" y="707" type="line"/>
      <point x="64" y="702" type="line"/>
      <point x="167" y="571" type="line"/>
    </contour>
  </outline>
</glyph>
<glyph name="Scedilla" format="1">
  <advance width="508"/>
  <unicode hex="015E"/>
  <note>
	Scedilla
  </note>
  <outline>
    <contour>
      <point x="309" y="-216"/>
      <point x="345" y="-191"/>
      <point x="345" y="-133" type="curve" smooth="yes"/>
      <point x="345" y="-87"/>
      <point x="324" y="-62"/>
      <point x="275" y="-62" type="curve" smooth="yes"/>
      <point x="254" y="-62"/>
      <point x="236" y="-65"/>
      <point x="222" y="-71" type="curve"/>
      <point x="269" y="-9" type="line"/>
      <point x="405" y="0"/>
      <point x="434" y="83"/>
      <point x="434" y="169" type="curve" smooth="yes"/>
      <point x="434" y="251"/>
      <point x="389" y="290"/>
      <point x="267" y="321" type="curve" smooth="yes"/>
      <point x="160" y="348"/>
      <point x="104" y="375"/>
      <point x="104" y="460" type="curve" smooth="yes"/>
      <point x="104" y="546"/>
      <point x="147" y="590"/>
      <point x="256" y="590" type="curve" smooth="yes"/>
      <point x="296" y="590"/>
      <point x="340" y="586"/>
      <point x="378" y="581" type="curve"/>
      <point x="384" y="488" type="line"/>
      <point x="404" y="488" type="line"/>
      <point x="411" y="512"/>
      <point x="416" y="541"/>
      <point x="416" y="566" type="curve" smooth="yes"/>
      <point x="416" y="588" type="line"/>
      <point x="377" y="608"/>
      <point x="332" y="620"/>
      <point x="262" y="620" type="curve" smooth="yes"/>
      <point x="109" y="620"/>
      <point x="72" y="540"/>
      <point x="72" y="452" type="curve" smooth="yes"/>
      <point x="72" y="348"/>
      <point x="157" y="313"/>
      <point x="253" y="289" type="curve" smooth="yes"/>
      <point x="351" y="264"/>
      <point x="401" y="233"/>
      <point x="401" y="150" type="curve" smooth="yes"/>
      <point x="401" y="110"/>
      <point x="392" y="77"/>
      <point x="378" y="53" type="curve"/>
      <point x="351" y="35"/>
      <point x="310" y="20"/>
      <point x="247" y="20" type="curve" smooth="yes"/>
      <point x="182" y="20"/>
      <point x="129" y="31"/>
      <point x="72" y="56" type="curve"/>
      <point x="60" y="28" type="line"/>
      <point x="120" y="1"/>
      <point x="181" y="-10"/>
      <point x="244" y="-10" type="curve"/>
      <point x="193" y="-70" type="line"/>
      <point x="220" y="-97" type="line"/>
      <point x="236" y="-92"/>
      <point x="249" y="-91"/>
      <point x="268" y="-91" type="curve" smooth="yes"/>
      <point x="304" y="-91"/>
      <point x="315" y="-107"/>
      <point x="315" y="-138" type="curve" smooth="yes"/>
      <point x="315" y="-153"/>
      <point x="312" y="-170"/>
      <point x="308" y="-180" type="curve"/>
      <point x="293" y="-185"/>
      <point x="279" y="-187"/>
      <point x="254" y="-187" type="curve" smooth="yes"/>
      <point x="227" y="-187"/>
      <point x="204" y="-183"/>
      <point x="181" y="-175" type="curve"/>
      <point x="171" y="-201" type="line"/>
      <point x="201" y="-213"/>
      <point x="223" y="-216"/>
      <point x="248" y="-216" type="curve" smooth="yes"/>
    </contour>
  </outline>
</glyph>
<glyph name="tcaron" format="1">
  <advance width="346"/>
  <unicode hex="0165"/>
  <note>
	tcaron
  </note>
  <outline>
    <contour>
      <point x="257" y="-4"/>
      <point x="290" y="4"/>
      <point x="308" y="14" type="curve"/>
      <point x="298" y="40" type="line"/>
      <point x="280" y="31"/>
      <point x="251" y="25"/>
      <point x="222" y="25" type="curve" smooth="yes"/>
      <point x="200" y="25"/>
      <point x="179" y="27"/>
      <point x="156" y="33" type="curve"/>
      <point x="149" y="53"/>
      <point x="147" y="63"/>
      <point x="147" y="95" type="curve" smooth="yes"/>
      <point x="147" y="435" type="line"/>
      <point x="296" y="435" type="line"/>
      <point x="300" y="464" type="line"/>
      <point x="147" y="464" type="line"/>
      <point x="147" y="595" type="line"/>
      <point x="116" y="595" type="line"/>
      <point x="116" y="464" type="line"/>
      <point x="42" y="464" type="line"/>
      <point x="38" y="435" type="line"/>
      <point x="116" y="435" type="line"/>
      <point x="116" y="84" type="line" smooth="yes"/>
      <point x="116" y="39"/>
      <point x="140" y="18"/>
      <point x="171" y="2" type="curve"/>
      <point x="188" y="-2"/>
      <point x="207" y="-4"/>
      <point x="227" y="-4" type="curve" smooth="yes"/>
    </contour>
    <contour>
      <point x="189" y="691" type="line"/>
      <point x="292" y="822" type="line"/>
      <point x="270" y="827" type="line"/>
      <point x="173" y="720" type="line"/>
      <point x="167" y="720" type="line"/>
      <point x="70" y="827" type="line"/>
      <point x="48" y="822" type="line"/>
      <point x="151" y="691" type="line"/>
    </contour>
  </outline>
</glyph>
<glyph name="Tbar" format="1">
  <advance width="505"/>
  <unicode hex="0166"/>
  <note>
	Tbar
  </note>
  <outline>
    <contour>
      <point x="269" y="0" type="line"/>
      <point x="269" y="291" type="line"/>
      <point x="386" y="291" type="line"/>
      <point x="386" y="322" type="line"/>
      <point x="269" y="322" type="line"/>
      <point x="269" y="579" type="line"/>
      <point x="467" y="579" type="line"/>
      <point x="467" y="610" type="line"/>
      <point x="38" y="610" type="line"/>
      <point x="38" y="579" type="line"/>
      <point x="237" y="579" type="line"/>
      <point x="237" y="322" type="line"/>
      <point x="119" y="322" type="line"/>
      <point x="119" y="291" type="line"/>
      <point x="237" y="291" type="line"/>
      <point x="237" y="0" type="line"/>
    </contour>
  </outline>
</glyph>
<glyph name="tbar" format="1">
  <advance width="346"/>
  <unicode hex="0167"/>
  <note>
	tbar
  </note>
  <outline>
    <contour>
      <point x="257" y="-4"/>
      <point x="290" y="4"/>
      <point x="308" y="14" type="curve"/>
      <point x="298" y="40" type="line"/>
      <point x="280" y="31"/>
      <point x="251" y="25"/>
      <point x="222" y="25" type="curve" smooth="yes"/>
      <point x="200" y="25"/>
      <point x="179" y="27"/>
      <point x="156" y="33" type="curve"/>
      <point x="149" y="53"/>
      <point x="147" y="63"/>
      <point x="147" y="95" type="curve" smooth="yes"/>
      <point x="147" y="248" type="line"/>
      <point x="256" y="248" type="line"/>
      <point x="256" y="277" type="line"/>
      <point x="147" y="277" type="line"/>
      <point x="147" y="435" type="line"/>
      <point x="296" y="435" type="line"/>
      <point x="300" y="464" type="line"/>
      <point x="147" y="464" type="line"/>
      <point x="147" y="595" type="line"/>
      <point x="116" y="595" type="line"/>
      <point x="116" y="464" type="line"/>
      <point x="42" y="464" type="line"/>
      <point x="38" y="435" type="line"/>
      <point x="116" y="435" type="line"/>
      <point x="116" y="277" type="line"/>
      <point x="39" y="277" type="line"/>
      <point x="39" y="248" type="line"/>
      <point x="116" y="248" type="line"/>
      <point x="116" y="84" type="line" smooth="yes"/>
      <point x="116" y="39"/>
      <point x="140" y="18"/>
      <point x="171" y="2" type="curve"/>
      <point x="188" y="-2"/>
      <point x="207" y="-4"/>
      <point x="227" y="-4" type="curve" smooth="yes"/>
    </contour>
  </outline>
</glyph>
<glyph name="Umacron" format="1">
  <advance width="585"/>
  <unicode hex="016A"/>
  <note>
	Umacron
  </note>
  <outline>
    <contour>
      <point x="415" y="-10"/>
      <point x="497" y="22"/>
      <point x="497" y="70" type="curve" smooth="yes"/>
      <point x="497" y="610" type="line"/>
      <point x="465" y="610" type="line"/>
      <point x="465" y="52" type="line"/>
      <point x="424" y="34"/>
      <point x="372" y="21"/>
      <point x="298" y="21" type="curve" smooth="yes"/>
      <point x="173" y="21"/>
      <point x="118" y="54"/>
      <point x="118" y="176" type="curve" smooth="yes"/>
      <point x="118" y="610" type="line"/>
      <point x="86" y="610" type="line"/>
      <point x="86" y="165" type="line" smooth="yes"/>
      <point x="86" y="45"/>
      <point x="153" y="-10"/>
      <point x="291" y="-10" type="curve" smooth="yes"/>
    </contour>
    <contour>
      <point x="419" y="721" type="line"/>
      <point x="419" y="750" type="line"/>
      <point x="163" y="750" type="line"/>
      <point x="163" y="721" type="line"/>
    </contour>
  </outline>
</glyph>
<glyph name="umacron" format="1">
  <advance width="498"/>
  <unicode hex="016B"/>
  <note>
	umacron
  </note>
  <outline>
    <contour>
      <point x="270" y="-10"/>
      <point x="322" y="21"/>
      <point x="377" y="71" type="curve"/>
      <point x="383" y="71" type="line"/>
      <point x="386" y="0" type="line"/>
      <point x="409" y="0" type="line"/>
      <point x="409" y="464" type="line"/>
      <point x="379" y="464" type="line"/>
      <point x="379" y="101" type="line"/>
      <point x="339" y="58"/>
      <point x="272" y="19"/>
      <point x="198" y="19" type="curve" smooth="yes"/>
      <point x="162" y="19"/>
      <point x="140" y="23"/>
      <point x="113" y="33" type="curve"/>
      <point x="113" y="464" type="line"/>
      <point x="83" y="464" type="line"/>
      <point x="83" y="64" type="line" smooth="yes"/>
      <point x="83" y="13"/>
      <point x="124" y="-10"/>
      <point x="193" y="-10" type="curve" smooth="yes"/>
    </contour>
    <contour>
      <point x="377" y="571" type="line"/>
      <point x="377" y="600" type="line"/>
      <point x="121" y="600" type="line"/>
      <point x="121" y="571" type="line"/>
    </contour>
  </outline>
</glyph>
<glyph name="Ubreve" format="1">
  <advance width="585"/>
  <unicode hex="016C"/>
  <note>
	Ubreve
  </note>
  <outline>
    <contour>
      <point x="415" y="-10"/>
      <point x="497" y="22"/>
      <point x="497" y="70" type="curve" smooth="yes"/>
      <point x="497" y="610" type="line"/>
      <point x="465" y="610" type="line"/>
      <point x="465" y="52" type="line"/>
      <point x="424" y="34"/>
      <point x="372" y="21"/>
      <point x="298" y="21" type="curve" smooth="yes"/>
      <point x="173" y="21"/>
      <point x="118" y="54"/>
      <point x="118" y="176" type="curve" smooth="yes"/>
      <point x="118" y="610" type="line"/>
      <point x="86" y="610" type="line"/>
      <point x="86" y="165" type="line" smooth="yes"/>
      <point x="86" y="45"/>
      <point x="153" y="-10"/>
      <point x="291" y="-10" type="curve" smooth="yes"/>
    </contour>
    <contour>
      <point x="369" y="716"/>
      <point x="400" y="760"/>
      <point x="412" y="812" type="curve"/>
      <point x="379" y="818" type="line"/>
      <point x="370" y="776"/>
      <point x="352" y="745"/>
      <point x="295" y="745" type="curve" smooth="yes"/>
      <point x="238" y="745"/>
      <point x="220" y="776"/>
      <point x="211" y="818" type="curve"/>
      <point x="178" y="812" type="line"/>
      <point x="190" y="760"/>
      <point x="221" y="716"/>
      <point x="295" y="716" type="curve" smooth="yes"/>
    </contour>
  </outline>
</glyph>
<glyph name="ubreve" format="1">
  <advance width="498"/>
  <unicode hex="016D"/>
  <note>
	ubreve
  </note>
  <outline>
    <contour>
      <point x="270" y="-10"/>
      <point x="322" y="21"/>
      <point x="377" y="71" type="curve"/>
      <point x="383" y="71" type="line"/>
      <point x="386" y="0" type="line"/>
      <point x="409" y="0" type="line"/>
      <point x="409" y="464" type="line"/>
      <point x="379" y="464" type="line"/>
      <point x="379" y="101" type="line"/>
      <point x="339" y="58"/>
      <point x="272" y="19"/>
      <point x="198" y="19" type="curve" smooth="yes"/>
      <point x="162" y="19"/>
      <point x="140" y="23"/>
      <point x="113" y="33" type="curve"/>
      <point x="113" y="464" type="line"/>
      <point x="83" y="464" type="line"/>
      <point x="83" y="64" type="line" smooth="yes"/>
      <point x="83" y="13"/>
      <point x="124" y="-10"/>
      <point x="193" y="-10" type="curve" smooth="yes"/>
    </contour>
    <contour>
      <point x="323" y="566"/>
      <point x="354" y="610"/>
      <point x="366" y="662" type="curve"/>
      <point x="333" y="668" type="line"/>
      <point x="324" y="626"/>
      <point x="306" y="595"/>
      <point x="249" y="595" type="curve" smooth="yes"/>
      <point x="192" y="595"/>
      <point x="174" y="626"/>
      <point x="165" y="668" type="curve"/>
      <point x="132" y="662" type="line"/>
      <point x="144" y="610"/>
      <point x="175" y="566"/>
      <point x="249" y="566" type="curve" smooth="yes"/>
    </contour>
  </outline>
</glyph>
<glyph name="uring" format="1">
  <advance width="498"/>
  <unicode hex="016F"/>
  <note>
	uring
  </note>
  <outline>
    <contour>
      <point x="270" y="-10"/>
      <point x="322" y="21"/>
      <point x="377" y="71" type="curve"/>
      <point x="383" y="71" type="line"/>
      <point x="386" y="0" type="line"/>
      <point x="409" y="0" type="line"/>
      <point x="409" y="464" type="line"/>
      <point x="379" y="464" type="line"/>
      <point x="379" y="101" type="line"/>
      <point x="339" y="58"/>
      <point x="272" y="19"/>
      <point x="198" y="19" type="curve" smooth="yes"/>
      <point x="162" y="19"/>
      <point x="140" y="23"/>
      <point x="113" y="33" type="curve"/>
      <point x="113" y="464" type="line"/>
      <point x="83" y="464" type="line"/>
      <point x="83" y="64" type="line" smooth="yes"/>
      <point x="83" y="13"/>
      <point x="124" y="-10"/>
      <point x="193" y="-10" type="curve" smooth="yes"/>
    </contour>
    <contour>
      <point x="314" y="566"/>
      <point x="351" y="610"/>
      <point x="351" y="658" type="curve" smooth="yes"/>
      <point x="351" y="710"/>
      <point x="323" y="735"/>
      <point x="258" y="735" type="curve" smooth="yes"/>
      <point x="190" y="735"/>
      <point x="146" y="691"/>
      <point x="146" y="643" type="curve" smooth="yes"/>
      <point x="146" y="593"/>
      <point x="178" y="566"/>
      <point x="239" y="566" type="curve" smooth="yes"/>
    </contour>
    <contour>
      <point x="196" y="591"/>
      <point x="174" y="610"/>
      <point x="174" y="646" type="curve" smooth="yes"/>
      <point x="174" y="664"/>
      <point x="176" y="677"/>
      <point x="184" y="700" type="curve"/>
      <point x="209" y="708"/>
      <point x="228" y="710"/>
      <point x="254" y="710" type="curve" smooth="yes"/>
      <point x="301" y="710"/>
      <point x="323" y="695"/>
      <point x="323" y="655" type="curve" smooth="yes"/>
      <point x="323" y="637"/>
      <point x="320" y="621"/>
      <point x="313" y="601" type="curve"/>
      <point x="288" y="593"/>
      <point x="269" y="591"/>
      <point x="243" y="591" type="curve" smooth="yes"/>
    </contour>
  </outline>
</glyph>
<glyph name="uogonek" format="1">
  <advance width="498"/>
  <unicode hex="0173"/>
  <note>
	uogonek
  </note>
  <outline>
    <contour>
      <point x="270" y="-10"/>
      <point x="322" y="21"/>
      <point x="377" y="71" type="curve"/>
      <point x="383" y="71" type="line"/>
      <point x="386" y="0" type="line"/>
      <point x="409" y="0" type="line"/>
      <point x="409" y="464" type="line"/>
      <point x="379" y="464" type="line"/>
      <point x="379" y="101" type="line"/>
      <point x="339" y="58"/>
      <point x="272" y="19"/>
      <point x="198" y="19" type="curve" smooth="yes"/>
      <point x="162" y="19"/>
      <point x="140" y="23"/>
      <point x="113" y="33" type="curve"/>
      <point x="113" y="464" type="line"/>
      <point x="83" y="464" type="line"/>
      <point x="83" y="64" type="line" smooth="yes"/>
      <point x="83" y="13"/>
      <point x="124" y="-10"/>
      <point x="193" y="-10" type="curve" smooth="yes"/>
    </contour>
    <contour>
      <point x="416" y="-165"/>
      <point x="431" y="-161"/>
      <point x="446" y="-154" type="curve"/>
      <point x="441" y="-131" type="line"/>
      <point x="426" y="-134"/>
      <point x="413" y="-136"/>
      <point x="400" y="-136" type="curve" smooth="yes"/>
      <point x="385" y="-136"/>
      <point x="375" y="-135"/>
      <point x="360" y="-132" type="curve"/>
      <point x="353" y="-120"/>
      <point x="350" y="-105"/>
      <point x="350" y="-91" type="curve" smooth="yes"/>
      <point x="350" y="-51"/>
      <point x="365" y="-24"/>
      <point x="409" y="0" type="curve"/>
      <point x="393" y="9" type="line"/>
      <point x="342" y="-12"/>
      <point x="320" y="-46"/>
      <point x="320" y="-90" type="curve" smooth="yes"/>
      <point x="320" y="-134"/>
      <point x="343" y="-165"/>
      <point x="393" y="-165" type="curve" smooth="yes"/>
    </contour>
  </outline>
</glyph>
<glyph name="Zacute" format="1">
  <advance width="538"/>
  <unicode hex="0179"/>
  <note>
	Zacute
  </note>
  <outline>
    <contour>
      <point x="475" y="0" type="line"/>
      <point x="475" y="23" type="line" smooth="yes"/>
      <point x="475" y="57"/>
      <point x="470" y="87"/>
      <point x="462" y="110" type="curve"/>
      <point x="444" y="110" type="line"/>
      <point x="444" y="31" type="line"/>
      <point x="97" y="31" type="line"/>
      <point x="97" y="37" type="line"/>
      <point x="468" y="565" type="line"/>
      <point x="468" y="610" type="line"/>
      <point x="83" y="610" type="line"/>
      <point x="83" y="587" type="line" smooth="yes"/>
      <point x="83" y="552"/>
      <point x="89" y="529"/>
      <point x="96" y="506" type="curve"/>
      <point x="114" y="506" type="line"/>
      <point x="114" y="579" type="line"/>
      <point x="436" y="579" type="line"/>
      <point x="436" y="573" type="line"/>
      <point x="65" y="49" type="line"/>
      <point x="65" y="0" type="line"/>
    </contour>
    <contour>
      <point x="374" y="855" type="line"/>
      <point x="329" y="860" type="line"/>
      <point x="245" y="721" type="line"/>
      <point x="264" y="717" type="line"/>
    </contour>
  </outline>
</glyph>
<glyph name="zacute" format="1">
  <advance width="431"/>
  <unicode hex="017A"/>
  <note>
	zacute
  </note>
  <outline>
    <contour>
      <point x="371" y="0" type="line"/>
      <point x="371" y="31" type="line" smooth="yes"/>
      <point x="371" y="48"/>
      <point x="368" y="74"/>
      <point x="363" y="95" type="curve"/>
      <point x="344" y="95" type="line"/>
      <point x="340" y="29" type="line"/>
      <point x="92" y="29" type="line"/>
      <point x="92" y="35" type="line"/>
      <point x="359" y="418" type="line"/>
      <point x="359" y="464" type="line"/>
      <point x="71" y="464" type="line"/>
      <point x="71" y="438" type="line" smooth="yes"/>
      <point x="71" y="416"/>
      <point x="74" y="394"/>
      <point x="78" y="375" type="curve"/>
      <point x="98" y="375" type="line"/>
      <point x="102" y="435" type="line"/>
      <point x="329" y="435" type="line"/>
      <point x="329" y="429" type="line"/>
      <point x="62" y="44" type="line"/>
      <point x="62" y="0" type="line"/>
    </contour>
    <contour>
      <point x="319" y="705" type="line"/>
      <point x="274" y="710" type="line"/>
      <point x="190" y="571" type="line"/>
      <point x="209" y="567" type="line"/>
    </contour>
  </outline>
</glyph>
<glyph name="Zcaron" format="1">
  <advance width="538"/>
  <unicode hex="017D"/>
  <note>
	Zcaron
  </note>
  <outline>
    <contour>
      <point x="475" y="0" type="line"/>
      <point x="475" y="23" type="line" smooth="yes"/>
      <point x="475" y="57"/>
      <point x="470" y="87"/>
      <point x="462" y="110" type="curve"/>
      <point x="444" y="110" type="line"/>
      <point x="444" y="31" type="line"/>
      <point x="97" y="31" type="line"/>
      <point x="97" y="37" type="line"/>
      <point x="468" y="565" type="line"/>
      <point x="468" y="610" type="line"/>
      <point x="83" y="610" type="line"/>
      <point x="83" y="587" type="line" smooth="yes"/>
      <point x="83" y="552"/>
      <point x="89" y="529"/>
      <point x="96" y="506" type="curve"/>
      <point x="114" y="506" type="line"/>
      <point x="114" y="579" type="line"/>
      <point x="436" y="579" type="line"/>
      <point x="436" y="573" type="line"/>
      <point x="65" y="49" type="line"/>
      <point x="65" y="0" type="line"/>
    </contour>
    <contour>
      <point x="293" y="721" type="line"/>
      <point x="396" y="852" type="line"/>
      <point x="374" y="857" type="line"/>
      <point x="277" y="750" type="line"/>
      <point x="271" y="750" type="line"/>
      <point x="174" y="857" type="line"/>
      <point x="152" y="852" type="line"/>
      <point x="255" y="721" type="line"/>
    </contour>
  </outline>
</glyph>
<glyph name="florin" format="1">
  <advance width="444"/>
  <unicode hex="0192"/>
  <note>
	florin
  </note>
  <outline>
    <contour>
      <point x="135" y="-150"/>
      <point x="161" y="-120"/>
      <point x="174" y="-28" type="curve" smooth="yes"/>
      <point x="236" y="419" type="line"/>
      <point x="337" y="419" type="line"/>
      <point x="343" y="448" type="line"/>
      <point x="240" y="448" type="line"/>
      <point x="254" y="545" type="line" smooth="yes"/>
      <point x="258" y="570"/>
      <point x="263" y="591"/>
      <point x="276" y="619" type="curve"/>
      <point x="304" y="626"/>
      <point x="325" y="628"/>
      <point x="349" y="628" type="curve" smooth="yes"/>
      <point x="376" y="628"/>
      <point x="392" y="627"/>
      <point x="412" y="621" type="curve"/>
      <point x="424" y="647" type="line"/>
      <point x="404" y="654"/>
      <point x="385" y="657"/>
      <point x="359" y="657" type="curve" smooth="yes"/>
      <point x="344" y="657"/>
      <point x="325" y="655"/>
      <point x="303" y="650" type="curve"/>
      <point x="264" y="634"/>
      <point x="234" y="602"/>
      <point x="225" y="546" type="curve" smooth="yes"/>
      <point x="210" y="448" type="line"/>
      <point x="145" y="448" type="line"/>
      <point x="139" y="419" type="line"/>
      <point x="206" y="419" type="line"/>
      <point x="144" y="-28" type="line" smooth="yes"/>
      <point x="139" y="-62"/>
      <point x="134" y="-86"/>
      <point x="122" y="-111" type="curve"/>
      <point x="94" y="-118"/>
      <point x="80" y="-119"/>
      <point x="58" y="-119" type="curve" smooth="yes"/>
      <point x="41" y="-119"/>
      <point x="19" y="-117"/>
      <point x="8" y="-114" type="curve"/>
      <point x="0" y="-144" type="line"/>
      <point x="15" y="-148"/>
      <point x="34" y="-150"/>
      <point x="52" y="-150" type="curve" smooth="yes"/>
    </contour>
  </outline>
</glyph>
<glyph name="Icaron" format="1">
  <advance width="218"/>
  <unicode hex="01CF"/>
  <note>
	Icaron
  </note>
  <outline>
    <contour>
      <point x="128" y="721" type="line"/>
      <point x="231" y="852" type="line"/>
      <point x="209" y="857" type="line"/>
      <point x="112" y="750" type="line"/>
      <point x="106" y="750" type="line"/>
      <point x="9" y="857" type="line"/>
      <point x="-13" y="852" type="line"/>
      <point x="90" y="721" type="line"/>
    </contour>
    <contour>
      <point x="125" y="0" type="line"/>
      <point x="125" y="610" type="line"/>
      <point x="93" y="610" type="line"/>
      <point x="93" y="0" type="line"/>
    </contour>
  </outline>
</glyph>
<glyph name="ocaron" format="1">
  <advance width="492"/>
  <unicode hex="01D2"/>
  <note>
	ocaron
  </note>
  <outline>
    <contour>
      <point x="397" y="-10"/>
      <point x="430" y="111"/>
      <point x="430" y="246" type="curve" smooth="yes"/>
      <point x="430" y="390"/>
      <point x="371" y="481"/>
      <point x="257" y="481" type="curve" smooth="yes"/>
      <point x="95" y="481"/>
      <point x="62" y="360"/>
      <point x="62" y="225" type="curve" smooth="yes"/>
      <point x="62" y="81"/>
      <point x="121" y="-10"/>
      <point x="235" y="-10" type="curve" smooth="yes"/>
    </contour>
    <contour>
      <point x="143" y="19"/>
      <point x="92" y="89"/>
      <point x="92" y="233" type="curve" smooth="yes"/>
      <point x="92" y="308"/>
      <point x="110" y="385"/>
      <point x="135" y="425" type="curve"/>
      <point x="166" y="444"/>
      <point x="206" y="452"/>
      <point x="250" y="452" type="curve" smooth="yes"/>
      <point x="349" y="452"/>
      <point x="400" y="382"/>
      <point x="400" y="238" type="curve" smooth="yes"/>
      <point x="400" y="163"/>
      <point x="382" y="86"/>
      <point x="357" y="46" type="curve"/>
      <point x="326" y="27"/>
      <point x="286" y="19"/>
      <point x="242" y="19" type="curve" smooth="yes"/>
    </contour>
    <contour>
      <point x="263" y="571" type="line"/>
      <point x="366" y="702" type="line"/>
      <point x="344" y="707" type="line"/>
      <point x="247" y="600" type="line"/>
      <point x="241" y="600" type="line"/>
      <point x="144" y="707" type="line"/>
      <point x="122" y="702" type="line"/>
      <point x="225" y="571" type="line"/>
    </contour>
  </outline>
</glyph>
<glyph name="Ucaron" format="1">
  <advance width="585"/>
  <unicode hex="01D3"/>
  <note>
	Ucaron
  </note>
  <outline>
    <contour>
      <point x="415" y="-10"/>
      <point x="497" y="22"/>
      <point x="497" y="70" type="curve" smooth="yes"/>
      <point x="497" y="610" type="line"/>
      <point x="465" y="610" type="line"/>
      <point x="465" y="52" type="line"/>
      <point x="424" y="34"/>
      <point x="372" y="21"/>
      <point x="298" y="21" type="curve" smooth="yes"/>
      <point x="173" y="21"/>
      <point x="118" y="54"/>
      <point x="118" y="176" type="curve" smooth="yes"/>
      <point x="118" y="610" type="line"/>
      <point x="86" y="610" type="line"/>
      <point x="86" y="165" type="line" smooth="yes"/>
      <point x="86" y="45"/>
      <point x="153" y="-10"/>
      <point x="291" y="-10" type="curve" smooth="yes"/>
    </contour>
    <contour>
      <point x="310" y="721" type="line"/>
      <point x="413" y="852" type="line"/>
      <point x="391" y="857" type="line"/>
      <point x="294" y="750" type="line"/>
      <point x="288" y="750" type="line"/>
      <point x="191" y="857" type="line"/>
      <point x="169" y="852" type="line"/>
      <point x="272" y="721" type="line"/>
    </contour>
  </outline>
</glyph>
<glyph name="Udieresisacute" format="1">
  <advance width="585"/>
  <unicode hex="01D7"/>
  <note>
	Udieresisacute
  </note>
  <outline>
    <contour>
      <point x="415" y="-10"/>
      <point x="497" y="22"/>
      <point x="497" y="70" type="curve" smooth="yes"/>
      <point x="497" y="610" type="line"/>
      <point x="465" y="610" type="line"/>
      <point x="465" y="52" type="line"/>
      <point x="424" y="34"/>
      <point x="372" y="21"/>
      <point x="298" y="21" type="curve" smooth="yes"/>
      <point x="173" y="21"/>
      <point x="118" y="54"/>
      <point x="118" y="176" type="curve" smooth="yes"/>
      <point x="118" y="610" type="line"/>
      <point x="86" y="610" type="line"/>
      <point x="86" y="165" type="line" smooth="yes"/>
      <point x="86" y="45"/>
      <point x="153" y="-10"/>
      <point x="291" y="-10" type="curve" smooth="yes"/>
    </contour>
    <contour>
      <point x="231" y="722"/>
      <point x="241" y="732"/>
      <point x="241" y="749" type="curve" smooth="yes"/>
      <point x="241" y="767"/>
      <point x="231" y="776"/>
      <point x="214" y="776" type="curve" smooth="yes"/>
      <point x="197" y="776"/>
      <point x="186" y="767"/>
      <point x="186" y="749" type="curve" smooth="yes"/>
      <point x="186" y="732"/>
      <point x="197" y="722"/>
      <point x="214" y="722" type="curve" smooth="yes"/>
    </contour>
    <contour>
      <point x="389" y="722"/>
      <point x="399" y="732"/>
      <point x="399" y="749" type="curve" smooth="yes"/>
      <point x="399" y="767"/>
      <point x="389" y="776"/>
      <point x="372" y="776" type="curve" smooth="yes"/>
      <point x="354" y="776"/>
      <point x="343" y="767"/>
      <point x="343" y="749" type="curve" smooth="yes"/>
      <point x="343" y="732"/>
      <point x="354" y="722"/>
      <point x="372" y="722" type="curve" smooth="yes"/>
    </contour>
    <contour>
      <point x="380" y="936" type="line"/>
      <point x="343" y="943" type="line"/>
      <point x="281" y="841" type="line"/>
      <point x="300" y="837" type="line"/>
    </contour>
  </outline>
</glyph>
<glyph name="udieresisacute" format="1">
  <advance width="498"/>
  <unicode hex="01D8"/>
  <note>
	udieresisacute
  </note>
  <outline>
    <contour>
      <point x="270" y="-10"/>
      <point x="322" y="21"/>
      <point x="377" y="71" type="curve"/>
      <point x="383" y="71" type="line"/>
      <point x="386" y="0" type="line"/>
      <point x="409" y="0" type="line"/>
      <point x="409" y="464" type="line"/>
      <point x="379" y="464" type="line"/>
      <point x="379" y="101" type="line"/>
      <point x="339" y="58"/>
      <point x="272" y="19"/>
      <point x="198" y="19" type="curve" smooth="yes"/>
      <point x="162" y="19"/>
      <point x="140" y="23"/>
      <point x="113" y="33" type="curve"/>
      <point x="113" y="464" type="line"/>
      <point x="83" y="464" type="line"/>
      <point x="83" y="64" type="line" smooth="yes"/>
      <point x="83" y="13"/>
      <point x="124" y="-10"/>
      <point x="193" y="-10" type="curve" smooth="yes"/>
    </contour>
    <contour>
      <point x="187" y="566"/>
      <point x="197" y="576"/>
      <point x="197" y="593" type="curve" smooth="yes"/>
      <point x="197" y="611"/>
      <point x="187" y="620"/>
      <point x="170" y="620" type="curve" smooth="yes"/>
      <point x="153" y="620"/>
      <point x="142" y="611"/>
      <point x="142" y="593" type="curve" smooth="yes"/>
      <point x="142" y="576"/>
      <point x="153" y="566"/>
      <point x="170" y="566" type="curve" smooth="yes"/>
    </contour>
    <contour>
      <point x="345" y="566"/>
      <point x="355" y="576"/>
      <point x="355" y="593" type="curve" smooth="yes"/>
      <point x="355" y="611"/>
      <point x="345" y="620"/>
      <point x="328" y="620" type="curve" smooth="yes"/>
      <point x="310" y="620"/>
      <point x="299" y="611"/>
      <point x="299" y="593" type="curve" smooth="yes"/>
      <point x="299" y="576"/>
      <point x="310" y="566"/>
      <point x="328" y="566" type="curve" smooth="yes"/>
    </contour>
    <contour>
      <point x="336" y="780" type="line"/>
      <point x="299" y="787" type="line"/>
      <point x="237" y="685" type="line"/>
      <point x="256" y="681" type="line"/>
    </contour>
  </outline>
</glyph>
<glyph name="udieresiscaron" format="1">
  <advance width="498"/>
  <unicode hex="01DA"/>
  <note>
	udieresiscaron
  </note>
  <outline>
    <contour>
      <point x="270" y="-10"/>
      <point x="322" y="21"/>
      <point x="377" y="71" type="curve"/>
      <point x="383" y="71" type="line"/>
      <point x="386" y="0" type="line"/>
      <point x="409" y="0" type="line"/>
      <point x="409" y="464" type="line"/>
      <point x="379" y="464" type="line"/>
      <point x="379" y="101" type="line"/>
      <point x="339" y="58"/>
      <point x="272" y="19"/>
      <point x="198" y="19" type="curve" smooth="yes"/>
      <point x="162" y="19"/>
      <point x="140" y="23"/>
      <point x="113" y="33" type="curve"/>
      <point x="113" y="464" type="line"/>
      <point x="83" y="464" type="line"/>
      <point x="83" y="64" type="line" smooth="yes"/>
      <point x="83" y="13"/>
      <point x="124" y="-10"/>
      <point x="193" y="-10" type="curve" smooth="yes"/>
    </contour>
    <contour>
      <point x="185" y="566"/>
      <point x="195" y="576"/>
      <point x="195" y="593" type="curve" smooth="yes"/>
      <point x="195" y="611"/>
      <point x="185" y="620"/>
      <point x="168" y="620" type="curve" smooth="yes"/>
      <point x="151" y="620"/>
      <point x="140" y="611"/>
      <point x="140" y="593" type="curve" smooth="yes"/>
      <point x="140" y="576"/>
      <point x="151" y="566"/>
      <point x="168" y="566" type="curve" smooth="yes"/>
    </contour>
    <contour>
      <point x="343" y="566"/>
      <point x="353" y="576"/>
      <point x="353" y="593" type="curve" smooth="yes"/>
      <point x="353" y="611"/>
      <point x="343" y="620"/>
      <point x="326" y="620" type="curve" smooth="yes"/>
      <point x="308" y="620"/>
      <point x="297" y="611"/>
      <point x="297" y="593" type="curve" smooth="yes"/>
      <point x="297" y="576"/>
      <point x="308" y="566"/>
      <point x="326" y="566" type="curve" smooth="yes"/>
    </contour>
    <contour>
      <point x="268" y="684" type="line"/>
      <point x="359" y="801" type="line"/>
      <point x="339" y="806" type="line"/>
      <point x="252" y="710" type="line"/>
      <point x="246" y="710" type="line"/>
      <point x="160" y="806" type="line"/>
      <point x="139" y="801" type="line"/>
      <point x="230" y="684" type="line"/>
    </contour>
  </outline>
</glyph>
<glyph name="Udieresisgrave" format="1">
  <advance width="585"/>
  <unicode hex="01DB"/>
  <note>
	Udieresisgrave
  </note>
  <outline>
    <contour>
      <point x="415" y="-10"/>
      <point x="497" y="22"/>
      <point x="497" y="70" type="curve" smooth="yes"/>
      <point x="497" y="610" type="line"/>
      <point x="465" y="610" type="line"/>
      <point x="465" y="52" type="line"/>
      <point x="424" y="34"/>
      <point x="372" y="21"/>
      <point x="298" y="21" type="curve" smooth="yes"/>
      <point x="173" y="21"/>
      <point x="118" y="54"/>
      <point x="118" y="176" type="curve" smooth="yes"/>
      <point x="118" y="610" type="line"/>
      <point x="86" y="610" type="line"/>
      <point x="86" y="165" type="line" smooth="yes"/>
      <point x="86" y="45"/>
      <point x="153" y="-10"/>
      <point x="291" y="-10" type="curve" smooth="yes"/>
    </contour>
    <contour>
      <point x="229" y="716"/>
      <point x="240" y="726"/>
      <point x="240" y="743" type="curve" smooth="yes"/>
      <point x="240" y="761"/>
      <point x="229" y="770"/>
      <point x="211" y="770" type="curve" smooth="yes"/>
      <point x="194" y="770"/>
      <point x="184" y="761"/>
      <point x="184" y="743" type="curve" smooth="yes"/>
      <point x="184" y="726"/>
      <point x="194" y="716"/>
      <point x="211" y="716" type="curve" smooth="yes"/>
    </contour>
    <contour>
      <point x="386" y="716"/>
      <point x="397" y="726"/>
      <point x="397" y="743" type="curve" smooth="yes"/>
      <point x="397" y="761"/>
      <point x="386" y="770"/>
      <point x="369" y="770" type="curve" smooth="yes"/>
      <point x="352" y="770"/>
      <point x="342" y="761"/>
      <point x="342" y="743" type="curve" smooth="yes"/>
      <point x="342" y="726"/>
      <point x="352" y="716"/>
      <point x="369" y="716" type="curve" smooth="yes"/>
    </contour>
    <contour>
      <point x="302" y="835" type="line"/>
      <point x="240" y="937" type="line"/>
      <point x="203" y="930" type="line"/>
      <point x="283" y="831" type="line"/>
    </contour>
  </outline>
</glyph>
<glyph name="Aringacute" format="1">
  <advance width="568"/>
  <unicode hex="01FA"/>
  <note>
	Aringacute
  </note>
  <outline>
    <contour>
      <point x="350" y="707"/>
      <point x="387" y="751"/>
      <point x="387" y="799" type="curve" smooth="yes"/>
      <point x="387" y="851"/>
      <point x="359" y="876"/>
      <point x="294" y="876" type="curve" smooth="yes"/>
      <point x="226" y="876"/>
      <point x="182" y="832"/>
      <point x="182" y="784" type="curve" smooth="yes"/>
      <point x="182" y="734"/>
      <point x="214" y="707"/>
      <point x="275" y="707" type="curve" smooth="yes"/>
    </contour>
    <contour>
      <point x="232" y="732"/>
      <point x="210" y="751"/>
      <point x="210" y="787" type="curve" smooth="yes"/>
      <point x="210" y="805"/>
      <point x="212" y="818"/>
      <point x="220" y="841" type="curve"/>
      <point x="245" y="849"/>
      <point x="264" y="851"/>
      <point x="290" y="851" type="curve" smooth="yes"/>
      <point x="337" y="851"/>
      <point x="359" y="836"/>
      <point x="359" y="796" type="curve" smooth="yes"/>
      <point x="359" y="778"/>
      <point x="356" y="762"/>
      <point x="349" y="742" type="curve"/>
      <point x="324" y="734"/>
      <point x="305" y="732"/>
      <point x="279" y="732" type="curve" smooth="yes"/>
    </contour>
    <contour>
      <point x="407" y="1083" type="line"/>
      <point x="362" y="1088" type="line"/>
      <point x="278" y="949" type="line"/>
      <point x="297" y="945" type="line"/>
    </contour>
    <contour>
      <point x="97" y="67"/>
      <point x="122" y="153"/>
      <point x="143" y="221" type="curve"/>
      <point x="425" y="221" type="line"/>
      <point x="446" y="153"/>
      <point x="471" y="67"/>
      <point x="489" y="0" type="curve"/>
      <point x="521" y="6" type="line"/>
      <point x="465" y="205"/>
      <point x="397" y="429"/>
      <point x="330" y="610" type="curve"/>
      <point x="238" y="610" type="line"/>
      <point x="171" y="429"/>
      <point x="103" y="205"/>
      <point x="47" y="6" type="curve"/>
      <point x="79" y="0" type="line"/>
    </contour>
    <contour>
      <point x="185" y="358"/>
      <point x="232" y="506"/>
      <point x="260" y="579" type="curve"/>
      <point x="308" y="579" type="line"/>
      <point x="336" y="506"/>
      <point x="383" y="358"/>
      <point x="415" y="251" type="curve"/>
      <point x="153" y="251" type="line"/>
    </contour>
  </outline>
</glyph>
<glyph name="AEacute" format="1">
  <advance width="936"/>
  <unicode hex="01FC"/>
  <note>
	AEacute
  </note>
  <outline>
    <contour>
      <point x="754" y="-10"/>
      <point x="798" y="-5"/>
      <point x="846" y="5" type="curve"/>
      <point x="838" y="35" type="line"/>
      <point x="792" y="26"/>
      <point x="748" y="21"/>
      <point x="691" y="21" type="curve" smooth="yes"/>
      <point x="625" y="21"/>
      <point x="582" y="25"/>
      <point x="526" y="37" type="curve"/>
      <point x="526" y="293" type="line"/>
      <point x="805" y="293" type="line"/>
      <point x="805" y="324" type="line"/>
      <point x="526" y="324" type="line"/>
      <point x="526" y="579" type="line"/>
      <point x="834" y="579" type="line"/>
      <point x="834" y="610" type="line"/>
      <point x="383" y="610" type="line"/>
      <point x="261" y="418"/>
      <point x="147" y="207"/>
      <point x="47" y="12" type="curve"/>
      <point x="80" y="0" type="line"/>
      <point x="113" y="68"/>
      <point x="160" y="157"/>
      <point x="197" y="223" type="curve"/>
      <point x="494" y="223" type="line"/>
      <point x="494" y="48" type="line" smooth="yes"/>
      <point x="494" y="4"/>
      <point x="580" y="-10"/>
      <point x="688" y="-10" type="curve" smooth="yes"/>
    </contour>
    <contour>
      <point x="266" y="356"/>
      <point x="352" y="501"/>
      <point x="401" y="579" type="curve"/>
      <point x="494" y="579" type="line"/>
      <point x="494" y="254" type="line"/>
      <point x="213" y="254" type="line"/>
    </contour>
    <contour>
      <point x="661" y="855" type="line"/>
      <point x="616" y="860" type="line"/>
      <point x="532" y="721" type="line"/>
      <point x="551" y="717" type="line"/>
    </contour>
  </outline>
</glyph>
<glyph name="Oslashacute" format="1">
  <advance width="594"/>
  <unicode hex="01FE"/>
  <note>
	Oslashacute
  </note>
  <outline>
    <contour>
      <point x="175" y="14" type="line"/>
      <point x="205" y="-1"/>
      <point x="241" y="-10"/>
      <point x="285" y="-10" type="curve" smooth="yes"/>
      <point x="476" y="-10"/>
      <point x="530" y="124"/>
      <point x="530" y="312" type="curve" smooth="yes"/>
      <point x="530" y="445"/>
      <point x="502" y="538"/>
      <point x="436" y="585" type="curve"/>
      <point x="474" y="667" type="line"/>
      <point x="446" y="674" type="line"/>
      <point x="411" y="599" type="line"/>
      <point x="383" y="613"/>
      <point x="349" y="620"/>
      <point x="309" y="620" type="curve" smooth="yes"/>
      <point x="118" y="620"/>
      <point x="64" y="486"/>
      <point x="64" y="298" type="curve" smooth="yes"/>
      <point x="64" y="169"/>
      <point x="90" y="79"/>
      <point x="150" y="30" type="curve"/>
      <point x="110" y="-58" type="line"/>
      <point x="138" y="-66" type="line"/>
    </contour>
    <contour>
      <point x="114" y="107"/>
      <point x="96" y="188"/>
      <point x="96" y="305" type="curve" smooth="yes"/>
      <point x="96" y="411"/>
      <point x="118" y="496"/>
      <point x="161" y="557" type="curve"/>
      <point x="196" y="578"/>
      <point x="248" y="589"/>
      <point x="294" y="589" type="curve" smooth="yes"/>
      <point x="336" y="589"/>
      <point x="370" y="582"/>
      <point x="397" y="568" type="curve"/>
      <point x="165" y="62" type="line"/>
    </contour>
    <contour>
      <point x="254" y="21"/>
      <point x="217" y="29"/>
      <point x="189" y="45" type="curve"/>
      <point x="422" y="553" type="line"/>
      <point x="478" y="510"/>
      <point x="498" y="426"/>
      <point x="498" y="305" type="curve" smooth="yes"/>
      <point x="498" y="199"/>
      <point x="476" y="114"/>
      <point x="433" y="53" type="curve"/>
      <point x="398" y="32"/>
      <point x="346" y="21"/>
      <point x="300" y="21" type="curve" smooth="yes"/>
    </contour>
    <contour>
      <point x="403" y="855" type="line"/>
      <point x="358" y="860" type="line"/>
      <point x="274" y="721" type="line"/>
      <point x="293" y="717" type="line"/>
    </contour>
  </outline>
</glyph>
<glyph name="dotlessj" format="1">
  <advance width="247"/>
  <unicode hex="0237"/>
  <note>
	dotlessj
  </note>
  <outline>
    <contour>
      <point x="128" y="-182"/>
      <point x="162" y="-139"/>
      <point x="162" y="-65" type="curve" smooth="yes"/>
      <point x="162" y="462" type="line"/>
      <point x="132" y="462" type="line"/>
      <point x="132" y="-61" type="line" smooth="yes"/>
      <point x="132" y="-94"/>
      <point x="131" y="-118"/>
      <point x="122" y="-143" type="curve"/>
      <point x="103" y="-150"/>
      <point x="84" y="-153"/>
      <point x="56" y="-153" type="curve" smooth="yes"/>
      <point x="31" y="-153"/>
      <point x="12" y="-151"/>
      <point x="-12" y="-145" type="curve"/>
      <point x="-19" y="-172" type="line"/>
      <point x="4" y="-179"/>
      <point x="29" y="-182"/>
      <point x="55" y="-182" type="curve" smooth="yes"/>
    </contour>
  </outline>
</glyph>
<glyph name="schwa" format="1">
  <advance width="475"/>
  <unicode hex="0259"/>
  <note>
	schwa
  </note>
  <outline>
    <contour>
      <point x="354" y="-4"/>
      <point x="410" y="91"/>
      <point x="410" y="237" type="curve" smooth="yes"/>
      <point x="410" y="388"/>
      <point x="350" y="472"/>
      <point x="220" y="472" type="curve" smooth="yes"/>
      <point x="151" y="472"/>
      <point x="113" y="457"/>
      <point x="76" y="437" type="curve"/>
      <point x="87" y="412" type="line"/>
      <point x="126" y="433"/>
      <point x="161" y="443"/>
      <point x="220" y="443" type="curve" smooth="yes"/>
      <point x="331" y="443"/>
      <point x="376" y="376"/>
      <point x="380" y="249" type="curve"/>
      <point x="104" y="249" type="line"/>
      <point x="66" y="208" type="line"/>
      <point x="50" y="70"/>
      <point x="122" y="-4"/>
      <point x="224" y="-4" type="curve" smooth="yes"/>
    </contour>
    <contour>
      <point x="137" y="25"/>
      <point x="91" y="85"/>
      <point x="91" y="173" type="curve" smooth="yes"/>
      <point x="91" y="191"/>
      <point x="92" y="206"/>
      <point x="96" y="219" type="curve"/>
      <point x="380" y="224" type="line"/>
      <point x="372" y="103"/>
      <point x="339" y="25"/>
      <point x="227" y="25" type="curve" smooth="yes"/>
    </contour>
  </outline>
</glyph>
<glyph name="gscript" format="1">
  <advance width="492"/>
  <unicode hex="0261"/>
  <note>
	gscript
  </note>
  <outline>
    <contour>
      <point x="338" y="-194"/>
      <point x="407" y="-165"/>
      <point x="407" y="-77" type="curve" smooth="yes"/>
      <point x="407" y="459" type="line"/>
      <point x="382" y="459" type="line"/>
      <point x="379" y="386" type="line"/>
      <point x="373" y="386" type="line"/>
      <point x="343" y="429"/>
      <point x="302" y="464"/>
      <point x="236" y="464" type="curve" smooth="yes"/>
      <point x="118" y="464"/>
      <point x="65" y="370"/>
      <point x="65" y="222" type="curve" smooth="yes"/>
      <point x="65" y="82"/>
      <point x="119" y="-5"/>
      <point x="228" y="-5" type="curve" smooth="yes"/>
      <point x="295" y="-5"/>
      <point x="342" y="29"/>
      <point x="374" y="69" type="curve"/>
      <point x="381" y="69" type="line"/>
      <point x="378" y="11" type="line"/>
      <point x="378" y="-134" type="line"/>
      <point x="347" y="-155"/>
      <point x="306" y="-165"/>
      <point x="241" y="-165" type="curve" smooth="yes"/>
      <point x="194" y="-165"/>
      <point x="145" y="-154"/>
      <point x="105" y="-137" type="curve"/>
      <point x="95" y="-163" type="line"/>
      <point x="134" y="-181"/>
      <point x="181" y="-194"/>
      <point x="242" y="-194" type="curve" smooth="yes"/>
    </contour>
    <contour>
      <point x="138" y="24"/>
      <point x="95" y="93"/>
      <point x="95" y="223" type="curve" smooth="yes"/>
      <point x="95" y="357"/>
      <point x="135" y="435"/>
      <point x="237" y="435" type="curve" smooth="yes"/>
      <point x="304" y="435"/>
      <point x="348" y="391"/>
      <point x="378" y="349" type="curve"/>
      <point x="378" y="104" type="line"/>
      <point x="344" y="60"/>
      <point x="300" y="24"/>
      <point x="231" y="24" type="curve" smooth="yes"/>
    </contour>
  </outline>
</glyph>
<glyph name="uni02BE" format="1">
  <advance width="177"/>
  <unicode hex="02BE"/>
  <note>
	uni02BE
  </note>
  <outline>
    <contour>
      <point x="106" y="470"/>
      <point x="122" y="499"/>
      <point x="122" y="547" type="curve" smooth="yes"/>
      <point x="122" y="590"/>
      <point x="104" y="621"/>
      <point x="58" y="621" type="curve"/>
      <point x="58" y="592" type="line"/>
      <point x="85" y="592"/>
      <point x="92" y="570"/>
      <point x="92" y="544" type="curve" smooth="yes"/>
      <point x="92" y="527"/>
      <point x="91" y="515"/>
      <point x="87" y="501" type="curve"/>
      <point x="79" y="499"/>
      <point x="66" y="499"/>
      <point x="55" y="499" type="curve"/>
      <point x="55" y="470" type="line"/>
    </contour>
  </outline>
</glyph>
<glyph name="uni02BF" format="1">
  <advance width="197"/>
  <unicode hex="02BF"/>
  <note>
	uni02BF
  </note>
  <outline>
    <contour>
      <point x="132" y="499" type="line"/>
      <point x="121" y="499"/>
      <point x="108" y="499"/>
      <point x="100" y="501" type="curve"/>
      <point x="96" y="515"/>
      <point x="95" y="527"/>
      <point x="95" y="544" type="curve" smooth="yes"/>
      <point x="95" y="570"/>
      <point x="102" y="592"/>
      <point x="129" y="592" type="curve"/>
      <point x="129" y="621" type="line"/>
      <point x="83" y="621"/>
      <point x="65" y="590"/>
      <point x="65" y="547" type="curve" smooth="yes"/>
      <point x="65" y="499"/>
      <point x="81" y="470"/>
      <point x="132" y="470" type="curve"/>
    </contour>
  </outline>
</glyph>
<glyph name="circumflex" format="1">
  <advance width="334"/>
  <unicode hex="02C6"/>
  <note>
	circumflex
  </note>
  <outline>
    <contour>
      <point x="164" y="581" type="line"/>
      <point x="170" y="581" type="line"/>
      <point x="267" y="474" type="line"/>
      <point x="289" y="479" type="line"/>
      <point x="186" y="610" type="line"/>
      <point x="148" y="610" type="line"/>
      <point x="45" y="479" type="line"/>
      <point x="67" y="474" type="line"/>
    </contour>
  </outline>
</glyph>
<glyph name="uni02C8" format="1">
  <advance width="161"/>
  <unicode hex="02C8"/>
  <note>
	uni02C8
  </note>
  <outline>
    <contour>
      <point x="96" y="472" type="line"/>
      <point x="96" y="673" type="line"/>
      <point x="65" y="673" type="line"/>
      <point x="65" y="472" type="line"/>
    </contour>
  </outline>
</glyph>
<glyph name="uni02CA" format="1">
  <advance width="240"/>
  <unicode hex="02CA"/>
  <note>
	uni02CA
  </note>
  <outline>
    <contour>
      <point x="186" y="593" type="line"/>
      <point x="141" y="598" type="line"/>
      <point x="71" y="478" type="line"/>
      <point x="90" y="475" type="line"/>
    </contour>
  </outline>
</glyph>
<glyph name="uni02CC" format="1">
  <advance width="201"/>
  <unicode hex="02CC"/>
  <note>
	uni02CC
  </note>
  <outline>
    <contour>
      <point x="116" y="-207" type="line"/>
      <point x="116" y="-6" type="line"/>
      <point x="85" y="-6" type="line"/>
      <point x="85" y="-207" type="line"/>
    </contour>
  </outline>
</glyph>
<glyph name="breve" format="1">
  <advance width="364"/>
  <unicode hex="02D8"/>
  <note>
	breve
  </note>
  <outline>
    <contour>
      <point x="256" y="510"/>
      <point x="287" y="554"/>
      <point x="299" y="606" type="curve"/>
      <point x="266" y="612" type="line"/>
      <point x="257" y="570"/>
      <point x="239" y="539"/>
      <point x="182" y="539" type="curve" smooth="yes"/>
      <point x="125" y="539"/>
      <point x="107" y="570"/>
      <point x="98" y="612" type="curve"/>
      <point x="65" y="606" type="line"/>
      <point x="77" y="554"/>
      <point x="108" y="510"/>
      <point x="182" y="510" type="curve" smooth="yes"/>
    </contour>
  </outline>
</glyph>
<glyph name="dotaccent" format="1">
  <advance width="301"/>
  <unicode hex="02D9"/>
  <note>
	dotaccent
  </note>
  <outline>
    <contour>
      <point x="174" y="516"/>
      <point x="187" y="528"/>
      <point x="187" y="550" type="curve" smooth="yes"/>
      <point x="187" y="574"/>
      <point x="174" y="586"/>
      <point x="151" y="586" type="curve" smooth="yes"/>
      <point x="128" y="586"/>
      <point x="114" y="574"/>
      <point x="114" y="550" type="curve" smooth="yes"/>
      <point x="114" y="528"/>
      <point x="128" y="516"/>
      <point x="151" y="516" type="curve" smooth="yes"/>
    </contour>
  </outline>
</glyph>
<glyph name="ring" format="1">
  <advance width="335"/>
  <unicode hex="02DA"/>
  <note>
	ring
  </note>
  <outline>
    <contour>
      <point x="233" y="452"/>
      <point x="270" y="496"/>
      <point x="270" y="544" type="curve" smooth="yes"/>
      <point x="270" y="596"/>
      <point x="242" y="621"/>
      <point x="177" y="621" type="curve" smooth="yes"/>
      <point x="109" y="621"/>
      <point x="65" y="577"/>
      <point x="65" y="529" type="curve" smooth="yes"/>
      <point x="65" y="479"/>
      <point x="97" y="452"/>
      <point x="158" y="452" type="curve" smooth="yes"/>
    </contour>
    <contour>
      <point x="115" y="477"/>
      <point x="93" y="496"/>
      <point x="93" y="532" type="curve" smooth="yes"/>
      <point x="93" y="550"/>
      <point x="95" y="563"/>
      <point x="103" y="586" type="curve"/>
      <point x="128" y="594"/>
      <point x="147" y="596"/>
      <point x="173" y="596" type="curve" smooth="yes"/>
      <point x="220" y="596"/>
      <point x="242" y="581"/>
      <point x="242" y="541" type="curve" smooth="yes"/>
      <point x="242" y="523"/>
      <point x="239" y="507"/>
      <point x="232" y="487" type="curve"/>
      <point x="207" y="479"/>
      <point x="188" y="477"/>
      <point x="162" y="477" type="curve" smooth="yes"/>
    </contour>
  </outline>
</glyph>
<glyph name="ogonek" format="1">
  <advance width="286"/>
  <unicode hex="02DB"/>
  <note>
	ogonek
  </note>
  <outline>
    <contour>
      <point x="176" y="-167"/>
      <point x="191" y="-163"/>
      <point x="206" y="-156" type="curve"/>
      <point x="201" y="-133" type="line"/>
      <point x="186" y="-136"/>
      <point x="173" y="-138"/>
      <point x="160" y="-138" type="curve" smooth="yes"/>
      <point x="145" y="-138"/>
      <point x="135" y="-137"/>
      <point x="120" y="-134" type="curve"/>
      <point x="113" y="-122"/>
      <point x="110" y="-107"/>
      <point x="110" y="-93" type="curve" smooth="yes"/>
      <point x="110" y="-55"/>
      <point x="124" y="-29"/>
      <point x="169" y="-2" type="curve"/>
      <point x="146" y="4" type="line"/>
      <point x="100" y="-17"/>
      <point x="80" y="-50"/>
      <point x="80" y="-92" type="curve" smooth="yes"/>
      <point x="80" y="-136"/>
      <point x="103" y="-167"/>
      <point x="153" y="-167" type="curve" smooth="yes"/>
    </contour>
  </outline>
</glyph>
<glyph name="gravecomb" format="1">
  <advance width="0"/>
  <unicode hex="0300"/>
  <note>
	gravecomb
  </note>
  <outline>
    <contour>
      <point x="-125" y="623" type="line"/>
      <point x="-170" y="628" type="line"/>
      <point x="-254" y="489" type="line"/>
      <point x="-235" y="485" type="line"/>
    </contour>
  </outline>
</glyph>
<glyph name="uni0304" format="1">
  <advance width="0"/>
  <unicode hex="0304"/>
  <note>
	uni0304
  </note>
  <outline>
    <contour>
      <point x="-110" y="510" type="line"/>
      <point x="-110" y="539" type="line"/>
      <point x="-277" y="539" type="line"/>
      <point x="-277" y="510" type="line"/>
    </contour>
  </outline>
</glyph>
